%TF.GenerationSoftware,KiCad,Pcbnew,8.0.1-8.0.1-1~ubuntu22.04.1*%
%TF.CreationDate,2024-03-31T23:59:49-03:00*%
%TF.ProjectId,PCB-ESP,5043422d-4553-4502-9e6b-696361645f70,rev?*%
%TF.SameCoordinates,Original*%
%TF.FileFunction,Copper,L1,Top*%
%TF.FilePolarity,Positive*%
%FSLAX46Y46*%
G04 Gerber Fmt 4.6, Leading zero omitted, Abs format (unit mm)*
G04 Created by KiCad (PCBNEW 8.0.1-8.0.1-1~ubuntu22.04.1) date 2024-03-31 23:59:49*
%MOMM*%
%LPD*%
G01*
G04 APERTURE LIST*
G04 Aperture macros list*
%AMRoundRect*
0 Rectangle with rounded corners*
0 $1 Rounding radius*
0 $2 $3 $4 $5 $6 $7 $8 $9 X,Y pos of 4 corners*
0 Add a 4 corners polygon primitive as box body*
4,1,4,$2,$3,$4,$5,$6,$7,$8,$9,$2,$3,0*
0 Add four circle primitives for the rounded corners*
1,1,$1+$1,$2,$3*
1,1,$1+$1,$4,$5*
1,1,$1+$1,$6,$7*
1,1,$1+$1,$8,$9*
0 Add four rect primitives between the rounded corners*
20,1,$1+$1,$2,$3,$4,$5,0*
20,1,$1+$1,$4,$5,$6,$7,0*
20,1,$1+$1,$6,$7,$8,$9,0*
20,1,$1+$1,$8,$9,$2,$3,0*%
G04 Aperture macros list end*
%TA.AperFunction,ComponentPad*%
%ADD10O,1.700000X1.700000*%
%TD*%
%TA.AperFunction,SMDPad,CuDef*%
%ADD11R,3.500000X1.700000*%
%TD*%
%TA.AperFunction,ComponentPad*%
%ADD12R,1.700000X1.700000*%
%TD*%
%TA.AperFunction,SMDPad,CuDef*%
%ADD13R,1.700000X3.500000*%
%TD*%
%TA.AperFunction,ComponentPad*%
%ADD14C,2.400000*%
%TD*%
%TA.AperFunction,ComponentPad*%
%ADD15O,2.400000X2.400000*%
%TD*%
%TA.AperFunction,ComponentPad*%
%ADD16R,1.050000X1.500000*%
%TD*%
%TA.AperFunction,ComponentPad*%
%ADD17O,1.050000X1.500000*%
%TD*%
%TA.AperFunction,ComponentPad*%
%ADD18C,3.000000*%
%TD*%
%TA.AperFunction,ComponentPad*%
%ADD19R,2.540000X2.540000*%
%TD*%
%TA.AperFunction,ComponentPad*%
%ADD20C,2.540000*%
%TD*%
%TA.AperFunction,ComponentPad*%
%ADD21RoundRect,0.250000X-0.350000X-0.625000X0.350000X-0.625000X0.350000X0.625000X-0.350000X0.625000X0*%
%TD*%
%TA.AperFunction,ComponentPad*%
%ADD22O,1.200000X1.750000*%
%TD*%
%TA.AperFunction,ComponentPad*%
%ADD23R,1.800000X1.800000*%
%TD*%
%TA.AperFunction,ComponentPad*%
%ADD24C,1.800000*%
%TD*%
%TA.AperFunction,Conductor*%
%ADD25C,1.000000*%
%TD*%
%TA.AperFunction,Conductor*%
%ADD26C,0.200000*%
%TD*%
G04 APERTURE END LIST*
D10*
%TO.P,U1,1,GPIO0*%
%TO.N,unconnected-(U1-GPIO0-Pad1)*%
X108295000Y-65355000D03*
D11*
X107395000Y-65355000D03*
D10*
%TO.P,U1,2,GPIO1*%
%TO.N,unconnected-(U1-GPIO1-Pad2)*%
X108295000Y-67895000D03*
D11*
X107395000Y-67895000D03*
D12*
%TO.P,U1,3,GND*%
%TO.N,unconnected-(U1-GND-Pad3)*%
X108295000Y-70435000D03*
D11*
X107395000Y-70435000D03*
D10*
%TO.P,U1,4,GPIO2*%
%TO.N,unconnected-(U1-GPIO2-Pad4)*%
X108295000Y-72975000D03*
D11*
X107395000Y-72975000D03*
D10*
%TO.P,U1,5,GPIO3*%
%TO.N,unconnected-(U1-GPIO3-Pad5)*%
X108295000Y-75515000D03*
D11*
X107395000Y-75515000D03*
D10*
%TO.P,U1,6,GPIO4*%
%TO.N,unconnected-(U1-GPIO4-Pad6)*%
X108295000Y-78055000D03*
D11*
X107395000Y-78055000D03*
D10*
%TO.P,U1,7,GPIO5*%
%TO.N,unconnected-(U1-GPIO5-Pad7)*%
X108295000Y-80595000D03*
D11*
X107395000Y-80595000D03*
D12*
%TO.P,U1,8,GND*%
%TO.N,unconnected-(U1-GND-Pad8)*%
X108295000Y-83135000D03*
D11*
X107395000Y-83135000D03*
D10*
%TO.P,U1,9,GPIO6*%
%TO.N,unconnected-(U1-GPIO6-Pad9)*%
X108295000Y-85675000D03*
D11*
X107395000Y-85675000D03*
D10*
%TO.P,U1,10,GPIO7*%
%TO.N,unconnected-(U1-GPIO7-Pad10)*%
X108295000Y-88215000D03*
D11*
X107395000Y-88215000D03*
D10*
%TO.P,U1,11,GPIO8*%
%TO.N,unconnected-(U1-GPIO8-Pad11)*%
X108295000Y-90755000D03*
D11*
X107395000Y-90755000D03*
D10*
%TO.P,U1,12,GPIO9*%
%TO.N,unconnected-(U1-GPIO9-Pad12)*%
X108295000Y-93295000D03*
D11*
X107395000Y-93295000D03*
D12*
%TO.P,U1,13,GND*%
%TO.N,unconnected-(U1-GND-Pad13)*%
X108295000Y-95835000D03*
D11*
X107395000Y-95835000D03*
D10*
%TO.P,U1,14,GPIO10*%
%TO.N,unconnected-(U1-GPIO10-Pad14)*%
X108295000Y-98375000D03*
D11*
X107395000Y-98375000D03*
D10*
%TO.P,U1,15,GPIO11*%
%TO.N,unconnected-(U1-GPIO11-Pad15)*%
X108295000Y-100915000D03*
D11*
X107395000Y-100915000D03*
D10*
%TO.P,U1,16,GPIO12*%
%TO.N,unconnected-(U1-GPIO12-Pad16)*%
X108295000Y-103455000D03*
D11*
X107395000Y-103455000D03*
D10*
%TO.P,U1,17,GPIO13*%
%TO.N,unconnected-(U1-GPIO13-Pad17)*%
X108295000Y-105995000D03*
D11*
X107395000Y-105995000D03*
D12*
%TO.P,U1,18,GND*%
%TO.N,unconnected-(U1-GND-Pad18)*%
X108295000Y-108535000D03*
D11*
X107395000Y-108535000D03*
D10*
%TO.P,U1,19,GPIO14*%
%TO.N,unconnected-(U1-GPIO14-Pad19)*%
X108295000Y-111075000D03*
D11*
X107395000Y-111075000D03*
D10*
%TO.P,U1,20,GPIO15*%
%TO.N,unconnected-(U1-GPIO15-Pad20)*%
X108295000Y-113615000D03*
D11*
X107395000Y-113615000D03*
D10*
%TO.P,U1,21,GPIO16*%
%TO.N,GP16*%
X126075000Y-113615000D03*
D11*
X126975000Y-113615000D03*
D10*
%TO.P,U1,22,GPIO17*%
%TO.N,unconnected-(U1-GPIO17-Pad22)*%
X126075000Y-111075000D03*
D11*
X126975000Y-111075000D03*
D12*
%TO.P,U1,23,GND*%
%TO.N,unconnected-(U1-GND-Pad23)*%
X126075000Y-108535000D03*
D11*
X126975000Y-108535000D03*
D10*
%TO.P,U1,24,GPIO18*%
%TO.N,unconnected-(U1-GPIO18-Pad24)*%
X126075000Y-105995000D03*
D11*
X126975000Y-105995000D03*
D10*
%TO.P,U1,25,GPIO19*%
%TO.N,unconnected-(U1-GPIO19-Pad25)*%
X126075000Y-103455000D03*
D11*
X126975000Y-103455000D03*
D10*
%TO.P,U1,26,GPIO20*%
%TO.N,unconnected-(U1-GPIO20-Pad26)*%
X126075000Y-100915000D03*
D11*
X126975000Y-100915000D03*
D10*
%TO.P,U1,27,GPIO21*%
%TO.N,GP21*%
X126075000Y-98375000D03*
D11*
X126975000Y-98375000D03*
D12*
%TO.P,U1,28,GND*%
X126075000Y-95835000D03*
D11*
X126975000Y-95835000D03*
D10*
%TO.P,U1,29,GPIO22*%
%TO.N,unconnected-(U1-GPIO22-Pad29)*%
X126075000Y-93295000D03*
D11*
X126975000Y-93295000D03*
D10*
%TO.P,U1,30,RUN*%
%TO.N,unconnected-(U1-RUN-Pad30)*%
X126075000Y-90755000D03*
D11*
X126975000Y-90755000D03*
D10*
%TO.P,U1,31,GPIO26_ADC0*%
%TO.N,Analogico*%
X126075000Y-88215000D03*
D11*
X126975000Y-88215000D03*
D10*
%TO.P,U1,32,GPIO27_ADC1*%
%TO.N,unconnected-(U1-GPIO27_ADC1-Pad32)*%
X126075000Y-85675000D03*
D11*
X126975000Y-85675000D03*
D12*
%TO.P,U1,33,AGND*%
%TO.N,unconnected-(U1-AGND-Pad33)*%
X126075000Y-83135000D03*
D11*
X126975000Y-83135000D03*
D10*
%TO.P,U1,34,GPIO28_ADC2*%
%TO.N,unconnected-(U1-GPIO28_ADC2-Pad34)*%
X126075000Y-80595000D03*
D11*
X126975000Y-80595000D03*
D10*
%TO.P,U1,35,ADC_VREF*%
%TO.N,unconnected-(U1-ADC_VREF-Pad35)*%
X126075000Y-78055000D03*
D11*
X126975000Y-78055000D03*
D10*
%TO.P,U1,36,3V3*%
%TO.N,unconnected-(U1-3V3-Pad36)*%
X126075000Y-75515000D03*
D11*
X126975000Y-75515000D03*
D10*
%TO.P,U1,37,3V3_EN*%
%TO.N,unconnected-(U1-3V3_EN-Pad37)*%
X126075000Y-72975000D03*
D11*
X126975000Y-72975000D03*
D12*
%TO.P,U1,38,GND*%
%TO.N,GND*%
X126075000Y-70435000D03*
D11*
X126975000Y-70435000D03*
D10*
%TO.P,U1,39,VSYS*%
%TO.N,unconnected-(U1-VSYS-Pad39)*%
X126075000Y-67895000D03*
D11*
X126975000Y-67895000D03*
D10*
%TO.P,U1,40,VBUS*%
%TO.N,unconnected-(U1-VBUS-Pad40)*%
X126075000Y-65355000D03*
D11*
X126975000Y-65355000D03*
D10*
%TO.P,U1,41,SWCLK*%
%TO.N,unconnected-(U1-SWCLK-Pad41)*%
X114645000Y-113385000D03*
D13*
X114645000Y-114285000D03*
D12*
%TO.P,U1,42,GND*%
%TO.N,unconnected-(U1-GND-Pad42)*%
X117185000Y-113385000D03*
D13*
X117185000Y-114285000D03*
D10*
%TO.P,U1,43,SWDIO*%
%TO.N,unconnected-(U1-SWDIO-Pad43)*%
X119725000Y-113385000D03*
D13*
X119725000Y-114285000D03*
%TD*%
D14*
%TO.P,R2,1*%
%TO.N,GP16*%
X135800000Y-109000000D03*
D15*
%TO.P,R2,2*%
%TO.N,Net-(D1-K)*%
X161200000Y-109000000D03*
%TD*%
D14*
%TO.P,R1,1*%
%TO.N,GP21*%
X136100000Y-78500000D03*
D15*
%TO.P,R1,2*%
%TO.N,GND*%
X161500000Y-78500000D03*
%TD*%
D16*
%TO.P,Q1,1,C*%
%TO.N,GND*%
X154230000Y-69360000D03*
D17*
%TO.P,Q1,2,B*%
X155500000Y-69360000D03*
%TO.P,Q1,3,E*%
X156770000Y-69360000D03*
%TD*%
D18*
%TO.P,K1,11*%
%TO.N,Net-(J1-Pin_1)*%
X165750000Y-97300000D03*
%TO.P,K1,12*%
%TO.N,unconnected-(K1-Pad12)*%
X162550000Y-89680000D03*
%TO.P,K1,14*%
%TO.N,Net-(J1-Pin_1)*%
X168950000Y-89680000D03*
D19*
%TO.P,K1,A1*%
%TO.N,VCC*%
X143650000Y-97300000D03*
D20*
%TO.P,K1,A2*%
%TO.N,GND*%
X143650000Y-89680000D03*
%TD*%
D21*
%TO.P,J1,1,Pin_1*%
%TO.N,Net-(J1-Pin_1)*%
X167000000Y-76050000D03*
D22*
%TO.P,J1,2,Pin_2*%
X169000000Y-76050000D03*
%TD*%
D23*
%TO.P,D1,1,K*%
%TO.N,Net-(D1-K)*%
X171460000Y-108500000D03*
D24*
%TO.P,D1,2,A*%
%TO.N,unconnected-(D1-A-Pad2)*%
X174000000Y-108500000D03*
%TD*%
D25*
%TO.N,GP16*%
X135800000Y-109000000D02*
X131185000Y-113615000D01*
X131185000Y-113615000D02*
X126075000Y-113615000D01*
%TO.N,Net-(D1-K)*%
X161200000Y-109000000D02*
X170960000Y-109000000D01*
D26*
X170960000Y-109000000D02*
X171460000Y-108500000D01*
D25*
%TO.N,Net-(J1-Pin_1)*%
X169000000Y-76050000D02*
X169000000Y-89630000D01*
D26*
X169000000Y-89630000D02*
X168950000Y-89680000D01*
D25*
X167000000Y-76050000D02*
X167000000Y-96050000D01*
D26*
X167000000Y-96050000D02*
X165750000Y-97300000D01*
D25*
%TO.N,GND*%
X155500000Y-69360000D02*
X155500000Y-72500000D01*
X155500000Y-72500000D02*
X161500000Y-78500000D01*
X126075000Y-70435000D02*
X152470000Y-70435000D01*
X152470000Y-70435000D02*
X152470000Y-69245000D01*
X152470000Y-69245000D02*
X153405000Y-68310000D01*
X153405000Y-68310000D02*
X155945000Y-68310000D01*
X155945000Y-68310000D02*
X156770000Y-69135000D01*
D26*
X156770000Y-69135000D02*
X156770000Y-69360000D01*
D25*
X143650000Y-89680000D02*
X143650000Y-79940000D01*
X143650000Y-79940000D02*
X154230000Y-69360000D01*
D26*
%TO.N,GP21*%
X126075000Y-98375000D02*
X127635000Y-98375000D01*
D25*
X127635000Y-98375000D02*
X136100000Y-89910000D01*
X136100000Y-89910000D02*
X136100000Y-78500000D01*
%TD*%
%TA.AperFunction,NonConductor*%
G36*
X182443039Y-54519685D02*
G01*
X182488794Y-54572489D01*
X182500000Y-54624000D01*
X182500000Y-121376000D01*
X182480315Y-121443039D01*
X182427511Y-121488794D01*
X182376000Y-121500000D01*
X97124000Y-121500000D01*
X97056961Y-121480315D01*
X97011206Y-121427511D01*
X97000000Y-121376000D01*
X97000000Y-114512870D01*
X105144500Y-114512870D01*
X105144501Y-114512876D01*
X105150908Y-114572483D01*
X105201202Y-114707328D01*
X105201206Y-114707335D01*
X105287452Y-114822544D01*
X105287455Y-114822547D01*
X105402664Y-114908793D01*
X105402671Y-114908797D01*
X105537517Y-114959091D01*
X105537516Y-114959091D01*
X105544444Y-114959835D01*
X105597127Y-114965500D01*
X108230611Y-114965499D01*
X108241419Y-114965971D01*
X108294999Y-114970659D01*
X108295000Y-114970659D01*
X108295001Y-114970659D01*
X108348580Y-114965971D01*
X108359388Y-114965499D01*
X109192871Y-114965499D01*
X109192872Y-114965499D01*
X109252483Y-114959091D01*
X109387331Y-114908796D01*
X109502546Y-114822546D01*
X109588796Y-114707331D01*
X109639091Y-114572483D01*
X109645500Y-114512873D01*
X109645499Y-113679383D01*
X109645971Y-113668576D01*
X109650659Y-113615000D01*
X109650659Y-113614999D01*
X109645971Y-113561421D01*
X109645499Y-113550613D01*
X109645499Y-113385001D01*
X113289341Y-113385001D01*
X113294028Y-113438574D01*
X113294500Y-113449381D01*
X113294500Y-116082870D01*
X113294501Y-116082876D01*
X113300908Y-116142483D01*
X113351202Y-116277328D01*
X113351206Y-116277335D01*
X113437452Y-116392544D01*
X113437455Y-116392547D01*
X113552664Y-116478793D01*
X113552671Y-116478797D01*
X113687517Y-116529091D01*
X113687516Y-116529091D01*
X113694444Y-116529835D01*
X113747127Y-116535500D01*
X115542872Y-116535499D01*
X115602483Y-116529091D01*
X115737331Y-116478796D01*
X115840690Y-116401421D01*
X115906152Y-116377004D01*
X115974425Y-116391855D01*
X115989303Y-116401416D01*
X116092665Y-116478793D01*
X116092668Y-116478795D01*
X116092671Y-116478797D01*
X116227517Y-116529091D01*
X116227516Y-116529091D01*
X116234444Y-116529835D01*
X116287127Y-116535500D01*
X118082872Y-116535499D01*
X118142483Y-116529091D01*
X118277331Y-116478796D01*
X118380690Y-116401421D01*
X118446152Y-116377004D01*
X118514425Y-116391855D01*
X118529303Y-116401416D01*
X118632665Y-116478793D01*
X118632668Y-116478795D01*
X118632671Y-116478797D01*
X118767517Y-116529091D01*
X118767516Y-116529091D01*
X118774444Y-116529835D01*
X118827127Y-116535500D01*
X120622872Y-116535499D01*
X120682483Y-116529091D01*
X120817331Y-116478796D01*
X120932546Y-116392546D01*
X121018796Y-116277331D01*
X121069091Y-116142483D01*
X121075500Y-116082873D01*
X121075499Y-113615002D01*
X124719341Y-113615002D01*
X124724028Y-113668576D01*
X124724500Y-113679383D01*
X124724500Y-114512870D01*
X124724501Y-114512876D01*
X124730908Y-114572483D01*
X124781202Y-114707328D01*
X124781206Y-114707335D01*
X124867452Y-114822544D01*
X124867455Y-114822547D01*
X124982664Y-114908793D01*
X124982671Y-114908797D01*
X125117517Y-114959091D01*
X125117516Y-114959091D01*
X125124444Y-114959835D01*
X125177127Y-114965500D01*
X126010616Y-114965499D01*
X126021425Y-114965971D01*
X126075000Y-114970659D01*
X126128575Y-114965971D01*
X126139384Y-114965499D01*
X128772871Y-114965499D01*
X128772872Y-114965499D01*
X128832483Y-114959091D01*
X128967331Y-114908796D01*
X129082546Y-114822546D01*
X129168796Y-114707331D01*
X129172960Y-114696165D01*
X129214829Y-114640234D01*
X129280293Y-114615816D01*
X129289141Y-114615500D01*
X131283543Y-114615500D01*
X131380175Y-114596278D01*
X131428493Y-114586667D01*
X131476836Y-114577051D01*
X131530165Y-114554961D01*
X131658914Y-114501632D01*
X131822782Y-114392139D01*
X131962139Y-114252782D01*
X131962139Y-114252780D01*
X131972347Y-114242573D01*
X131972348Y-114242570D01*
X135490873Y-110724046D01*
X135552194Y-110690563D01*
X135597028Y-110689114D01*
X135672565Y-110700500D01*
X135672571Y-110700500D01*
X135927435Y-110700500D01*
X136179458Y-110662513D01*
X136423004Y-110587389D01*
X136652634Y-110476805D01*
X136863217Y-110333232D01*
X137050050Y-110159877D01*
X137208959Y-109960612D01*
X137336393Y-109739888D01*
X137429508Y-109502637D01*
X137486222Y-109254157D01*
X137505268Y-109000004D01*
X159494732Y-109000004D01*
X159513777Y-109254154D01*
X159566498Y-109485141D01*
X159570492Y-109502637D01*
X159625316Y-109642326D01*
X159663608Y-109739890D01*
X159666890Y-109745575D01*
X159791041Y-109960612D01*
X159949950Y-110159877D01*
X160136783Y-110333232D01*
X160347366Y-110476805D01*
X160347371Y-110476807D01*
X160347372Y-110476808D01*
X160347373Y-110476809D01*
X160469328Y-110535538D01*
X160576992Y-110587387D01*
X160576993Y-110587387D01*
X160576996Y-110587389D01*
X160820542Y-110662513D01*
X161072565Y-110700500D01*
X161327435Y-110700500D01*
X161579458Y-110662513D01*
X161823004Y-110587389D01*
X162052634Y-110476805D01*
X162263217Y-110333232D01*
X162450050Y-110159877D01*
X162539917Y-110047186D01*
X162597106Y-110007047D01*
X162636864Y-110000500D01*
X171058543Y-110000500D01*
X171188582Y-109974632D01*
X171251835Y-109962051D01*
X171377646Y-109909937D01*
X171425099Y-109900499D01*
X172407871Y-109900499D01*
X172407872Y-109900499D01*
X172467483Y-109894091D01*
X172602331Y-109843796D01*
X172717546Y-109757546D01*
X172803796Y-109642331D01*
X172832455Y-109565493D01*
X172874326Y-109509559D01*
X172939790Y-109485141D01*
X173008063Y-109499992D01*
X173039866Y-109524843D01*
X173047302Y-109532920D01*
X173048215Y-109533912D01*
X173048222Y-109533918D01*
X173231365Y-109676464D01*
X173231371Y-109676468D01*
X173231374Y-109676470D01*
X173435497Y-109786936D01*
X173488116Y-109805000D01*
X173655015Y-109862297D01*
X173655017Y-109862297D01*
X173655019Y-109862298D01*
X173883951Y-109900500D01*
X173883952Y-109900500D01*
X174116048Y-109900500D01*
X174116049Y-109900500D01*
X174344981Y-109862298D01*
X174564503Y-109786936D01*
X174768626Y-109676470D01*
X174951784Y-109533913D01*
X175108979Y-109363153D01*
X175235924Y-109168849D01*
X175329157Y-108956300D01*
X175386134Y-108731305D01*
X175405300Y-108500000D01*
X175405300Y-108499993D01*
X175386135Y-108268702D01*
X175386133Y-108268691D01*
X175329157Y-108043699D01*
X175235924Y-107831151D01*
X175108983Y-107636852D01*
X175108980Y-107636849D01*
X175108979Y-107636847D01*
X174951784Y-107466087D01*
X174951779Y-107466083D01*
X174951777Y-107466081D01*
X174768634Y-107323535D01*
X174768628Y-107323531D01*
X174564504Y-107213064D01*
X174564495Y-107213061D01*
X174344984Y-107137702D01*
X174154450Y-107105908D01*
X174116049Y-107099500D01*
X173883951Y-107099500D01*
X173845550Y-107105908D01*
X173655015Y-107137702D01*
X173435504Y-107213061D01*
X173435495Y-107213064D01*
X173231371Y-107323531D01*
X173231365Y-107323535D01*
X173048222Y-107466081D01*
X173048218Y-107466085D01*
X173039866Y-107475158D01*
X172979979Y-107511148D01*
X172910141Y-107509047D01*
X172852525Y-107469522D01*
X172832455Y-107434507D01*
X172803797Y-107357671D01*
X172803793Y-107357664D01*
X172717547Y-107242455D01*
X172717544Y-107242452D01*
X172602335Y-107156206D01*
X172602328Y-107156202D01*
X172467482Y-107105908D01*
X172467483Y-107105908D01*
X172407883Y-107099501D01*
X172407881Y-107099500D01*
X172407873Y-107099500D01*
X172407864Y-107099500D01*
X170512129Y-107099500D01*
X170512123Y-107099501D01*
X170452516Y-107105908D01*
X170317671Y-107156202D01*
X170317664Y-107156206D01*
X170202455Y-107242452D01*
X170202452Y-107242455D01*
X170116206Y-107357664D01*
X170116202Y-107357671D01*
X170065908Y-107492517D01*
X170059501Y-107552116D01*
X170059500Y-107552135D01*
X170059500Y-107875500D01*
X170039815Y-107942539D01*
X169987011Y-107988294D01*
X169935500Y-107999500D01*
X162636864Y-107999500D01*
X162569825Y-107979815D01*
X162539917Y-107952813D01*
X162531724Y-107942539D01*
X162450050Y-107840123D01*
X162263217Y-107666768D01*
X162052634Y-107523195D01*
X162052630Y-107523193D01*
X162052627Y-107523191D01*
X162052626Y-107523190D01*
X161823006Y-107412612D01*
X161823008Y-107412612D01*
X161579466Y-107337489D01*
X161579462Y-107337488D01*
X161579458Y-107337487D01*
X161458231Y-107319214D01*
X161327440Y-107299500D01*
X161327435Y-107299500D01*
X161072565Y-107299500D01*
X161072559Y-107299500D01*
X160915609Y-107323157D01*
X160820542Y-107337487D01*
X160820539Y-107337488D01*
X160820533Y-107337489D01*
X160576992Y-107412612D01*
X160347373Y-107523190D01*
X160347372Y-107523191D01*
X160136782Y-107666768D01*
X159949952Y-107840121D01*
X159949950Y-107840123D01*
X159791041Y-108039388D01*
X159663608Y-108260109D01*
X159570492Y-108497362D01*
X159570490Y-108497369D01*
X159513777Y-108745845D01*
X159494732Y-108999995D01*
X159494732Y-109000004D01*
X137505268Y-109000004D01*
X137505268Y-109000000D01*
X137486222Y-108745843D01*
X137429508Y-108497363D01*
X137336393Y-108260112D01*
X137208959Y-108039388D01*
X137050050Y-107840123D01*
X136863217Y-107666768D01*
X136652634Y-107523195D01*
X136652630Y-107523193D01*
X136652627Y-107523191D01*
X136652626Y-107523190D01*
X136423006Y-107412612D01*
X136423008Y-107412612D01*
X136179466Y-107337489D01*
X136179462Y-107337488D01*
X136179458Y-107337487D01*
X136058231Y-107319214D01*
X135927440Y-107299500D01*
X135927435Y-107299500D01*
X135672565Y-107299500D01*
X135672559Y-107299500D01*
X135515609Y-107323157D01*
X135420542Y-107337487D01*
X135420539Y-107337488D01*
X135420533Y-107337489D01*
X135176992Y-107412612D01*
X134947373Y-107523190D01*
X134947372Y-107523191D01*
X134736782Y-107666768D01*
X134549952Y-107840121D01*
X134549950Y-107840123D01*
X134391041Y-108039388D01*
X134263608Y-108260109D01*
X134170492Y-108497362D01*
X134170490Y-108497369D01*
X134113777Y-108745845D01*
X134094732Y-108999995D01*
X134094732Y-109000004D01*
X134110721Y-109213381D01*
X134096101Y-109281704D01*
X134074749Y-109310328D01*
X130806899Y-112578181D01*
X130745576Y-112611666D01*
X130719218Y-112614500D01*
X129289141Y-112614500D01*
X129222102Y-112594815D01*
X129176347Y-112542011D01*
X129172969Y-112533859D01*
X129168796Y-112522669D01*
X129091421Y-112419309D01*
X129067004Y-112353848D01*
X129081855Y-112285575D01*
X129091416Y-112270696D01*
X129168796Y-112167331D01*
X129219091Y-112032483D01*
X129225500Y-111972873D01*
X129225499Y-110177128D01*
X129219091Y-110117517D01*
X129177888Y-110007047D01*
X129168797Y-109982671D01*
X129168795Y-109982668D01*
X129153361Y-109962051D01*
X129091421Y-109879309D01*
X129067004Y-109813848D01*
X129081855Y-109745575D01*
X129091416Y-109730696D01*
X129168796Y-109627331D01*
X129219091Y-109492483D01*
X129225500Y-109432873D01*
X129225499Y-107637128D01*
X129219091Y-107577517D01*
X129209621Y-107552127D01*
X129168797Y-107442671D01*
X129168795Y-107442668D01*
X129146295Y-107412612D01*
X129091421Y-107339309D01*
X129067004Y-107273848D01*
X129081855Y-107205575D01*
X129091416Y-107190696D01*
X129168796Y-107087331D01*
X129219091Y-106952483D01*
X129225500Y-106892873D01*
X129225499Y-105097128D01*
X129219091Y-105037517D01*
X129168796Y-104902669D01*
X129091421Y-104799309D01*
X129067004Y-104733848D01*
X129081855Y-104665575D01*
X129091416Y-104650696D01*
X129168796Y-104547331D01*
X129219091Y-104412483D01*
X129225500Y-104352873D01*
X129225499Y-102557128D01*
X129219091Y-102497517D01*
X129168796Y-102362669D01*
X129091421Y-102259309D01*
X129067004Y-102193848D01*
X129081855Y-102125575D01*
X129091416Y-102110696D01*
X129168796Y-102007331D01*
X129219091Y-101872483D01*
X129225500Y-101812873D01*
X129225499Y-100017128D01*
X129219091Y-99957517D01*
X129168796Y-99822669D01*
X129091421Y-99719309D01*
X129067004Y-99653848D01*
X129081855Y-99585575D01*
X129091416Y-99570696D01*
X129168796Y-99467331D01*
X129219091Y-99332483D01*
X129225500Y-99272873D01*
X129225499Y-98617870D01*
X141879500Y-98617870D01*
X141879501Y-98617876D01*
X141885908Y-98677483D01*
X141936202Y-98812328D01*
X141936206Y-98812335D01*
X142022452Y-98927544D01*
X142022455Y-98927547D01*
X142137664Y-99013793D01*
X142137671Y-99013797D01*
X142272517Y-99064091D01*
X142272516Y-99064091D01*
X142279444Y-99064835D01*
X142332127Y-99070500D01*
X144967872Y-99070499D01*
X145027483Y-99064091D01*
X145162331Y-99013796D01*
X145277546Y-98927546D01*
X145363796Y-98812331D01*
X145414091Y-98677483D01*
X145420500Y-98617873D01*
X145420500Y-97300001D01*
X163744390Y-97300001D01*
X163764804Y-97585433D01*
X163825628Y-97865037D01*
X163925635Y-98133166D01*
X164062770Y-98384309D01*
X164062775Y-98384317D01*
X164234254Y-98613387D01*
X164234270Y-98613405D01*
X164436594Y-98815729D01*
X164436612Y-98815745D01*
X164665682Y-98987224D01*
X164665690Y-98987229D01*
X164916833Y-99124364D01*
X164916832Y-99124364D01*
X164916836Y-99124365D01*
X164916839Y-99124367D01*
X165184954Y-99224369D01*
X165184960Y-99224370D01*
X165184962Y-99224371D01*
X165464566Y-99285195D01*
X165464568Y-99285195D01*
X165464572Y-99285196D01*
X165718220Y-99303337D01*
X165749999Y-99305610D01*
X165750000Y-99305610D01*
X165750001Y-99305610D01*
X165778595Y-99303564D01*
X166035428Y-99285196D01*
X166092063Y-99272876D01*
X166315037Y-99224371D01*
X166315037Y-99224370D01*
X166315046Y-99224369D01*
X166583161Y-99124367D01*
X166834315Y-98987226D01*
X167063395Y-98815739D01*
X167265739Y-98613395D01*
X167437226Y-98384315D01*
X167574367Y-98133161D01*
X167674369Y-97865046D01*
X167735196Y-97585428D01*
X167755610Y-97300000D01*
X167754370Y-97282669D01*
X167746130Y-97167454D01*
X167735196Y-97014572D01*
X167698694Y-96846777D01*
X167703678Y-96777090D01*
X167732179Y-96732741D01*
X167777139Y-96687782D01*
X167886632Y-96523914D01*
X167962051Y-96341835D01*
X168000500Y-96148541D01*
X168000500Y-91639568D01*
X168020185Y-91572529D01*
X168072989Y-91526774D01*
X168142147Y-91516830D01*
X168167823Y-91523383D01*
X168384954Y-91604369D01*
X168384960Y-91604370D01*
X168384962Y-91604371D01*
X168664566Y-91665195D01*
X168664568Y-91665195D01*
X168664572Y-91665196D01*
X168918220Y-91683337D01*
X168949999Y-91685610D01*
X168950000Y-91685610D01*
X168950001Y-91685610D01*
X168978595Y-91683564D01*
X169235428Y-91665196D01*
X169292063Y-91652876D01*
X169515037Y-91604371D01*
X169515037Y-91604370D01*
X169515046Y-91604369D01*
X169783161Y-91504367D01*
X170034315Y-91367226D01*
X170263395Y-91195739D01*
X170465739Y-90993395D01*
X170637226Y-90764315D01*
X170774367Y-90513161D01*
X170874369Y-90245046D01*
X170935196Y-89965428D01*
X170955610Y-89680000D01*
X170954370Y-89662669D01*
X170946130Y-89547454D01*
X170935196Y-89394572D01*
X170916217Y-89307328D01*
X170874371Y-89114962D01*
X170874370Y-89114960D01*
X170874369Y-89114954D01*
X170774367Y-88846839D01*
X170637226Y-88595685D01*
X170544919Y-88472377D01*
X170465745Y-88366612D01*
X170465729Y-88366594D01*
X170263405Y-88164270D01*
X170263387Y-88164254D01*
X170050190Y-88004657D01*
X170008318Y-87948723D01*
X170000500Y-87905390D01*
X170000500Y-76815235D01*
X170014016Y-76758939D01*
X170019873Y-76747445D01*
X170073402Y-76582701D01*
X170100500Y-76411611D01*
X170100500Y-75688389D01*
X170073402Y-75517299D01*
X170019873Y-75352555D01*
X169941232Y-75198212D01*
X169839414Y-75058072D01*
X169716928Y-74935586D01*
X169576788Y-74833768D01*
X169422445Y-74755127D01*
X169257701Y-74701598D01*
X169257699Y-74701597D01*
X169257698Y-74701597D01*
X169126271Y-74680781D01*
X169086611Y-74674500D01*
X168913389Y-74674500D01*
X168873728Y-74680781D01*
X168742302Y-74701597D01*
X168577552Y-74755128D01*
X168423211Y-74833768D01*
X168283073Y-74935585D01*
X168175530Y-75043128D01*
X168114207Y-75076612D01*
X168044515Y-75071628D01*
X167988582Y-75029756D01*
X167982310Y-75020543D01*
X167942712Y-74956344D01*
X167818656Y-74832288D01*
X167693559Y-74755128D01*
X167669336Y-74740187D01*
X167669331Y-74740185D01*
X167667862Y-74739698D01*
X167502797Y-74685001D01*
X167502795Y-74685000D01*
X167400010Y-74674500D01*
X166599998Y-74674500D01*
X166599980Y-74674501D01*
X166497203Y-74685000D01*
X166497200Y-74685001D01*
X166330668Y-74740185D01*
X166330663Y-74740187D01*
X166181342Y-74832289D01*
X166057289Y-74956342D01*
X165965187Y-75105663D01*
X165965186Y-75105666D01*
X165910001Y-75272203D01*
X165910001Y-75272204D01*
X165910000Y-75272204D01*
X165899500Y-75374983D01*
X165899500Y-76725001D01*
X165899501Y-76725018D01*
X165910000Y-76827796D01*
X165910001Y-76827799D01*
X165938106Y-76912612D01*
X165965186Y-76994334D01*
X165981039Y-77020036D01*
X165999500Y-77085132D01*
X165999500Y-95179048D01*
X165979815Y-95246087D01*
X165927011Y-95291842D01*
X165866655Y-95302732D01*
X165750002Y-95294390D01*
X165749999Y-95294390D01*
X165464566Y-95314804D01*
X165184962Y-95375628D01*
X164916833Y-95475635D01*
X164665690Y-95612770D01*
X164665682Y-95612775D01*
X164436612Y-95784254D01*
X164436594Y-95784270D01*
X164234270Y-95986594D01*
X164234254Y-95986612D01*
X164062775Y-96215682D01*
X164062770Y-96215690D01*
X163925635Y-96466833D01*
X163825628Y-96734962D01*
X163764804Y-97014566D01*
X163744390Y-97299998D01*
X163744390Y-97300001D01*
X145420500Y-97300001D01*
X145420499Y-95982128D01*
X145414091Y-95922517D01*
X145363796Y-95787669D01*
X145363795Y-95787668D01*
X145363793Y-95787664D01*
X145277547Y-95672455D01*
X145277544Y-95672452D01*
X145162335Y-95586206D01*
X145162328Y-95586202D01*
X145027482Y-95535908D01*
X145027483Y-95535908D01*
X144967883Y-95529501D01*
X144967881Y-95529500D01*
X144967873Y-95529500D01*
X144967864Y-95529500D01*
X142332129Y-95529500D01*
X142332123Y-95529501D01*
X142272516Y-95535908D01*
X142137671Y-95586202D01*
X142137664Y-95586206D01*
X142022455Y-95672452D01*
X142022452Y-95672455D01*
X141936206Y-95787664D01*
X141936202Y-95787671D01*
X141885908Y-95922517D01*
X141879501Y-95982116D01*
X141879501Y-95982123D01*
X141879500Y-95982135D01*
X141879500Y-98617870D01*
X129225499Y-98617870D01*
X129225499Y-98250780D01*
X129245183Y-98183742D01*
X129261813Y-98163105D01*
X136737778Y-90687141D01*
X136737782Y-90687139D01*
X136877139Y-90547782D01*
X136986632Y-90383914D01*
X137062051Y-90201835D01*
X137100500Y-90008541D01*
X137100500Y-79941527D01*
X137120185Y-79874488D01*
X137154647Y-79839074D01*
X137163217Y-79833232D01*
X137350050Y-79659877D01*
X137508959Y-79460612D01*
X137636393Y-79239888D01*
X137729508Y-79002637D01*
X137786222Y-78754157D01*
X137805268Y-78500000D01*
X137786222Y-78245843D01*
X137729508Y-77997363D01*
X137636393Y-77760112D01*
X137508959Y-77539388D01*
X137350050Y-77340123D01*
X137163217Y-77166768D01*
X136952634Y-77023195D01*
X136952630Y-77023193D01*
X136952627Y-77023191D01*
X136952626Y-77023190D01*
X136723006Y-76912612D01*
X136723008Y-76912612D01*
X136479466Y-76837489D01*
X136479462Y-76837488D01*
X136479458Y-76837487D01*
X136358231Y-76819214D01*
X136227440Y-76799500D01*
X136227435Y-76799500D01*
X135972565Y-76799500D01*
X135972559Y-76799500D01*
X135815609Y-76823157D01*
X135720542Y-76837487D01*
X135720539Y-76837488D01*
X135720533Y-76837489D01*
X135476992Y-76912612D01*
X135247373Y-77023190D01*
X135247372Y-77023191D01*
X135036782Y-77166768D01*
X134849952Y-77340121D01*
X134849950Y-77340123D01*
X134691041Y-77539388D01*
X134563608Y-77760109D01*
X134470492Y-77997362D01*
X134470490Y-77997369D01*
X134413777Y-78245845D01*
X134394732Y-78499995D01*
X134394732Y-78500004D01*
X134413777Y-78754154D01*
X134459133Y-78952873D01*
X134470492Y-79002637D01*
X134563607Y-79239888D01*
X134691041Y-79460612D01*
X134849950Y-79659877D01*
X134849955Y-79659881D01*
X134849958Y-79659885D01*
X135036774Y-79833225D01*
X135036779Y-79833228D01*
X135036783Y-79833232D01*
X135045351Y-79839073D01*
X135089652Y-79893099D01*
X135099500Y-79941527D01*
X135099500Y-89444217D01*
X135079815Y-89511256D01*
X135063181Y-89531898D01*
X129437180Y-95157899D01*
X129375857Y-95191384D01*
X129306165Y-95186400D01*
X129250232Y-95144528D01*
X129225815Y-95079064D01*
X129225499Y-95070218D01*
X129225499Y-94937129D01*
X129225498Y-94937123D01*
X129225497Y-94937116D01*
X129219091Y-94877517D01*
X129168796Y-94742669D01*
X129091421Y-94639309D01*
X129067004Y-94573848D01*
X129081855Y-94505575D01*
X129091416Y-94490696D01*
X129168796Y-94387331D01*
X129219091Y-94252483D01*
X129225500Y-94192873D01*
X129225499Y-92397128D01*
X129219091Y-92337517D01*
X129168796Y-92202669D01*
X129091421Y-92099309D01*
X129067004Y-92033848D01*
X129081855Y-91965575D01*
X129091416Y-91950696D01*
X129168796Y-91847331D01*
X129219091Y-91712483D01*
X129225500Y-91652873D01*
X129225499Y-89857128D01*
X129219091Y-89797517D01*
X129175260Y-89680001D01*
X129168797Y-89662671D01*
X129168795Y-89662668D01*
X129091421Y-89559309D01*
X129067004Y-89493848D01*
X129081855Y-89425575D01*
X129091416Y-89410696D01*
X129168796Y-89307331D01*
X129219091Y-89172483D01*
X129225500Y-89112873D01*
X129225499Y-87317128D01*
X129219091Y-87257517D01*
X129168796Y-87122669D01*
X129091421Y-87019309D01*
X129067004Y-86953848D01*
X129081855Y-86885575D01*
X129091416Y-86870696D01*
X129168796Y-86767331D01*
X129219091Y-86632483D01*
X129225500Y-86572873D01*
X129225499Y-84777128D01*
X129219091Y-84717517D01*
X129168796Y-84582669D01*
X129091421Y-84479309D01*
X129067004Y-84413848D01*
X129081855Y-84345575D01*
X129091416Y-84330696D01*
X129168796Y-84227331D01*
X129219091Y-84092483D01*
X129225500Y-84032873D01*
X129225499Y-82237128D01*
X129219091Y-82177517D01*
X129168796Y-82042669D01*
X129091421Y-81939309D01*
X129067004Y-81873848D01*
X129081855Y-81805575D01*
X129091416Y-81790696D01*
X129168796Y-81687331D01*
X129219091Y-81552483D01*
X129225500Y-81492873D01*
X129225499Y-79697128D01*
X129219091Y-79637517D01*
X129168796Y-79502669D01*
X129091421Y-79399309D01*
X129067004Y-79333848D01*
X129081855Y-79265575D01*
X129091416Y-79250696D01*
X129168796Y-79147331D01*
X129219091Y-79012483D01*
X129225500Y-78952873D01*
X129225499Y-77157128D01*
X129219091Y-77097517D01*
X129191369Y-77023191D01*
X129168797Y-76962671D01*
X129168795Y-76962668D01*
X129131323Y-76912612D01*
X129091421Y-76859309D01*
X129067004Y-76793848D01*
X129081855Y-76725575D01*
X129091416Y-76710696D01*
X129168796Y-76607331D01*
X129219091Y-76472483D01*
X129225500Y-76412873D01*
X129225499Y-74617128D01*
X129219091Y-74557517D01*
X129168796Y-74422669D01*
X129091421Y-74319309D01*
X129067004Y-74253848D01*
X129081855Y-74185575D01*
X129091416Y-74170696D01*
X129168796Y-74067331D01*
X129219091Y-73932483D01*
X129225500Y-73872873D01*
X129225499Y-72077128D01*
X129219091Y-72017517D01*
X129168796Y-71882669D01*
X129091421Y-71779309D01*
X129067004Y-71713848D01*
X129081855Y-71645575D01*
X129091416Y-71630696D01*
X129168796Y-71527331D01*
X129172960Y-71516165D01*
X129214829Y-71460234D01*
X129280293Y-71435816D01*
X129289141Y-71435500D01*
X150440217Y-71435500D01*
X150507256Y-71455185D01*
X150553011Y-71507989D01*
X150562955Y-71577147D01*
X150533930Y-71640703D01*
X150527898Y-71647181D01*
X143012220Y-79162859D01*
X143012218Y-79162861D01*
X142942538Y-79232540D01*
X142872859Y-79302219D01*
X142763371Y-79466080D01*
X142763366Y-79466089D01*
X142741089Y-79519873D01*
X142687949Y-79648163D01*
X142687947Y-79648171D01*
X142677736Y-79699507D01*
X142677736Y-79699508D01*
X142649500Y-79841456D01*
X142649500Y-88153750D01*
X142629815Y-88220789D01*
X142595352Y-88256203D01*
X142543019Y-88291882D01*
X142348494Y-88472375D01*
X142348492Y-88472377D01*
X142183042Y-88679845D01*
X142050361Y-88909654D01*
X141953416Y-89156667D01*
X141953410Y-89156686D01*
X141894364Y-89415385D01*
X141894363Y-89415390D01*
X141874535Y-89679995D01*
X141874535Y-89680004D01*
X141894363Y-89944609D01*
X141894364Y-89944614D01*
X141953410Y-90203313D01*
X141953412Y-90203322D01*
X141953414Y-90203327D01*
X142050361Y-90450345D01*
X142183042Y-90680155D01*
X142348492Y-90887623D01*
X142543016Y-91068114D01*
X142762268Y-91217598D01*
X143001350Y-91332734D01*
X143254922Y-91410950D01*
X143254923Y-91410950D01*
X143254926Y-91410951D01*
X143517311Y-91450499D01*
X143517316Y-91450499D01*
X143517319Y-91450500D01*
X143517320Y-91450500D01*
X143782680Y-91450500D01*
X143782681Y-91450500D01*
X143782688Y-91450499D01*
X144045073Y-91410951D01*
X144045074Y-91410950D01*
X144045078Y-91410950D01*
X144298650Y-91332734D01*
X144537733Y-91217598D01*
X144756984Y-91068114D01*
X144951508Y-90887623D01*
X145116958Y-90680155D01*
X145249639Y-90450345D01*
X145346586Y-90203327D01*
X145405635Y-89944619D01*
X145412191Y-89857135D01*
X145425465Y-89680004D01*
X145425465Y-89680001D01*
X160544390Y-89680001D01*
X160564804Y-89965433D01*
X160625628Y-90245037D01*
X160625630Y-90245043D01*
X160625631Y-90245046D01*
X160702204Y-90450345D01*
X160725635Y-90513166D01*
X160862770Y-90764309D01*
X160862775Y-90764317D01*
X161034254Y-90993387D01*
X161034270Y-90993405D01*
X161236594Y-91195729D01*
X161236612Y-91195745D01*
X161465682Y-91367224D01*
X161465690Y-91367229D01*
X161716833Y-91504364D01*
X161716832Y-91504364D01*
X161716836Y-91504365D01*
X161716839Y-91504367D01*
X161984954Y-91604369D01*
X161984960Y-91604370D01*
X161984962Y-91604371D01*
X162264566Y-91665195D01*
X162264568Y-91665195D01*
X162264572Y-91665196D01*
X162518220Y-91683337D01*
X162549999Y-91685610D01*
X162550000Y-91685610D01*
X162550001Y-91685610D01*
X162578595Y-91683564D01*
X162835428Y-91665196D01*
X162892063Y-91652876D01*
X163115037Y-91604371D01*
X163115037Y-91604370D01*
X163115046Y-91604369D01*
X163383161Y-91504367D01*
X163634315Y-91367226D01*
X163863395Y-91195739D01*
X164065739Y-90993395D01*
X164237226Y-90764315D01*
X164374367Y-90513161D01*
X164474369Y-90245046D01*
X164535196Y-89965428D01*
X164555610Y-89680000D01*
X164554370Y-89662669D01*
X164546130Y-89547454D01*
X164535196Y-89394572D01*
X164516217Y-89307328D01*
X164474371Y-89114962D01*
X164474370Y-89114960D01*
X164474369Y-89114954D01*
X164374367Y-88846839D01*
X164237226Y-88595685D01*
X164144919Y-88472377D01*
X164065745Y-88366612D01*
X164065729Y-88366594D01*
X163863405Y-88164270D01*
X163863387Y-88164254D01*
X163634317Y-87992775D01*
X163634309Y-87992770D01*
X163383166Y-87855635D01*
X163383167Y-87855635D01*
X163275915Y-87815632D01*
X163115046Y-87755631D01*
X163115043Y-87755630D01*
X163115037Y-87755628D01*
X162835433Y-87694804D01*
X162550001Y-87674390D01*
X162549999Y-87674390D01*
X162264566Y-87694804D01*
X161984962Y-87755628D01*
X161716833Y-87855635D01*
X161465690Y-87992770D01*
X161465682Y-87992775D01*
X161236612Y-88164254D01*
X161236594Y-88164270D01*
X161034270Y-88366594D01*
X161034254Y-88366612D01*
X160862775Y-88595682D01*
X160862770Y-88595690D01*
X160725635Y-88846833D01*
X160625628Y-89114962D01*
X160564804Y-89394566D01*
X160544390Y-89679998D01*
X160544390Y-89680001D01*
X145425465Y-89680001D01*
X145425465Y-89679995D01*
X145405636Y-89415390D01*
X145405635Y-89415385D01*
X145405635Y-89415381D01*
X145346586Y-89156673D01*
X145249639Y-88909655D01*
X145116958Y-88679845D01*
X144951508Y-88472377D01*
X144756984Y-88291886D01*
X144730708Y-88273971D01*
X144704646Y-88256201D01*
X144660345Y-88202171D01*
X144650500Y-88153749D01*
X144650500Y-80405782D01*
X144670185Y-80338743D01*
X144686819Y-80318101D01*
X154287819Y-70717101D01*
X154349142Y-70683616D01*
X154418834Y-70688600D01*
X154474767Y-70730472D01*
X154499184Y-70795936D01*
X154499500Y-70804782D01*
X154499500Y-72598541D01*
X154499500Y-72598543D01*
X154499499Y-72598543D01*
X154537947Y-72791829D01*
X154537950Y-72791839D01*
X154613364Y-72973907D01*
X154613371Y-72973920D01*
X154722859Y-73137780D01*
X154722860Y-73137781D01*
X154722861Y-73137782D01*
X154862218Y-73277139D01*
X154862219Y-73277139D01*
X154869286Y-73284206D01*
X154869285Y-73284206D01*
X154869289Y-73284209D01*
X159774749Y-78189670D01*
X159808234Y-78250993D01*
X159810721Y-78286617D01*
X159794732Y-78499995D01*
X159794732Y-78500004D01*
X159813777Y-78754154D01*
X159859133Y-78952873D01*
X159870492Y-79002637D01*
X159963607Y-79239888D01*
X160091041Y-79460612D01*
X160249950Y-79659877D01*
X160436783Y-79833232D01*
X160647366Y-79976805D01*
X160647371Y-79976807D01*
X160647372Y-79976808D01*
X160647373Y-79976809D01*
X160769328Y-80035538D01*
X160876992Y-80087387D01*
X160876993Y-80087387D01*
X160876996Y-80087389D01*
X161120542Y-80162513D01*
X161372565Y-80200500D01*
X161627435Y-80200500D01*
X161879458Y-80162513D01*
X162123004Y-80087389D01*
X162352634Y-79976805D01*
X162563217Y-79833232D01*
X162750050Y-79659877D01*
X162908959Y-79460612D01*
X163036393Y-79239888D01*
X163129508Y-79002637D01*
X163186222Y-78754157D01*
X163205268Y-78500000D01*
X163186222Y-78245843D01*
X163129508Y-77997363D01*
X163036393Y-77760112D01*
X162908959Y-77539388D01*
X162750050Y-77340123D01*
X162563217Y-77166768D01*
X162352634Y-77023195D01*
X162352630Y-77023193D01*
X162352627Y-77023191D01*
X162352626Y-77023190D01*
X162123006Y-76912612D01*
X162123008Y-76912612D01*
X161879466Y-76837489D01*
X161879462Y-76837488D01*
X161879458Y-76837487D01*
X161758231Y-76819214D01*
X161627440Y-76799500D01*
X161627435Y-76799500D01*
X161372565Y-76799500D01*
X161372557Y-76799500D01*
X161297033Y-76810884D01*
X161227809Y-76801411D01*
X161190871Y-76775950D01*
X156536819Y-72121898D01*
X156503334Y-72060575D01*
X156500500Y-72034217D01*
X156500500Y-70728078D01*
X156520185Y-70661039D01*
X156572989Y-70615284D01*
X156642147Y-70605340D01*
X156648682Y-70606459D01*
X156668997Y-70610500D01*
X156871004Y-70610500D01*
X156871005Y-70610499D01*
X157069127Y-70571091D01*
X157255756Y-70493786D01*
X157423718Y-70381558D01*
X157566558Y-70238718D01*
X157678786Y-70070756D01*
X157756091Y-69884127D01*
X157795500Y-69686003D01*
X157795500Y-69033997D01*
X157756091Y-68835873D01*
X157678786Y-68649244D01*
X157678784Y-68649241D01*
X157678782Y-68649237D01*
X157566558Y-68481281D01*
X157423721Y-68338444D01*
X157423717Y-68338441D01*
X157327319Y-68274030D01*
X157308529Y-68258609D01*
X156726479Y-67676559D01*
X156726459Y-67676537D01*
X156582785Y-67532863D01*
X156582781Y-67532860D01*
X156418920Y-67423371D01*
X156418911Y-67423366D01*
X156346315Y-67393296D01*
X156290165Y-67370038D01*
X156236836Y-67347949D01*
X156236832Y-67347948D01*
X156236828Y-67347946D01*
X156140188Y-67328724D01*
X156043544Y-67309500D01*
X156043541Y-67309500D01*
X153306459Y-67309500D01*
X153306454Y-67309500D01*
X153274391Y-67315876D01*
X153274392Y-67315877D01*
X153113170Y-67347946D01*
X153113164Y-67347948D01*
X152931088Y-67423366D01*
X152931079Y-67423371D01*
X152767219Y-67532859D01*
X152767215Y-67532862D01*
X152041470Y-68258609D01*
X151832220Y-68467859D01*
X151832218Y-68467861D01*
X151785082Y-68514997D01*
X151692859Y-68607219D01*
X151583371Y-68771080D01*
X151583364Y-68771093D01*
X151535734Y-68886086D01*
X151535734Y-68886087D01*
X151510181Y-68947777D01*
X151510179Y-68947783D01*
X151507949Y-68953165D01*
X151507946Y-68953174D01*
X151469500Y-69146454D01*
X151469500Y-69310500D01*
X151449815Y-69377539D01*
X151397011Y-69423294D01*
X151345500Y-69434500D01*
X129289141Y-69434500D01*
X129222102Y-69414815D01*
X129176347Y-69362011D01*
X129172969Y-69353859D01*
X129168796Y-69342669D01*
X129091421Y-69239309D01*
X129067004Y-69173848D01*
X129081855Y-69105575D01*
X129091416Y-69090696D01*
X129168796Y-68987331D01*
X129219091Y-68852483D01*
X129225500Y-68792873D01*
X129225499Y-66997128D01*
X129219091Y-66937517D01*
X129168796Y-66802669D01*
X129091421Y-66699309D01*
X129067004Y-66633848D01*
X129081855Y-66565575D01*
X129091416Y-66550696D01*
X129168796Y-66447331D01*
X129219091Y-66312483D01*
X129225500Y-66252873D01*
X129225499Y-64457128D01*
X129219091Y-64397517D01*
X129185901Y-64308531D01*
X129168797Y-64262671D01*
X129168793Y-64262664D01*
X129082547Y-64147455D01*
X129082544Y-64147452D01*
X128967335Y-64061206D01*
X128967328Y-64061202D01*
X128832482Y-64010908D01*
X128832483Y-64010908D01*
X128772883Y-64004501D01*
X128772881Y-64004500D01*
X128772873Y-64004500D01*
X128772865Y-64004500D01*
X126139385Y-64004500D01*
X126128578Y-64004028D01*
X126075001Y-63999341D01*
X126074997Y-63999341D01*
X126021419Y-64004028D01*
X126010613Y-64004500D01*
X125177129Y-64004500D01*
X125177123Y-64004501D01*
X125117516Y-64010908D01*
X124982671Y-64061202D01*
X124982664Y-64061206D01*
X124867455Y-64147452D01*
X124867452Y-64147455D01*
X124781206Y-64262664D01*
X124781202Y-64262671D01*
X124730908Y-64397517D01*
X124725149Y-64451087D01*
X124724501Y-64457123D01*
X124724500Y-64457135D01*
X124724500Y-65290616D01*
X124724028Y-65301423D01*
X124719341Y-65354997D01*
X124719341Y-65355002D01*
X124724028Y-65408576D01*
X124724500Y-65419383D01*
X124724500Y-66252870D01*
X124724501Y-66252876D01*
X124730908Y-66312483D01*
X124781202Y-66447328D01*
X124781203Y-66447330D01*
X124858578Y-66550689D01*
X124882995Y-66616153D01*
X124868144Y-66684426D01*
X124858578Y-66699311D01*
X124781203Y-66802669D01*
X124781202Y-66802671D01*
X124730908Y-66937517D01*
X124724501Y-66997116D01*
X124724501Y-66997123D01*
X124724500Y-66997135D01*
X124724500Y-67830616D01*
X124724028Y-67841423D01*
X124719341Y-67894997D01*
X124719341Y-67895002D01*
X124724028Y-67948576D01*
X124724500Y-67959383D01*
X124724500Y-68792870D01*
X124724501Y-68792876D01*
X124730908Y-68852483D01*
X124781202Y-68987328D01*
X124781203Y-68987330D01*
X124858578Y-69090689D01*
X124882995Y-69156153D01*
X124868144Y-69224426D01*
X124858578Y-69239311D01*
X124781203Y-69342669D01*
X124781202Y-69342671D01*
X124730908Y-69477517D01*
X124724501Y-69537116D01*
X124724501Y-69537123D01*
X124724500Y-69537135D01*
X124724500Y-71332870D01*
X124724501Y-71332876D01*
X124730908Y-71392483D01*
X124781202Y-71527328D01*
X124781203Y-71527330D01*
X124858578Y-71630689D01*
X124882995Y-71696153D01*
X124868144Y-71764426D01*
X124858578Y-71779311D01*
X124781203Y-71882669D01*
X124781202Y-71882671D01*
X124730908Y-72017517D01*
X124724501Y-72077116D01*
X124724501Y-72077123D01*
X124724500Y-72077135D01*
X124724500Y-72910616D01*
X124724028Y-72921423D01*
X124719341Y-72974997D01*
X124719341Y-72975002D01*
X124724028Y-73028576D01*
X124724500Y-73039383D01*
X124724500Y-73872870D01*
X124724501Y-73872876D01*
X124730908Y-73932483D01*
X124781202Y-74067328D01*
X124781203Y-74067330D01*
X124858578Y-74170689D01*
X124882995Y-74236153D01*
X124868144Y-74304426D01*
X124858578Y-74319311D01*
X124781203Y-74422669D01*
X124781202Y-74422671D01*
X124730908Y-74557517D01*
X124724501Y-74617116D01*
X124724501Y-74617123D01*
X124724500Y-74617135D01*
X124724500Y-75450616D01*
X124724028Y-75461423D01*
X124719341Y-75514997D01*
X124719341Y-75515002D01*
X124724028Y-75568576D01*
X124724500Y-75579383D01*
X124724500Y-76412870D01*
X124724501Y-76412876D01*
X124730908Y-76472483D01*
X124781202Y-76607328D01*
X124781203Y-76607330D01*
X124858578Y-76710689D01*
X124882995Y-76776153D01*
X124868144Y-76844426D01*
X124858578Y-76859311D01*
X124781203Y-76962669D01*
X124781202Y-76962671D01*
X124730908Y-77097517D01*
X124724501Y-77157116D01*
X124724501Y-77157123D01*
X124724500Y-77157135D01*
X124724500Y-77990616D01*
X124724028Y-78001423D01*
X124719341Y-78054997D01*
X124719341Y-78055002D01*
X124724028Y-78108576D01*
X124724500Y-78119383D01*
X124724500Y-78952870D01*
X124724501Y-78952876D01*
X124730908Y-79012483D01*
X124781202Y-79147328D01*
X124781203Y-79147330D01*
X124858578Y-79250689D01*
X124882995Y-79316153D01*
X124868144Y-79384426D01*
X124858578Y-79399311D01*
X124781203Y-79502669D01*
X124781202Y-79502671D01*
X124730908Y-79637517D01*
X124724501Y-79697116D01*
X124724501Y-79697123D01*
X124724500Y-79697135D01*
X124724500Y-80530616D01*
X124724028Y-80541423D01*
X124719341Y-80594997D01*
X124719341Y-80595002D01*
X124724028Y-80648576D01*
X124724500Y-80659383D01*
X124724500Y-81492870D01*
X124724501Y-81492876D01*
X124730908Y-81552483D01*
X124781202Y-81687328D01*
X124781203Y-81687330D01*
X124858578Y-81790689D01*
X124882995Y-81856153D01*
X124868144Y-81924426D01*
X124858578Y-81939311D01*
X124781203Y-82042669D01*
X124781202Y-82042671D01*
X124730908Y-82177517D01*
X124724501Y-82237116D01*
X124724501Y-82237123D01*
X124724500Y-82237135D01*
X124724500Y-84032870D01*
X124724501Y-84032876D01*
X124730908Y-84092483D01*
X124781202Y-84227328D01*
X124781203Y-84227330D01*
X124858578Y-84330689D01*
X124882995Y-84396153D01*
X124868144Y-84464426D01*
X124858578Y-84479311D01*
X124781203Y-84582669D01*
X124781202Y-84582671D01*
X124730908Y-84717517D01*
X124724501Y-84777116D01*
X124724501Y-84777123D01*
X124724500Y-84777135D01*
X124724500Y-85610616D01*
X124724028Y-85621423D01*
X124719341Y-85674997D01*
X124719341Y-85675002D01*
X124724028Y-85728576D01*
X124724500Y-85739383D01*
X124724500Y-86572870D01*
X124724501Y-86572876D01*
X124730908Y-86632483D01*
X124781202Y-86767328D01*
X124781203Y-86767330D01*
X124858578Y-86870689D01*
X124882995Y-86936153D01*
X124868144Y-87004426D01*
X124858578Y-87019311D01*
X124781203Y-87122669D01*
X124781202Y-87122671D01*
X124730908Y-87257517D01*
X124724501Y-87317116D01*
X124724501Y-87317123D01*
X124724500Y-87317135D01*
X124724500Y-88150616D01*
X124724028Y-88161423D01*
X124719341Y-88214997D01*
X124719341Y-88215002D01*
X124724028Y-88268576D01*
X124724500Y-88279383D01*
X124724500Y-89112870D01*
X124724501Y-89112876D01*
X124730908Y-89172483D01*
X124781202Y-89307328D01*
X124781203Y-89307330D01*
X124858578Y-89410689D01*
X124882995Y-89476153D01*
X124868144Y-89544426D01*
X124858578Y-89559311D01*
X124781203Y-89662669D01*
X124781202Y-89662671D01*
X124730908Y-89797517D01*
X124724501Y-89857116D01*
X124724501Y-89857123D01*
X124724500Y-89857135D01*
X124724500Y-90690616D01*
X124724028Y-90701423D01*
X124719341Y-90754997D01*
X124719341Y-90755002D01*
X124724028Y-90808576D01*
X124724500Y-90819383D01*
X124724500Y-91652870D01*
X124724501Y-91652876D01*
X124730908Y-91712483D01*
X124781202Y-91847328D01*
X124781203Y-91847330D01*
X124858578Y-91950689D01*
X124882995Y-92016153D01*
X124868144Y-92084426D01*
X124858578Y-92099311D01*
X124781203Y-92202669D01*
X124781202Y-92202671D01*
X124730908Y-92337517D01*
X124724501Y-92397116D01*
X124724501Y-92397123D01*
X124724500Y-92397135D01*
X124724500Y-93230616D01*
X124724028Y-93241423D01*
X124719341Y-93294997D01*
X124719341Y-93295002D01*
X124724028Y-93348576D01*
X124724500Y-93359383D01*
X124724500Y-94192870D01*
X124724501Y-94192876D01*
X124730908Y-94252483D01*
X124781202Y-94387328D01*
X124781203Y-94387330D01*
X124858578Y-94490689D01*
X124882995Y-94556153D01*
X124868144Y-94624426D01*
X124858578Y-94639311D01*
X124781203Y-94742669D01*
X124781202Y-94742671D01*
X124730908Y-94877517D01*
X124724501Y-94937116D01*
X124724501Y-94937123D01*
X124724500Y-94937135D01*
X124724500Y-96732870D01*
X124724501Y-96732876D01*
X124730908Y-96792483D01*
X124781202Y-96927328D01*
X124781203Y-96927330D01*
X124858578Y-97030689D01*
X124882995Y-97096153D01*
X124868144Y-97164426D01*
X124858578Y-97179311D01*
X124781203Y-97282669D01*
X124781202Y-97282671D01*
X124730908Y-97417517D01*
X124724501Y-97477116D01*
X124724501Y-97477123D01*
X124724500Y-97477135D01*
X124724500Y-98310616D01*
X124724028Y-98321423D01*
X124719341Y-98374997D01*
X124719341Y-98375002D01*
X124724028Y-98428576D01*
X124724500Y-98439383D01*
X124724500Y-99272870D01*
X124724501Y-99272876D01*
X124730908Y-99332483D01*
X124781202Y-99467328D01*
X124781203Y-99467330D01*
X124858578Y-99570689D01*
X124882995Y-99636153D01*
X124868144Y-99704426D01*
X124858578Y-99719311D01*
X124781203Y-99822669D01*
X124781202Y-99822671D01*
X124730908Y-99957517D01*
X124724501Y-100017116D01*
X124724501Y-100017123D01*
X124724500Y-100017135D01*
X124724500Y-100850616D01*
X124724028Y-100861423D01*
X124719341Y-100914997D01*
X124719341Y-100915002D01*
X124724028Y-100968576D01*
X124724500Y-100979383D01*
X124724500Y-101812870D01*
X124724501Y-101812876D01*
X124730908Y-101872483D01*
X124781202Y-102007328D01*
X124781203Y-102007330D01*
X124858578Y-102110689D01*
X124882995Y-102176153D01*
X124868144Y-102244426D01*
X124858578Y-102259311D01*
X124781203Y-102362669D01*
X124781202Y-102362671D01*
X124730908Y-102497517D01*
X124724501Y-102557116D01*
X124724501Y-102557123D01*
X124724500Y-102557135D01*
X124724500Y-103390616D01*
X124724028Y-103401423D01*
X124719341Y-103454997D01*
X124719341Y-103455002D01*
X124724028Y-103508576D01*
X124724500Y-103519383D01*
X124724500Y-104352870D01*
X124724501Y-104352876D01*
X124730908Y-104412483D01*
X124781202Y-104547328D01*
X124781203Y-104547330D01*
X124858578Y-104650689D01*
X124882995Y-104716153D01*
X124868144Y-104784426D01*
X124858578Y-104799311D01*
X124781203Y-104902669D01*
X124781202Y-104902671D01*
X124730908Y-105037517D01*
X124724501Y-105097116D01*
X124724501Y-105097123D01*
X124724500Y-105097135D01*
X124724500Y-105930616D01*
X124724028Y-105941423D01*
X124719341Y-105994997D01*
X124719341Y-105995002D01*
X124724028Y-106048576D01*
X124724500Y-106059383D01*
X124724500Y-106892870D01*
X124724501Y-106892876D01*
X124730908Y-106952483D01*
X124781202Y-107087328D01*
X124781203Y-107087330D01*
X124858578Y-107190689D01*
X124882995Y-107256153D01*
X124868144Y-107324426D01*
X124858578Y-107339311D01*
X124781203Y-107442669D01*
X124781202Y-107442671D01*
X124730908Y-107577517D01*
X124724501Y-107637116D01*
X124724501Y-107637123D01*
X124724500Y-107637135D01*
X124724500Y-109432870D01*
X124724501Y-109432876D01*
X124730908Y-109492483D01*
X124781202Y-109627328D01*
X124781203Y-109627330D01*
X124858578Y-109730689D01*
X124882995Y-109796153D01*
X124868144Y-109864426D01*
X124858578Y-109879311D01*
X124781203Y-109982669D01*
X124781202Y-109982671D01*
X124730908Y-110117517D01*
X124724501Y-110177116D01*
X124724501Y-110177123D01*
X124724500Y-110177135D01*
X124724500Y-111010616D01*
X124724028Y-111021423D01*
X124719341Y-111074997D01*
X124719341Y-111075002D01*
X124724028Y-111128576D01*
X124724500Y-111139383D01*
X124724500Y-111972870D01*
X124724501Y-111972876D01*
X124730908Y-112032483D01*
X124781202Y-112167328D01*
X124781203Y-112167330D01*
X124858578Y-112270689D01*
X124882995Y-112336153D01*
X124868144Y-112404426D01*
X124858578Y-112419311D01*
X124781203Y-112522669D01*
X124781202Y-112522671D01*
X124730908Y-112657517D01*
X124724501Y-112717116D01*
X124724501Y-112717123D01*
X124724500Y-112717135D01*
X124724500Y-113550616D01*
X124724028Y-113561423D01*
X124719341Y-113614997D01*
X124719341Y-113615002D01*
X121075499Y-113615002D01*
X121075499Y-113449381D01*
X121075971Y-113438578D01*
X121080659Y-113385000D01*
X121080659Y-113384999D01*
X121075971Y-113331418D01*
X121075499Y-113320610D01*
X121075499Y-112487129D01*
X121075498Y-112487123D01*
X121075497Y-112487116D01*
X121069091Y-112427517D01*
X121066030Y-112419311D01*
X121018797Y-112292671D01*
X121018793Y-112292664D01*
X120932547Y-112177455D01*
X120932544Y-112177452D01*
X120817335Y-112091206D01*
X120817328Y-112091202D01*
X120682482Y-112040908D01*
X120682483Y-112040908D01*
X120622883Y-112034501D01*
X120622881Y-112034500D01*
X120622873Y-112034500D01*
X120622865Y-112034500D01*
X119789383Y-112034500D01*
X119778576Y-112034028D01*
X119725002Y-112029341D01*
X119724999Y-112029341D01*
X119689865Y-112032414D01*
X119671421Y-112034028D01*
X119660616Y-112034500D01*
X118827129Y-112034500D01*
X118827123Y-112034501D01*
X118767516Y-112040908D01*
X118632671Y-112091202D01*
X118632669Y-112091203D01*
X118529311Y-112168578D01*
X118463847Y-112192995D01*
X118395574Y-112178144D01*
X118380689Y-112168578D01*
X118277330Y-112091203D01*
X118277328Y-112091202D01*
X118142482Y-112040908D01*
X118142483Y-112040908D01*
X118082883Y-112034501D01*
X118082881Y-112034500D01*
X118082873Y-112034500D01*
X118082864Y-112034500D01*
X116287129Y-112034500D01*
X116287123Y-112034501D01*
X116227516Y-112040908D01*
X116092671Y-112091202D01*
X116092669Y-112091203D01*
X115989311Y-112168578D01*
X115923847Y-112192995D01*
X115855574Y-112178144D01*
X115840689Y-112168578D01*
X115737330Y-112091203D01*
X115737328Y-112091202D01*
X115602482Y-112040908D01*
X115602483Y-112040908D01*
X115542883Y-112034501D01*
X115542881Y-112034500D01*
X115542873Y-112034500D01*
X115542865Y-112034500D01*
X114709383Y-112034500D01*
X114698576Y-112034028D01*
X114645002Y-112029341D01*
X114644999Y-112029341D01*
X114609865Y-112032414D01*
X114591421Y-112034028D01*
X114580616Y-112034500D01*
X113747129Y-112034500D01*
X113747123Y-112034501D01*
X113687516Y-112040908D01*
X113552671Y-112091202D01*
X113552664Y-112091206D01*
X113437455Y-112177452D01*
X113437452Y-112177455D01*
X113351206Y-112292664D01*
X113351202Y-112292671D01*
X113300908Y-112427517D01*
X113294501Y-112487116D01*
X113294501Y-112487123D01*
X113294500Y-112487135D01*
X113294500Y-113320618D01*
X113294028Y-113331425D01*
X113289341Y-113384997D01*
X113289341Y-113385001D01*
X109645499Y-113385001D01*
X109645499Y-112717129D01*
X109645498Y-112717123D01*
X109645497Y-112717116D01*
X109639091Y-112657517D01*
X109588796Y-112522669D01*
X109511421Y-112419309D01*
X109487004Y-112353848D01*
X109501855Y-112285575D01*
X109511416Y-112270696D01*
X109588796Y-112167331D01*
X109639091Y-112032483D01*
X109645500Y-111972873D01*
X109645499Y-111139383D01*
X109645971Y-111128576D01*
X109650659Y-111075000D01*
X109650659Y-111074999D01*
X109645971Y-111021421D01*
X109645499Y-111010613D01*
X109645499Y-110177129D01*
X109645498Y-110177123D01*
X109645497Y-110177116D01*
X109639091Y-110117517D01*
X109597888Y-110007047D01*
X109588797Y-109982671D01*
X109588795Y-109982668D01*
X109573361Y-109962051D01*
X109511421Y-109879309D01*
X109487004Y-109813848D01*
X109501855Y-109745575D01*
X109511416Y-109730696D01*
X109588796Y-109627331D01*
X109639091Y-109492483D01*
X109645500Y-109432873D01*
X109645499Y-107637128D01*
X109639091Y-107577517D01*
X109629621Y-107552127D01*
X109588797Y-107442671D01*
X109588795Y-107442668D01*
X109566295Y-107412612D01*
X109511421Y-107339309D01*
X109487004Y-107273848D01*
X109501855Y-107205575D01*
X109511416Y-107190696D01*
X109588796Y-107087331D01*
X109639091Y-106952483D01*
X109645500Y-106892873D01*
X109645499Y-106059383D01*
X109645971Y-106048576D01*
X109650659Y-105995000D01*
X109650659Y-105994999D01*
X109645971Y-105941421D01*
X109645499Y-105930613D01*
X109645499Y-105097129D01*
X109645498Y-105097123D01*
X109645497Y-105097116D01*
X109639091Y-105037517D01*
X109588796Y-104902669D01*
X109511421Y-104799309D01*
X109487004Y-104733848D01*
X109501855Y-104665575D01*
X109511416Y-104650696D01*
X109588796Y-104547331D01*
X109639091Y-104412483D01*
X109645500Y-104352873D01*
X109645499Y-103519383D01*
X109645971Y-103508576D01*
X109650659Y-103455000D01*
X109650659Y-103454999D01*
X109645971Y-103401421D01*
X109645499Y-103390613D01*
X109645499Y-102557129D01*
X109645498Y-102557123D01*
X109645497Y-102557116D01*
X109639091Y-102497517D01*
X109588796Y-102362669D01*
X109511421Y-102259309D01*
X109487004Y-102193848D01*
X109501855Y-102125575D01*
X109511416Y-102110696D01*
X109588796Y-102007331D01*
X109639091Y-101872483D01*
X109645500Y-101812873D01*
X109645499Y-100979383D01*
X109645971Y-100968576D01*
X109650659Y-100915000D01*
X109650659Y-100914999D01*
X109645971Y-100861421D01*
X109645499Y-100850613D01*
X109645499Y-100017129D01*
X109645498Y-100017123D01*
X109645497Y-100017116D01*
X109639091Y-99957517D01*
X109588796Y-99822669D01*
X109511421Y-99719309D01*
X109487004Y-99653848D01*
X109501855Y-99585575D01*
X109511416Y-99570696D01*
X109588796Y-99467331D01*
X109639091Y-99332483D01*
X109645500Y-99272873D01*
X109645499Y-98439383D01*
X109645971Y-98428576D01*
X109650659Y-98375000D01*
X109650659Y-98374999D01*
X109645971Y-98321421D01*
X109645499Y-98310613D01*
X109645499Y-97477129D01*
X109645498Y-97477123D01*
X109645497Y-97477116D01*
X109639091Y-97417517D01*
X109595260Y-97300001D01*
X109588797Y-97282671D01*
X109588795Y-97282668D01*
X109511421Y-97179309D01*
X109487004Y-97113848D01*
X109501855Y-97045575D01*
X109511416Y-97030696D01*
X109588796Y-96927331D01*
X109639091Y-96792483D01*
X109645500Y-96732873D01*
X109645499Y-94937128D01*
X109639091Y-94877517D01*
X109588796Y-94742669D01*
X109511421Y-94639309D01*
X109487004Y-94573848D01*
X109501855Y-94505575D01*
X109511416Y-94490696D01*
X109588796Y-94387331D01*
X109639091Y-94252483D01*
X109645500Y-94192873D01*
X109645499Y-93359383D01*
X109645971Y-93348576D01*
X109650659Y-93295000D01*
X109650659Y-93294999D01*
X109645971Y-93241421D01*
X109645499Y-93230613D01*
X109645499Y-92397129D01*
X109645498Y-92397123D01*
X109645497Y-92397116D01*
X109639091Y-92337517D01*
X109588796Y-92202669D01*
X109511421Y-92099309D01*
X109487004Y-92033848D01*
X109501855Y-91965575D01*
X109511416Y-91950696D01*
X109588796Y-91847331D01*
X109639091Y-91712483D01*
X109645500Y-91652873D01*
X109645499Y-90819383D01*
X109645971Y-90808576D01*
X109650659Y-90755000D01*
X109650659Y-90754999D01*
X109645971Y-90701421D01*
X109645499Y-90690613D01*
X109645499Y-89857129D01*
X109645498Y-89857123D01*
X109645497Y-89857116D01*
X109639091Y-89797517D01*
X109595260Y-89680001D01*
X109588797Y-89662671D01*
X109588795Y-89662668D01*
X109511421Y-89559309D01*
X109487004Y-89493848D01*
X109501855Y-89425575D01*
X109511416Y-89410696D01*
X109588796Y-89307331D01*
X109639091Y-89172483D01*
X109645500Y-89112873D01*
X109645499Y-88279383D01*
X109645971Y-88268576D01*
X109650659Y-88215000D01*
X109650659Y-88214999D01*
X109645971Y-88161421D01*
X109645499Y-88150613D01*
X109645499Y-87317129D01*
X109645498Y-87317123D01*
X109645497Y-87317116D01*
X109639091Y-87257517D01*
X109588796Y-87122669D01*
X109511421Y-87019309D01*
X109487004Y-86953848D01*
X109501855Y-86885575D01*
X109511416Y-86870696D01*
X109588796Y-86767331D01*
X109639091Y-86632483D01*
X109645500Y-86572873D01*
X109645499Y-85739383D01*
X109645971Y-85728576D01*
X109650659Y-85675000D01*
X109650659Y-85674999D01*
X109645971Y-85621421D01*
X109645499Y-85610613D01*
X109645499Y-84777129D01*
X109645498Y-84777123D01*
X109645497Y-84777116D01*
X109639091Y-84717517D01*
X109588796Y-84582669D01*
X109511421Y-84479309D01*
X109487004Y-84413848D01*
X109501855Y-84345575D01*
X109511416Y-84330696D01*
X109588796Y-84227331D01*
X109639091Y-84092483D01*
X109645500Y-84032873D01*
X109645499Y-82237128D01*
X109639091Y-82177517D01*
X109588796Y-82042669D01*
X109511421Y-81939309D01*
X109487004Y-81873848D01*
X109501855Y-81805575D01*
X109511416Y-81790696D01*
X109588796Y-81687331D01*
X109639091Y-81552483D01*
X109645500Y-81492873D01*
X109645499Y-80659383D01*
X109645971Y-80648576D01*
X109650659Y-80595000D01*
X109650659Y-80594999D01*
X109645971Y-80541421D01*
X109645499Y-80530613D01*
X109645499Y-79697129D01*
X109645498Y-79697123D01*
X109645497Y-79697116D01*
X109639091Y-79637517D01*
X109588796Y-79502669D01*
X109511421Y-79399309D01*
X109487004Y-79333848D01*
X109501855Y-79265575D01*
X109511416Y-79250696D01*
X109588796Y-79147331D01*
X109639091Y-79012483D01*
X109645500Y-78952873D01*
X109645499Y-78119383D01*
X109645971Y-78108576D01*
X109650659Y-78055000D01*
X109650659Y-78054999D01*
X109645971Y-78001421D01*
X109645499Y-77990613D01*
X109645499Y-77157129D01*
X109645498Y-77157123D01*
X109645497Y-77157116D01*
X109639091Y-77097517D01*
X109611369Y-77023191D01*
X109588797Y-76962671D01*
X109588795Y-76962668D01*
X109551323Y-76912612D01*
X109511421Y-76859309D01*
X109487004Y-76793848D01*
X109501855Y-76725575D01*
X109511416Y-76710696D01*
X109588796Y-76607331D01*
X109639091Y-76472483D01*
X109645500Y-76412873D01*
X109645499Y-75579383D01*
X109645971Y-75568576D01*
X109650659Y-75515000D01*
X109650659Y-75514999D01*
X109645971Y-75461421D01*
X109645499Y-75450613D01*
X109645499Y-74617129D01*
X109645498Y-74617123D01*
X109645497Y-74617116D01*
X109639091Y-74557517D01*
X109588796Y-74422669D01*
X109511421Y-74319309D01*
X109487004Y-74253848D01*
X109501855Y-74185575D01*
X109511416Y-74170696D01*
X109588796Y-74067331D01*
X109639091Y-73932483D01*
X109645500Y-73872873D01*
X109645499Y-73039383D01*
X109645971Y-73028576D01*
X109650659Y-72975000D01*
X109650659Y-72974999D01*
X109645971Y-72921421D01*
X109645499Y-72910613D01*
X109645499Y-72077129D01*
X109645498Y-72077123D01*
X109645497Y-72077116D01*
X109639091Y-72017517D01*
X109588796Y-71882669D01*
X109511421Y-71779309D01*
X109487004Y-71713848D01*
X109501855Y-71645575D01*
X109511416Y-71630696D01*
X109588796Y-71527331D01*
X109639091Y-71392483D01*
X109645500Y-71332873D01*
X109645499Y-69537128D01*
X109639091Y-69477517D01*
X109638748Y-69476598D01*
X109588797Y-69342671D01*
X109588795Y-69342668D01*
X109564714Y-69310500D01*
X109511421Y-69239309D01*
X109487004Y-69173848D01*
X109501855Y-69105575D01*
X109511416Y-69090696D01*
X109588796Y-68987331D01*
X109639091Y-68852483D01*
X109645500Y-68792873D01*
X109645500Y-68515002D01*
X113504723Y-68515002D01*
X113523793Y-68732975D01*
X113523793Y-68732979D01*
X113580422Y-68944322D01*
X113580424Y-68944326D01*
X113580425Y-68944330D01*
X113600477Y-68987331D01*
X113672897Y-69142638D01*
X113688555Y-69165000D01*
X113798402Y-69321877D01*
X113953123Y-69476598D01*
X114132361Y-69602102D01*
X114330670Y-69694575D01*
X114542023Y-69751207D01*
X114724926Y-69767208D01*
X114759998Y-69770277D01*
X114760000Y-69770277D01*
X114760002Y-69770277D01*
X114788254Y-69767805D01*
X114977977Y-69751207D01*
X115189330Y-69694575D01*
X115387639Y-69602102D01*
X115566877Y-69476598D01*
X115721598Y-69321877D01*
X115847102Y-69142639D01*
X115939575Y-68944330D01*
X115996207Y-68732977D01*
X116015277Y-68515002D01*
X118354723Y-68515002D01*
X118373793Y-68732975D01*
X118373793Y-68732979D01*
X118430422Y-68944322D01*
X118430424Y-68944326D01*
X118430425Y-68944330D01*
X118450477Y-68987331D01*
X118522897Y-69142638D01*
X118538555Y-69165000D01*
X118648402Y-69321877D01*
X118803123Y-69476598D01*
X118982361Y-69602102D01*
X119180670Y-69694575D01*
X119392023Y-69751207D01*
X119574926Y-69767208D01*
X119609998Y-69770277D01*
X119610000Y-69770277D01*
X119610002Y-69770277D01*
X119638254Y-69767805D01*
X119827977Y-69751207D01*
X120039330Y-69694575D01*
X120237639Y-69602102D01*
X120416877Y-69476598D01*
X120571598Y-69321877D01*
X120697102Y-69142639D01*
X120789575Y-68944330D01*
X120846207Y-68732977D01*
X120865277Y-68515000D01*
X120846207Y-68297023D01*
X120789575Y-68085670D01*
X120697102Y-67887362D01*
X120697100Y-67887359D01*
X120697099Y-67887357D01*
X120571599Y-67708124D01*
X120535693Y-67672218D01*
X120416877Y-67553402D01*
X120237639Y-67427898D01*
X120237640Y-67427898D01*
X120237638Y-67427897D01*
X120113558Y-67370038D01*
X120039330Y-67335425D01*
X120039326Y-67335424D01*
X120039322Y-67335422D01*
X119827977Y-67278793D01*
X119610002Y-67259723D01*
X119609998Y-67259723D01*
X119464682Y-67272436D01*
X119392023Y-67278793D01*
X119392020Y-67278793D01*
X119180677Y-67335422D01*
X119180668Y-67335426D01*
X118982361Y-67427898D01*
X118982357Y-67427900D01*
X118803121Y-67553402D01*
X118648402Y-67708121D01*
X118522900Y-67887357D01*
X118522898Y-67887361D01*
X118430426Y-68085668D01*
X118430422Y-68085677D01*
X118373793Y-68297020D01*
X118373793Y-68297023D01*
X118370169Y-68338442D01*
X118354723Y-68514997D01*
X118354723Y-68515002D01*
X116015277Y-68515002D01*
X116015277Y-68515000D01*
X115996207Y-68297023D01*
X115939575Y-68085670D01*
X115847102Y-67887362D01*
X115847100Y-67887359D01*
X115847099Y-67887357D01*
X115721599Y-67708124D01*
X115685693Y-67672218D01*
X115566877Y-67553402D01*
X115387639Y-67427898D01*
X115387640Y-67427898D01*
X115387638Y-67427897D01*
X115263558Y-67370038D01*
X115189330Y-67335425D01*
X115189326Y-67335424D01*
X115189322Y-67335422D01*
X114977977Y-67278793D01*
X114760002Y-67259723D01*
X114759998Y-67259723D01*
X114614682Y-67272436D01*
X114542023Y-67278793D01*
X114542020Y-67278793D01*
X114330677Y-67335422D01*
X114330668Y-67335426D01*
X114132361Y-67427898D01*
X114132357Y-67427900D01*
X113953121Y-67553402D01*
X113798402Y-67708121D01*
X113672900Y-67887357D01*
X113672898Y-67887361D01*
X113580426Y-68085668D01*
X113580422Y-68085677D01*
X113523793Y-68297020D01*
X113523793Y-68297023D01*
X113520169Y-68338442D01*
X113504723Y-68514997D01*
X113504723Y-68515002D01*
X109645500Y-68515002D01*
X109645499Y-67959383D01*
X109645971Y-67948576D01*
X109650659Y-67895000D01*
X109650659Y-67894999D01*
X109645971Y-67841421D01*
X109645499Y-67830613D01*
X109645499Y-66997129D01*
X109645498Y-66997123D01*
X109645497Y-66997116D01*
X109639091Y-66937517D01*
X109588796Y-66802669D01*
X109511421Y-66699309D01*
X109487004Y-66633848D01*
X109501855Y-66565575D01*
X109511416Y-66550696D01*
X109588796Y-66447331D01*
X109639091Y-66312483D01*
X109645500Y-66252873D01*
X109645499Y-65485006D01*
X113054700Y-65485006D01*
X113073864Y-65716297D01*
X113073866Y-65716308D01*
X113130842Y-65941300D01*
X113224075Y-66153848D01*
X113351016Y-66348147D01*
X113351019Y-66348151D01*
X113351021Y-66348153D01*
X113508216Y-66518913D01*
X113508219Y-66518915D01*
X113508222Y-66518918D01*
X113691365Y-66661464D01*
X113691371Y-66661468D01*
X113691374Y-66661470D01*
X113895497Y-66771936D01*
X113985019Y-66802669D01*
X114115015Y-66847297D01*
X114115017Y-66847297D01*
X114115019Y-66847298D01*
X114343951Y-66885500D01*
X114343952Y-66885500D01*
X114576048Y-66885500D01*
X114576049Y-66885500D01*
X114804981Y-66847298D01*
X115024503Y-66771936D01*
X115228626Y-66661470D01*
X115411784Y-66518913D01*
X115568979Y-66348153D01*
X115695924Y-66153849D01*
X115789157Y-65941300D01*
X115846134Y-65716305D01*
X115865300Y-65485006D01*
X118504700Y-65485006D01*
X118523864Y-65716297D01*
X118523866Y-65716308D01*
X118580842Y-65941300D01*
X118674075Y-66153848D01*
X118801016Y-66348147D01*
X118801019Y-66348151D01*
X118801021Y-66348153D01*
X118958216Y-66518913D01*
X118958219Y-66518915D01*
X118958222Y-66518918D01*
X119141365Y-66661464D01*
X119141371Y-66661468D01*
X119141374Y-66661470D01*
X119345497Y-66771936D01*
X119435019Y-66802669D01*
X119565015Y-66847297D01*
X119565017Y-66847297D01*
X119565019Y-66847298D01*
X119793951Y-66885500D01*
X119793952Y-66885500D01*
X120026048Y-66885500D01*
X120026049Y-66885500D01*
X120254981Y-66847298D01*
X120474503Y-66771936D01*
X120678626Y-66661470D01*
X120861784Y-66518913D01*
X121018979Y-66348153D01*
X121145924Y-66153849D01*
X121239157Y-65941300D01*
X121296134Y-65716305D01*
X121315300Y-65485000D01*
X121315300Y-65484993D01*
X121296135Y-65253702D01*
X121296133Y-65253691D01*
X121239157Y-65028699D01*
X121145924Y-64816151D01*
X121018983Y-64621852D01*
X121018980Y-64621849D01*
X121018979Y-64621847D01*
X120861784Y-64451087D01*
X120861779Y-64451083D01*
X120861777Y-64451081D01*
X120678634Y-64308535D01*
X120678628Y-64308531D01*
X120474504Y-64198064D01*
X120474495Y-64198061D01*
X120254984Y-64122702D01*
X120083282Y-64094050D01*
X120026049Y-64084500D01*
X119793951Y-64084500D01*
X119748164Y-64092140D01*
X119565015Y-64122702D01*
X119345504Y-64198061D01*
X119345495Y-64198064D01*
X119141371Y-64308531D01*
X119141365Y-64308535D01*
X118958222Y-64451081D01*
X118958219Y-64451084D01*
X118958216Y-64451086D01*
X118958216Y-64451087D01*
X118899267Y-64515122D01*
X118801016Y-64621852D01*
X118674075Y-64816151D01*
X118580842Y-65028699D01*
X118523866Y-65253691D01*
X118523864Y-65253702D01*
X118504700Y-65484993D01*
X118504700Y-65485006D01*
X115865300Y-65485006D01*
X115865300Y-65485000D01*
X115865300Y-65484993D01*
X115846135Y-65253702D01*
X115846133Y-65253691D01*
X115789157Y-65028699D01*
X115695924Y-64816151D01*
X115568983Y-64621852D01*
X115568980Y-64621849D01*
X115568979Y-64621847D01*
X115411784Y-64451087D01*
X115411779Y-64451083D01*
X115411777Y-64451081D01*
X115228634Y-64308535D01*
X115228628Y-64308531D01*
X115024504Y-64198064D01*
X115024495Y-64198061D01*
X114804984Y-64122702D01*
X114633282Y-64094050D01*
X114576049Y-64084500D01*
X114343951Y-64084500D01*
X114298164Y-64092140D01*
X114115015Y-64122702D01*
X113895504Y-64198061D01*
X113895495Y-64198064D01*
X113691371Y-64308531D01*
X113691365Y-64308535D01*
X113508222Y-64451081D01*
X113508219Y-64451084D01*
X113508216Y-64451086D01*
X113508216Y-64451087D01*
X113449267Y-64515122D01*
X113351016Y-64621852D01*
X113224075Y-64816151D01*
X113130842Y-65028699D01*
X113073866Y-65253691D01*
X113073864Y-65253702D01*
X113054700Y-65484993D01*
X113054700Y-65485006D01*
X109645499Y-65485006D01*
X109645499Y-65419383D01*
X109645971Y-65408576D01*
X109650659Y-65355000D01*
X109650659Y-65354999D01*
X109645971Y-65301421D01*
X109645499Y-65290613D01*
X109645499Y-64457129D01*
X109645498Y-64457123D01*
X109645497Y-64457116D01*
X109639091Y-64397517D01*
X109605901Y-64308531D01*
X109588797Y-64262671D01*
X109588793Y-64262664D01*
X109502547Y-64147455D01*
X109502544Y-64147452D01*
X109387335Y-64061206D01*
X109387328Y-64061202D01*
X109252482Y-64010908D01*
X109252483Y-64010908D01*
X109192883Y-64004501D01*
X109192881Y-64004500D01*
X109192873Y-64004500D01*
X109192865Y-64004500D01*
X108359380Y-64004500D01*
X108348573Y-64004028D01*
X108322024Y-64001705D01*
X108295001Y-63999341D01*
X108294998Y-63999341D01*
X108241424Y-64004028D01*
X108230617Y-64004500D01*
X105597129Y-64004500D01*
X105597123Y-64004501D01*
X105537516Y-64010908D01*
X105402671Y-64061202D01*
X105402664Y-64061206D01*
X105287455Y-64147452D01*
X105287452Y-64147455D01*
X105201206Y-64262664D01*
X105201202Y-64262671D01*
X105150908Y-64397517D01*
X105145149Y-64451087D01*
X105144501Y-64457123D01*
X105144500Y-64457135D01*
X105144500Y-66252870D01*
X105144501Y-66252876D01*
X105150908Y-66312483D01*
X105201202Y-66447328D01*
X105201203Y-66447330D01*
X105278578Y-66550689D01*
X105302995Y-66616153D01*
X105288144Y-66684426D01*
X105278578Y-66699311D01*
X105201203Y-66802669D01*
X105201202Y-66802671D01*
X105150908Y-66937517D01*
X105144501Y-66997116D01*
X105144501Y-66997123D01*
X105144500Y-66997135D01*
X105144500Y-68792870D01*
X105144501Y-68792876D01*
X105150908Y-68852483D01*
X105201202Y-68987328D01*
X105201203Y-68987330D01*
X105278578Y-69090689D01*
X105302995Y-69156153D01*
X105288144Y-69224426D01*
X105278578Y-69239311D01*
X105201203Y-69342669D01*
X105201202Y-69342671D01*
X105150908Y-69477517D01*
X105144501Y-69537116D01*
X105144501Y-69537123D01*
X105144500Y-69537135D01*
X105144500Y-71332870D01*
X105144501Y-71332876D01*
X105150908Y-71392483D01*
X105201202Y-71527328D01*
X105201203Y-71527330D01*
X105278578Y-71630689D01*
X105302995Y-71696153D01*
X105288144Y-71764426D01*
X105278578Y-71779311D01*
X105201203Y-71882669D01*
X105201202Y-71882671D01*
X105150908Y-72017517D01*
X105144501Y-72077116D01*
X105144501Y-72077123D01*
X105144500Y-72077135D01*
X105144500Y-73872870D01*
X105144501Y-73872876D01*
X105150908Y-73932483D01*
X105201202Y-74067328D01*
X105201203Y-74067330D01*
X105278578Y-74170689D01*
X105302995Y-74236153D01*
X105288144Y-74304426D01*
X105278578Y-74319311D01*
X105201203Y-74422669D01*
X105201202Y-74422671D01*
X105150908Y-74557517D01*
X105144501Y-74617116D01*
X105144501Y-74617123D01*
X105144500Y-74617135D01*
X105144500Y-76412870D01*
X105144501Y-76412876D01*
X105150908Y-76472483D01*
X105201202Y-76607328D01*
X105201203Y-76607330D01*
X105278578Y-76710689D01*
X105302995Y-76776153D01*
X105288144Y-76844426D01*
X105278578Y-76859311D01*
X105201203Y-76962669D01*
X105201202Y-76962671D01*
X105150908Y-77097517D01*
X105144501Y-77157116D01*
X105144501Y-77157123D01*
X105144500Y-77157135D01*
X105144500Y-78952870D01*
X105144501Y-78952876D01*
X105150908Y-79012483D01*
X105201202Y-79147328D01*
X105201203Y-79147330D01*
X105278578Y-79250689D01*
X105302995Y-79316153D01*
X105288144Y-79384426D01*
X105278578Y-79399311D01*
X105201203Y-79502669D01*
X105201202Y-79502671D01*
X105150908Y-79637517D01*
X105144501Y-79697116D01*
X105144501Y-79697123D01*
X105144500Y-79697135D01*
X105144500Y-81492870D01*
X105144501Y-81492876D01*
X105150908Y-81552483D01*
X105201202Y-81687328D01*
X105201203Y-81687330D01*
X105278578Y-81790689D01*
X105302995Y-81856153D01*
X105288144Y-81924426D01*
X105278578Y-81939311D01*
X105201203Y-82042669D01*
X105201202Y-82042671D01*
X105150908Y-82177517D01*
X105144501Y-82237116D01*
X105144501Y-82237123D01*
X105144500Y-82237135D01*
X105144500Y-84032870D01*
X105144501Y-84032876D01*
X105150908Y-84092483D01*
X105201202Y-84227328D01*
X105201203Y-84227330D01*
X105278578Y-84330689D01*
X105302995Y-84396153D01*
X105288144Y-84464426D01*
X105278578Y-84479311D01*
X105201203Y-84582669D01*
X105201202Y-84582671D01*
X105150908Y-84717517D01*
X105144501Y-84777116D01*
X105144501Y-84777123D01*
X105144500Y-84777135D01*
X105144500Y-86572870D01*
X105144501Y-86572876D01*
X105150908Y-86632483D01*
X105201202Y-86767328D01*
X105201203Y-86767330D01*
X105278578Y-86870689D01*
X105302995Y-86936153D01*
X105288144Y-87004426D01*
X105278578Y-87019311D01*
X105201203Y-87122669D01*
X105201202Y-87122671D01*
X105150908Y-87257517D01*
X105144501Y-87317116D01*
X105144501Y-87317123D01*
X105144500Y-87317135D01*
X105144500Y-89112870D01*
X105144501Y-89112876D01*
X105150908Y-89172483D01*
X105201202Y-89307328D01*
X105201203Y-89307330D01*
X105278578Y-89410689D01*
X105302995Y-89476153D01*
X105288144Y-89544426D01*
X105278578Y-89559311D01*
X105201203Y-89662669D01*
X105201202Y-89662671D01*
X105150908Y-89797517D01*
X105144501Y-89857116D01*
X105144501Y-89857123D01*
X105144500Y-89857135D01*
X105144500Y-91652870D01*
X105144501Y-91652876D01*
X105150908Y-91712483D01*
X105201202Y-91847328D01*
X105201203Y-91847330D01*
X105278578Y-91950689D01*
X105302995Y-92016153D01*
X105288144Y-92084426D01*
X105278578Y-92099311D01*
X105201203Y-92202669D01*
X105201202Y-92202671D01*
X105150908Y-92337517D01*
X105144501Y-92397116D01*
X105144501Y-92397123D01*
X105144500Y-92397135D01*
X105144500Y-94192870D01*
X105144501Y-94192876D01*
X105150908Y-94252483D01*
X105201202Y-94387328D01*
X105201203Y-94387330D01*
X105278578Y-94490689D01*
X105302995Y-94556153D01*
X105288144Y-94624426D01*
X105278578Y-94639311D01*
X105201203Y-94742669D01*
X105201202Y-94742671D01*
X105150908Y-94877517D01*
X105144501Y-94937116D01*
X105144501Y-94937123D01*
X105144500Y-94937135D01*
X105144500Y-96732870D01*
X105144501Y-96732876D01*
X105150908Y-96792483D01*
X105201202Y-96927328D01*
X105201203Y-96927330D01*
X105278578Y-97030689D01*
X105302995Y-97096153D01*
X105288144Y-97164426D01*
X105278578Y-97179311D01*
X105201203Y-97282669D01*
X105201202Y-97282671D01*
X105150908Y-97417517D01*
X105144501Y-97477116D01*
X105144501Y-97477123D01*
X105144500Y-97477135D01*
X105144500Y-99272870D01*
X105144501Y-99272876D01*
X105150908Y-99332483D01*
X105201202Y-99467328D01*
X105201203Y-99467330D01*
X105278578Y-99570689D01*
X105302995Y-99636153D01*
X105288144Y-99704426D01*
X105278578Y-99719311D01*
X105201203Y-99822669D01*
X105201202Y-99822671D01*
X105150908Y-99957517D01*
X105144501Y-100017116D01*
X105144501Y-100017123D01*
X105144500Y-100017135D01*
X105144500Y-101812870D01*
X105144501Y-101812876D01*
X105150908Y-101872483D01*
X105201202Y-102007328D01*
X105201203Y-102007330D01*
X105278578Y-102110689D01*
X105302995Y-102176153D01*
X105288144Y-102244426D01*
X105278578Y-102259311D01*
X105201203Y-102362669D01*
X105201202Y-102362671D01*
X105150908Y-102497517D01*
X105144501Y-102557116D01*
X105144501Y-102557123D01*
X105144500Y-102557135D01*
X105144500Y-104352870D01*
X105144501Y-104352876D01*
X105150908Y-104412483D01*
X105201202Y-104547328D01*
X105201203Y-104547330D01*
X105278578Y-104650689D01*
X105302995Y-104716153D01*
X105288144Y-104784426D01*
X105278578Y-104799311D01*
X105201203Y-104902669D01*
X105201202Y-104902671D01*
X105150908Y-105037517D01*
X105144501Y-105097116D01*
X105144501Y-105097123D01*
X105144500Y-105097135D01*
X105144500Y-106892870D01*
X105144501Y-106892876D01*
X105150908Y-106952483D01*
X105201202Y-107087328D01*
X105201203Y-107087330D01*
X105278578Y-107190689D01*
X105302995Y-107256153D01*
X105288144Y-107324426D01*
X105278578Y-107339311D01*
X105201203Y-107442669D01*
X105201202Y-107442671D01*
X105150908Y-107577517D01*
X105144501Y-107637116D01*
X105144501Y-107637123D01*
X105144500Y-107637135D01*
X105144500Y-109432870D01*
X105144501Y-109432876D01*
X105150908Y-109492483D01*
X105201202Y-109627328D01*
X105201203Y-109627330D01*
X105278578Y-109730689D01*
X105302995Y-109796153D01*
X105288144Y-109864426D01*
X105278578Y-109879311D01*
X105201203Y-109982669D01*
X105201202Y-109982671D01*
X105150908Y-110117517D01*
X105144501Y-110177116D01*
X105144501Y-110177123D01*
X105144500Y-110177135D01*
X105144500Y-111972870D01*
X105144501Y-111972876D01*
X105150908Y-112032483D01*
X105201202Y-112167328D01*
X105201203Y-112167330D01*
X105278578Y-112270689D01*
X105302995Y-112336153D01*
X105288144Y-112404426D01*
X105278578Y-112419311D01*
X105201203Y-112522669D01*
X105201202Y-112522671D01*
X105150908Y-112657517D01*
X105144501Y-112717116D01*
X105144501Y-112717123D01*
X105144500Y-112717135D01*
X105144500Y-114512870D01*
X97000000Y-114512870D01*
X97000000Y-54624000D01*
X97019685Y-54556961D01*
X97072489Y-54511206D01*
X97124000Y-54500000D01*
X182376000Y-54500000D01*
X182443039Y-54519685D01*
G37*
%TD.AperFunction*%
M02*
