%TF.GenerationSoftware,KiCad,Pcbnew,8.0.1-8.0.1-1~ubuntu22.04.1*%
%TF.CreationDate,2024-03-31T23:59:49-03:00*%
%TF.ProjectId,PCB-ESP,5043422d-4553-4502-9e6b-696361645f70,rev?*%
%TF.SameCoordinates,Original*%
%TF.FileFunction,Legend,Top*%
%TF.FilePolarity,Positive*%
%FSLAX46Y46*%
G04 Gerber Fmt 4.6, Leading zero omitted, Abs format (unit mm)*
G04 Created by KiCad (PCBNEW 8.0.1-8.0.1-1~ubuntu22.04.1) date 2024-03-31 23:59:49*
%MOMM*%
%LPD*%
G01*
G04 APERTURE LIST*
%ADD10C,0.150000*%
%ADD11C,0.120000*%
G04 APERTURE END LIST*
D10*
X116423095Y-88939819D02*
X116423095Y-89749342D01*
X116423095Y-89749342D02*
X116470714Y-89844580D01*
X116470714Y-89844580D02*
X116518333Y-89892200D01*
X116518333Y-89892200D02*
X116613571Y-89939819D01*
X116613571Y-89939819D02*
X116804047Y-89939819D01*
X116804047Y-89939819D02*
X116899285Y-89892200D01*
X116899285Y-89892200D02*
X116946904Y-89844580D01*
X116946904Y-89844580D02*
X116994523Y-89749342D01*
X116994523Y-89749342D02*
X116994523Y-88939819D01*
X117994523Y-89939819D02*
X117423095Y-89939819D01*
X117708809Y-89939819D02*
X117708809Y-88939819D01*
X117708809Y-88939819D02*
X117613571Y-89082676D01*
X117613571Y-89082676D02*
X117518333Y-89177914D01*
X117518333Y-89177914D02*
X117423095Y-89225533D01*
X103028998Y-101305868D02*
X102948185Y-101332805D01*
X102948185Y-101332805D02*
X102867373Y-101413618D01*
X102867373Y-101413618D02*
X102813498Y-101521367D01*
X102813498Y-101521367D02*
X102813498Y-101629117D01*
X102813498Y-101629117D02*
X102840436Y-101709929D01*
X102840436Y-101709929D02*
X102921248Y-101844616D01*
X102921248Y-101844616D02*
X103002060Y-101925428D01*
X103002060Y-101925428D02*
X103136747Y-102006241D01*
X103136747Y-102006241D02*
X103217560Y-102033178D01*
X103217560Y-102033178D02*
X103325309Y-102033178D01*
X103325309Y-102033178D02*
X103433059Y-101979303D01*
X103433059Y-101979303D02*
X103486934Y-101925428D01*
X103486934Y-101925428D02*
X103540808Y-101817679D01*
X103540808Y-101817679D02*
X103540808Y-101763804D01*
X103540808Y-101763804D02*
X103352247Y-101575242D01*
X103352247Y-101575242D02*
X103244497Y-101682992D01*
X103837120Y-101575242D02*
X103271434Y-101009557D01*
X103271434Y-101009557D02*
X103486934Y-100794057D01*
X103486934Y-100794057D02*
X103567746Y-100767120D01*
X103567746Y-100767120D02*
X103621621Y-100767120D01*
X103621621Y-100767120D02*
X103702433Y-100794057D01*
X103702433Y-100794057D02*
X103783245Y-100874870D01*
X103783245Y-100874870D02*
X103810182Y-100955682D01*
X103810182Y-100955682D02*
X103810182Y-101009557D01*
X103810182Y-101009557D02*
X103783245Y-101090369D01*
X103783245Y-101090369D02*
X103567746Y-101305868D01*
X104699117Y-100713245D02*
X104375868Y-101036494D01*
X104537492Y-100874870D02*
X103971807Y-100309184D01*
X103971807Y-100309184D02*
X103998744Y-100443871D01*
X103998744Y-100443871D02*
X103998744Y-100551621D01*
X103998744Y-100551621D02*
X103971807Y-100632433D01*
X105237865Y-100174497D02*
X104914616Y-100497746D01*
X105076240Y-100336121D02*
X104510555Y-99770436D01*
X104510555Y-99770436D02*
X104537492Y-99905123D01*
X104537492Y-99905123D02*
X104537492Y-100012873D01*
X104537492Y-100012873D02*
X104510555Y-100093685D01*
X129336873Y-84226240D02*
X129606247Y-83956866D01*
X129444623Y-84441739D02*
X129067499Y-83687492D01*
X129067499Y-83687492D02*
X129821746Y-84064615D01*
X129767871Y-83040994D02*
X129687059Y-83067932D01*
X129687059Y-83067932D02*
X129606247Y-83148744D01*
X129606247Y-83148744D02*
X129552372Y-83256494D01*
X129552372Y-83256494D02*
X129552372Y-83364243D01*
X129552372Y-83364243D02*
X129579310Y-83445055D01*
X129579310Y-83445055D02*
X129660122Y-83579742D01*
X129660122Y-83579742D02*
X129740934Y-83660555D01*
X129740934Y-83660555D02*
X129875621Y-83741367D01*
X129875621Y-83741367D02*
X129956433Y-83768304D01*
X129956433Y-83768304D02*
X130064183Y-83768304D01*
X130064183Y-83768304D02*
X130171932Y-83714429D01*
X130171932Y-83714429D02*
X130225807Y-83660555D01*
X130225807Y-83660555D02*
X130279682Y-83552805D01*
X130279682Y-83552805D02*
X130279682Y-83498930D01*
X130279682Y-83498930D02*
X130091120Y-83310368D01*
X130091120Y-83310368D02*
X129983371Y-83418118D01*
X130575993Y-83310368D02*
X130010308Y-82744683D01*
X130010308Y-82744683D02*
X130899242Y-82987120D01*
X130899242Y-82987120D02*
X130333557Y-82421434D01*
X131168616Y-82717746D02*
X130602931Y-82152060D01*
X130602931Y-82152060D02*
X130737618Y-82017373D01*
X130737618Y-82017373D02*
X130845367Y-81963498D01*
X130845367Y-81963498D02*
X130953117Y-81963498D01*
X130953117Y-81963498D02*
X131033929Y-81990436D01*
X131033929Y-81990436D02*
X131168616Y-82071248D01*
X131168616Y-82071248D02*
X131249428Y-82152060D01*
X131249428Y-82152060D02*
X131330241Y-82286747D01*
X131330241Y-82286747D02*
X131357178Y-82367560D01*
X131357178Y-82367560D02*
X131357178Y-82475309D01*
X131357178Y-82475309D02*
X131303303Y-82583059D01*
X131303303Y-82583059D02*
X131168616Y-82717746D01*
X129271435Y-108683431D02*
X129190623Y-108710368D01*
X129190623Y-108710368D02*
X129109811Y-108791180D01*
X129109811Y-108791180D02*
X129055936Y-108898930D01*
X129055936Y-108898930D02*
X129055936Y-109006680D01*
X129055936Y-109006680D02*
X129082873Y-109087492D01*
X129082873Y-109087492D02*
X129163685Y-109222179D01*
X129163685Y-109222179D02*
X129244498Y-109302991D01*
X129244498Y-109302991D02*
X129379185Y-109383803D01*
X129379185Y-109383803D02*
X129459997Y-109410741D01*
X129459997Y-109410741D02*
X129567746Y-109410741D01*
X129567746Y-109410741D02*
X129675496Y-109356866D01*
X129675496Y-109356866D02*
X129729371Y-109302991D01*
X129729371Y-109302991D02*
X129783246Y-109195241D01*
X129783246Y-109195241D02*
X129783246Y-109141367D01*
X129783246Y-109141367D02*
X129594684Y-108952805D01*
X129594684Y-108952805D02*
X129486934Y-109060554D01*
X130079557Y-108952805D02*
X129513872Y-108387119D01*
X129513872Y-108387119D02*
X130402806Y-108629556D01*
X130402806Y-108629556D02*
X129837120Y-108063871D01*
X130672180Y-108360182D02*
X130106494Y-107794497D01*
X130106494Y-107794497D02*
X130241181Y-107659810D01*
X130241181Y-107659810D02*
X130348931Y-107605935D01*
X130348931Y-107605935D02*
X130456680Y-107605935D01*
X130456680Y-107605935D02*
X130537493Y-107632872D01*
X130537493Y-107632872D02*
X130672180Y-107713685D01*
X130672180Y-107713685D02*
X130752992Y-107794497D01*
X130752992Y-107794497D02*
X130833804Y-107929184D01*
X130833804Y-107929184D02*
X130860741Y-108009996D01*
X130860741Y-108009996D02*
X130860741Y-108117746D01*
X130860741Y-108117746D02*
X130806867Y-108225495D01*
X130806867Y-108225495D02*
X130672180Y-108360182D01*
X129138406Y-66012585D02*
X129892653Y-66389709D01*
X129892653Y-66389709D02*
X129515529Y-65635462D01*
X130162027Y-65527712D02*
X130269776Y-65473838D01*
X130269776Y-65473838D02*
X130323651Y-65473838D01*
X130323651Y-65473838D02*
X130404463Y-65500775D01*
X130404463Y-65500775D02*
X130485276Y-65581587D01*
X130485276Y-65581587D02*
X130512213Y-65662399D01*
X130512213Y-65662399D02*
X130512213Y-65716274D01*
X130512213Y-65716274D02*
X130485276Y-65797086D01*
X130485276Y-65797086D02*
X130269776Y-66012586D01*
X130269776Y-66012586D02*
X129704091Y-65446900D01*
X129704091Y-65446900D02*
X129892653Y-65258338D01*
X129892653Y-65258338D02*
X129973465Y-65231401D01*
X129973465Y-65231401D02*
X130027340Y-65231401D01*
X130027340Y-65231401D02*
X130108152Y-65258338D01*
X130108152Y-65258338D02*
X130162027Y-65312213D01*
X130162027Y-65312213D02*
X130188964Y-65393025D01*
X130188964Y-65393025D02*
X130188964Y-65446900D01*
X130188964Y-65446900D02*
X130162027Y-65527712D01*
X130162027Y-65527712D02*
X129973465Y-65716274D01*
X130269776Y-64881215D02*
X130727712Y-65339151D01*
X130727712Y-65339151D02*
X130808524Y-65366088D01*
X130808524Y-65366088D02*
X130862399Y-65366088D01*
X130862399Y-65366088D02*
X130943211Y-65339151D01*
X130943211Y-65339151D02*
X131050961Y-65231401D01*
X131050961Y-65231401D02*
X131077898Y-65150589D01*
X131077898Y-65150589D02*
X131077898Y-65096714D01*
X131077898Y-65096714D02*
X131050961Y-65015902D01*
X131050961Y-65015902D02*
X130593025Y-64557966D01*
X131374210Y-64854277D02*
X131481959Y-64800403D01*
X131481959Y-64800403D02*
X131616646Y-64665716D01*
X131616646Y-64665716D02*
X131643584Y-64584903D01*
X131643584Y-64584903D02*
X131643584Y-64531029D01*
X131643584Y-64531029D02*
X131616646Y-64450216D01*
X131616646Y-64450216D02*
X131562771Y-64396342D01*
X131562771Y-64396342D02*
X131481959Y-64369404D01*
X131481959Y-64369404D02*
X131428084Y-64369404D01*
X131428084Y-64369404D02*
X131347272Y-64396342D01*
X131347272Y-64396342D02*
X131212585Y-64477154D01*
X131212585Y-64477154D02*
X131131773Y-64504091D01*
X131131773Y-64504091D02*
X131077898Y-64504091D01*
X131077898Y-64504091D02*
X130997086Y-64477154D01*
X130997086Y-64477154D02*
X130943211Y-64423279D01*
X130943211Y-64423279D02*
X130916274Y-64342467D01*
X130916274Y-64342467D02*
X130916274Y-64288592D01*
X130916274Y-64288592D02*
X130943211Y-64207780D01*
X130943211Y-64207780D02*
X131077898Y-64073093D01*
X131077898Y-64073093D02*
X131185648Y-64019218D01*
X129271435Y-70583431D02*
X129190623Y-70610368D01*
X129190623Y-70610368D02*
X129109811Y-70691180D01*
X129109811Y-70691180D02*
X129055936Y-70798930D01*
X129055936Y-70798930D02*
X129055936Y-70906680D01*
X129055936Y-70906680D02*
X129082873Y-70987492D01*
X129082873Y-70987492D02*
X129163685Y-71122179D01*
X129163685Y-71122179D02*
X129244498Y-71202991D01*
X129244498Y-71202991D02*
X129379185Y-71283803D01*
X129379185Y-71283803D02*
X129459997Y-71310741D01*
X129459997Y-71310741D02*
X129567746Y-71310741D01*
X129567746Y-71310741D02*
X129675496Y-71256866D01*
X129675496Y-71256866D02*
X129729371Y-71202991D01*
X129729371Y-71202991D02*
X129783246Y-71095241D01*
X129783246Y-71095241D02*
X129783246Y-71041367D01*
X129783246Y-71041367D02*
X129594684Y-70852805D01*
X129594684Y-70852805D02*
X129486934Y-70960554D01*
X130079557Y-70852805D02*
X129513872Y-70287119D01*
X129513872Y-70287119D02*
X130402806Y-70529556D01*
X130402806Y-70529556D02*
X129837120Y-69963871D01*
X130672180Y-70260182D02*
X130106494Y-69694497D01*
X130106494Y-69694497D02*
X130241181Y-69559810D01*
X130241181Y-69559810D02*
X130348931Y-69505935D01*
X130348931Y-69505935D02*
X130456680Y-69505935D01*
X130456680Y-69505935D02*
X130537493Y-69532872D01*
X130537493Y-69532872D02*
X130672180Y-69613685D01*
X130672180Y-69613685D02*
X130752992Y-69694497D01*
X130752992Y-69694497D02*
X130833804Y-69829184D01*
X130833804Y-69829184D02*
X130860741Y-69909996D01*
X130860741Y-69909996D02*
X130860741Y-70017746D01*
X130860741Y-70017746D02*
X130806867Y-70125495D01*
X130806867Y-70125495D02*
X130672180Y-70260182D01*
X103174998Y-106385868D02*
X103094185Y-106412805D01*
X103094185Y-106412805D02*
X103013373Y-106493618D01*
X103013373Y-106493618D02*
X102959498Y-106601367D01*
X102959498Y-106601367D02*
X102959498Y-106709117D01*
X102959498Y-106709117D02*
X102986436Y-106789929D01*
X102986436Y-106789929D02*
X103067248Y-106924616D01*
X103067248Y-106924616D02*
X103148060Y-107005428D01*
X103148060Y-107005428D02*
X103282747Y-107086241D01*
X103282747Y-107086241D02*
X103363560Y-107113178D01*
X103363560Y-107113178D02*
X103471309Y-107113178D01*
X103471309Y-107113178D02*
X103579059Y-107059303D01*
X103579059Y-107059303D02*
X103632934Y-107005428D01*
X103632934Y-107005428D02*
X103686808Y-106897679D01*
X103686808Y-106897679D02*
X103686808Y-106843804D01*
X103686808Y-106843804D02*
X103498247Y-106655242D01*
X103498247Y-106655242D02*
X103390497Y-106762992D01*
X103983120Y-106655242D02*
X103417434Y-106089557D01*
X103417434Y-106089557D02*
X103632934Y-105874057D01*
X103632934Y-105874057D02*
X103713746Y-105847120D01*
X103713746Y-105847120D02*
X103767621Y-105847120D01*
X103767621Y-105847120D02*
X103848433Y-105874057D01*
X103848433Y-105874057D02*
X103929245Y-105954870D01*
X103929245Y-105954870D02*
X103956182Y-106035682D01*
X103956182Y-106035682D02*
X103956182Y-106089557D01*
X103956182Y-106089557D02*
X103929245Y-106170369D01*
X103929245Y-106170369D02*
X103713746Y-106385868D01*
X104845117Y-105793245D02*
X104521868Y-106116494D01*
X104683492Y-105954870D02*
X104117807Y-105389184D01*
X104117807Y-105389184D02*
X104144744Y-105523871D01*
X104144744Y-105523871D02*
X104144744Y-105631621D01*
X104144744Y-105631621D02*
X104117807Y-105712433D01*
X104467993Y-105038998D02*
X104818179Y-104688812D01*
X104818179Y-104688812D02*
X104845117Y-105092873D01*
X104845117Y-105092873D02*
X104925929Y-105012060D01*
X104925929Y-105012060D02*
X105006741Y-104985123D01*
X105006741Y-104985123D02*
X105060616Y-104985123D01*
X105060616Y-104985123D02*
X105141428Y-105012060D01*
X105141428Y-105012060D02*
X105276115Y-105146747D01*
X105276115Y-105146747D02*
X105303053Y-105227560D01*
X105303053Y-105227560D02*
X105303053Y-105281434D01*
X105303053Y-105281434D02*
X105276115Y-105362247D01*
X105276115Y-105362247D02*
X105114491Y-105523871D01*
X105114491Y-105523871D02*
X105033679Y-105550808D01*
X105033679Y-105550808D02*
X104979804Y-105550808D01*
X129340064Y-79019049D02*
X129609438Y-78749675D01*
X129447813Y-79234549D02*
X129070690Y-78480301D01*
X129070690Y-78480301D02*
X129824937Y-78857425D01*
X130013499Y-78668863D02*
X129447813Y-78103178D01*
X129447813Y-78103178D02*
X129582500Y-77968491D01*
X129582500Y-77968491D02*
X129690250Y-77914616D01*
X129690250Y-77914616D02*
X129797999Y-77914616D01*
X129797999Y-77914616D02*
X129878812Y-77941553D01*
X129878812Y-77941553D02*
X130013499Y-78022366D01*
X130013499Y-78022366D02*
X130094311Y-78103178D01*
X130094311Y-78103178D02*
X130175123Y-78237865D01*
X130175123Y-78237865D02*
X130202060Y-78318677D01*
X130202060Y-78318677D02*
X130202060Y-78426427D01*
X130202060Y-78426427D02*
X130148186Y-78534176D01*
X130148186Y-78534176D02*
X130013499Y-78668863D01*
X130848558Y-77726054D02*
X130848558Y-77779929D01*
X130848558Y-77779929D02*
X130794683Y-77887679D01*
X130794683Y-77887679D02*
X130740808Y-77941553D01*
X130740808Y-77941553D02*
X130633059Y-77995428D01*
X130633059Y-77995428D02*
X130525309Y-77995428D01*
X130525309Y-77995428D02*
X130444497Y-77968491D01*
X130444497Y-77968491D02*
X130309810Y-77887679D01*
X130309810Y-77887679D02*
X130228998Y-77806866D01*
X130228998Y-77806866D02*
X130148186Y-77672179D01*
X130148186Y-77672179D02*
X130121248Y-77591367D01*
X130121248Y-77591367D02*
X130121248Y-77483618D01*
X130121248Y-77483618D02*
X130175123Y-77375868D01*
X130175123Y-77375868D02*
X130228998Y-77321993D01*
X130228998Y-77321993D02*
X130336747Y-77268118D01*
X130336747Y-77268118D02*
X130390622Y-77268118D01*
X131064057Y-77726054D02*
X131495056Y-77295056D01*
X130929370Y-76621621D02*
X131683618Y-76998744D01*
X131683618Y-76998744D02*
X131306494Y-76244497D01*
X132383990Y-76298372D02*
X131926054Y-76217560D01*
X132060741Y-76621621D02*
X131495056Y-76055935D01*
X131495056Y-76055935D02*
X131710555Y-75840436D01*
X131710555Y-75840436D02*
X131791367Y-75813499D01*
X131791367Y-75813499D02*
X131845242Y-75813499D01*
X131845242Y-75813499D02*
X131926054Y-75840436D01*
X131926054Y-75840436D02*
X132006866Y-75921248D01*
X132006866Y-75921248D02*
X132033804Y-76002061D01*
X132033804Y-76002061D02*
X132033804Y-76055935D01*
X132033804Y-76055935D02*
X132006866Y-76136748D01*
X132006866Y-76136748D02*
X131791367Y-76352247D01*
X132330115Y-75759624D02*
X132518677Y-75571062D01*
X132895800Y-75786561D02*
X132626426Y-76055935D01*
X132626426Y-76055935D02*
X132060741Y-75490250D01*
X132060741Y-75490250D02*
X132330115Y-75220876D01*
X133030488Y-75059251D02*
X132841926Y-75247813D01*
X133138237Y-75544125D02*
X132572552Y-74978439D01*
X132572552Y-74978439D02*
X132841926Y-74709065D01*
X103698372Y-78176494D02*
X103617560Y-78203431D01*
X103617560Y-78203431D02*
X103536748Y-78284243D01*
X103536748Y-78284243D02*
X103482873Y-78391993D01*
X103482873Y-78391993D02*
X103482873Y-78499742D01*
X103482873Y-78499742D02*
X103509810Y-78580555D01*
X103509810Y-78580555D02*
X103590623Y-78715242D01*
X103590623Y-78715242D02*
X103671435Y-78796054D01*
X103671435Y-78796054D02*
X103806122Y-78876866D01*
X103806122Y-78876866D02*
X103886934Y-78903803D01*
X103886934Y-78903803D02*
X103994684Y-78903803D01*
X103994684Y-78903803D02*
X104102433Y-78849929D01*
X104102433Y-78849929D02*
X104156308Y-78796054D01*
X104156308Y-78796054D02*
X104210183Y-78688304D01*
X104210183Y-78688304D02*
X104210183Y-78634429D01*
X104210183Y-78634429D02*
X104021621Y-78445868D01*
X104021621Y-78445868D02*
X103913871Y-78553617D01*
X104506494Y-78445868D02*
X103940809Y-77880182D01*
X103940809Y-77880182D02*
X104156308Y-77664683D01*
X104156308Y-77664683D02*
X104237120Y-77637746D01*
X104237120Y-77637746D02*
X104290995Y-77637746D01*
X104290995Y-77637746D02*
X104371807Y-77664683D01*
X104371807Y-77664683D02*
X104452619Y-77745495D01*
X104452619Y-77745495D02*
X104479557Y-77826307D01*
X104479557Y-77826307D02*
X104479557Y-77880182D01*
X104479557Y-77880182D02*
X104452619Y-77960994D01*
X104452619Y-77960994D02*
X104237120Y-78176494D01*
X104937493Y-77260622D02*
X105314616Y-77637746D01*
X104587306Y-77179810D02*
X104856680Y-77718558D01*
X104856680Y-77718558D02*
X105206867Y-77368372D01*
X103798372Y-88306494D02*
X103717560Y-88333431D01*
X103717560Y-88333431D02*
X103636748Y-88414243D01*
X103636748Y-88414243D02*
X103582873Y-88521993D01*
X103582873Y-88521993D02*
X103582873Y-88629742D01*
X103582873Y-88629742D02*
X103609810Y-88710555D01*
X103609810Y-88710555D02*
X103690623Y-88845242D01*
X103690623Y-88845242D02*
X103771435Y-88926054D01*
X103771435Y-88926054D02*
X103906122Y-89006866D01*
X103906122Y-89006866D02*
X103986934Y-89033803D01*
X103986934Y-89033803D02*
X104094684Y-89033803D01*
X104094684Y-89033803D02*
X104202433Y-88979929D01*
X104202433Y-88979929D02*
X104256308Y-88926054D01*
X104256308Y-88926054D02*
X104310183Y-88818304D01*
X104310183Y-88818304D02*
X104310183Y-88764429D01*
X104310183Y-88764429D02*
X104121621Y-88575868D01*
X104121621Y-88575868D02*
X104013871Y-88683617D01*
X104606494Y-88575868D02*
X104040809Y-88010182D01*
X104040809Y-88010182D02*
X104256308Y-87794683D01*
X104256308Y-87794683D02*
X104337120Y-87767746D01*
X104337120Y-87767746D02*
X104390995Y-87767746D01*
X104390995Y-87767746D02*
X104471807Y-87794683D01*
X104471807Y-87794683D02*
X104552619Y-87875495D01*
X104552619Y-87875495D02*
X104579557Y-87956307D01*
X104579557Y-87956307D02*
X104579557Y-88010182D01*
X104579557Y-88010182D02*
X104552619Y-88090994D01*
X104552619Y-88090994D02*
X104337120Y-88306494D01*
X104552619Y-87498372D02*
X104929743Y-87121248D01*
X104929743Y-87121248D02*
X105252992Y-87929370D01*
X103174998Y-114005868D02*
X103094185Y-114032805D01*
X103094185Y-114032805D02*
X103013373Y-114113618D01*
X103013373Y-114113618D02*
X102959498Y-114221367D01*
X102959498Y-114221367D02*
X102959498Y-114329117D01*
X102959498Y-114329117D02*
X102986436Y-114409929D01*
X102986436Y-114409929D02*
X103067248Y-114544616D01*
X103067248Y-114544616D02*
X103148060Y-114625428D01*
X103148060Y-114625428D02*
X103282747Y-114706241D01*
X103282747Y-114706241D02*
X103363560Y-114733178D01*
X103363560Y-114733178D02*
X103471309Y-114733178D01*
X103471309Y-114733178D02*
X103579059Y-114679303D01*
X103579059Y-114679303D02*
X103632934Y-114625428D01*
X103632934Y-114625428D02*
X103686808Y-114517679D01*
X103686808Y-114517679D02*
X103686808Y-114463804D01*
X103686808Y-114463804D02*
X103498247Y-114275242D01*
X103498247Y-114275242D02*
X103390497Y-114382992D01*
X103983120Y-114275242D02*
X103417434Y-113709557D01*
X103417434Y-113709557D02*
X103632934Y-113494057D01*
X103632934Y-113494057D02*
X103713746Y-113467120D01*
X103713746Y-113467120D02*
X103767621Y-113467120D01*
X103767621Y-113467120D02*
X103848433Y-113494057D01*
X103848433Y-113494057D02*
X103929245Y-113574870D01*
X103929245Y-113574870D02*
X103956182Y-113655682D01*
X103956182Y-113655682D02*
X103956182Y-113709557D01*
X103956182Y-113709557D02*
X103929245Y-113790369D01*
X103929245Y-113790369D02*
X103713746Y-114005868D01*
X104845117Y-113413245D02*
X104521868Y-113736494D01*
X104683492Y-113574870D02*
X104117807Y-113009184D01*
X104117807Y-113009184D02*
X104144744Y-113143871D01*
X104144744Y-113143871D02*
X104144744Y-113251621D01*
X104144744Y-113251621D02*
X104117807Y-113332433D01*
X104791242Y-112335749D02*
X104521868Y-112605123D01*
X104521868Y-112605123D02*
X104764305Y-112901434D01*
X104764305Y-112901434D02*
X104764305Y-112847560D01*
X104764305Y-112847560D02*
X104791242Y-112766747D01*
X104791242Y-112766747D02*
X104925929Y-112632060D01*
X104925929Y-112632060D02*
X105006741Y-112605123D01*
X105006741Y-112605123D02*
X105060616Y-112605123D01*
X105060616Y-112605123D02*
X105141428Y-112632060D01*
X105141428Y-112632060D02*
X105276115Y-112766747D01*
X105276115Y-112766747D02*
X105303053Y-112847560D01*
X105303053Y-112847560D02*
X105303053Y-112901434D01*
X105303053Y-112901434D02*
X105276115Y-112982247D01*
X105276115Y-112982247D02*
X105141428Y-113116934D01*
X105141428Y-113116934D02*
X105060616Y-113143871D01*
X105060616Y-113143871D02*
X105006741Y-113143871D01*
X129282998Y-111465868D02*
X129202185Y-111492805D01*
X129202185Y-111492805D02*
X129121373Y-111573618D01*
X129121373Y-111573618D02*
X129067498Y-111681367D01*
X129067498Y-111681367D02*
X129067498Y-111789117D01*
X129067498Y-111789117D02*
X129094436Y-111869929D01*
X129094436Y-111869929D02*
X129175248Y-112004616D01*
X129175248Y-112004616D02*
X129256060Y-112085428D01*
X129256060Y-112085428D02*
X129390747Y-112166241D01*
X129390747Y-112166241D02*
X129471560Y-112193178D01*
X129471560Y-112193178D02*
X129579309Y-112193178D01*
X129579309Y-112193178D02*
X129687059Y-112139303D01*
X129687059Y-112139303D02*
X129740934Y-112085428D01*
X129740934Y-112085428D02*
X129794808Y-111977679D01*
X129794808Y-111977679D02*
X129794808Y-111923804D01*
X129794808Y-111923804D02*
X129606247Y-111735242D01*
X129606247Y-111735242D02*
X129498497Y-111842992D01*
X130091120Y-111735242D02*
X129525434Y-111169557D01*
X129525434Y-111169557D02*
X129740934Y-110954057D01*
X129740934Y-110954057D02*
X129821746Y-110927120D01*
X129821746Y-110927120D02*
X129875621Y-110927120D01*
X129875621Y-110927120D02*
X129956433Y-110954057D01*
X129956433Y-110954057D02*
X130037245Y-111034870D01*
X130037245Y-111034870D02*
X130064182Y-111115682D01*
X130064182Y-111115682D02*
X130064182Y-111169557D01*
X130064182Y-111169557D02*
X130037245Y-111250369D01*
X130037245Y-111250369D02*
X129821746Y-111465868D01*
X130953117Y-110873245D02*
X130629868Y-111196494D01*
X130791492Y-111034870D02*
X130225807Y-110469184D01*
X130225807Y-110469184D02*
X130252744Y-110603871D01*
X130252744Y-110603871D02*
X130252744Y-110711621D01*
X130252744Y-110711621D02*
X130225807Y-110792433D01*
X130575993Y-110118998D02*
X130953117Y-109741874D01*
X130953117Y-109741874D02*
X131276366Y-110549996D01*
X129282998Y-88605868D02*
X129202185Y-88632805D01*
X129202185Y-88632805D02*
X129121373Y-88713618D01*
X129121373Y-88713618D02*
X129067498Y-88821367D01*
X129067498Y-88821367D02*
X129067498Y-88929117D01*
X129067498Y-88929117D02*
X129094436Y-89009929D01*
X129094436Y-89009929D02*
X129175248Y-89144616D01*
X129175248Y-89144616D02*
X129256060Y-89225428D01*
X129256060Y-89225428D02*
X129390747Y-89306241D01*
X129390747Y-89306241D02*
X129471560Y-89333178D01*
X129471560Y-89333178D02*
X129579309Y-89333178D01*
X129579309Y-89333178D02*
X129687059Y-89279303D01*
X129687059Y-89279303D02*
X129740934Y-89225428D01*
X129740934Y-89225428D02*
X129794808Y-89117679D01*
X129794808Y-89117679D02*
X129794808Y-89063804D01*
X129794808Y-89063804D02*
X129606247Y-88875242D01*
X129606247Y-88875242D02*
X129498497Y-88982992D01*
X130091120Y-88875242D02*
X129525434Y-88309557D01*
X129525434Y-88309557D02*
X129740934Y-88094057D01*
X129740934Y-88094057D02*
X129821746Y-88067120D01*
X129821746Y-88067120D02*
X129875621Y-88067120D01*
X129875621Y-88067120D02*
X129956433Y-88094057D01*
X129956433Y-88094057D02*
X130037245Y-88174870D01*
X130037245Y-88174870D02*
X130064182Y-88255682D01*
X130064182Y-88255682D02*
X130064182Y-88309557D01*
X130064182Y-88309557D02*
X130037245Y-88390369D01*
X130037245Y-88390369D02*
X129821746Y-88605868D01*
X130118057Y-87824683D02*
X130118057Y-87770809D01*
X130118057Y-87770809D02*
X130144995Y-87689996D01*
X130144995Y-87689996D02*
X130279682Y-87555309D01*
X130279682Y-87555309D02*
X130360494Y-87528372D01*
X130360494Y-87528372D02*
X130414369Y-87528372D01*
X130414369Y-87528372D02*
X130495181Y-87555309D01*
X130495181Y-87555309D02*
X130549056Y-87609184D01*
X130549056Y-87609184D02*
X130602930Y-87716934D01*
X130602930Y-87716934D02*
X130602930Y-88363431D01*
X130602930Y-88363431D02*
X130953117Y-88013245D01*
X130872305Y-86962686D02*
X130764555Y-87070436D01*
X130764555Y-87070436D02*
X130737618Y-87151248D01*
X130737618Y-87151248D02*
X130737618Y-87205123D01*
X130737618Y-87205123D02*
X130764555Y-87339810D01*
X130764555Y-87339810D02*
X130845367Y-87474497D01*
X130845367Y-87474497D02*
X131060866Y-87689996D01*
X131060866Y-87689996D02*
X131141679Y-87716934D01*
X131141679Y-87716934D02*
X131195553Y-87716934D01*
X131195553Y-87716934D02*
X131276366Y-87689996D01*
X131276366Y-87689996D02*
X131384115Y-87582247D01*
X131384115Y-87582247D02*
X131411053Y-87501434D01*
X131411053Y-87501434D02*
X131411053Y-87447560D01*
X131411053Y-87447560D02*
X131384115Y-87366747D01*
X131384115Y-87366747D02*
X131249428Y-87232060D01*
X131249428Y-87232060D02*
X131168616Y-87205123D01*
X131168616Y-87205123D02*
X131114741Y-87205123D01*
X131114741Y-87205123D02*
X131033929Y-87232060D01*
X131033929Y-87232060D02*
X130926179Y-87339810D01*
X130926179Y-87339810D02*
X130899242Y-87420622D01*
X130899242Y-87420622D02*
X130899242Y-87474497D01*
X130899242Y-87474497D02*
X130926179Y-87555309D01*
X109675475Y-116009200D02*
X109789761Y-116047295D01*
X109789761Y-116047295D02*
X109980237Y-116047295D01*
X109980237Y-116047295D02*
X110056428Y-116009200D01*
X110056428Y-116009200D02*
X110094523Y-115971104D01*
X110094523Y-115971104D02*
X110132618Y-115894914D01*
X110132618Y-115894914D02*
X110132618Y-115818723D01*
X110132618Y-115818723D02*
X110094523Y-115742533D01*
X110094523Y-115742533D02*
X110056428Y-115704438D01*
X110056428Y-115704438D02*
X109980237Y-115666342D01*
X109980237Y-115666342D02*
X109827856Y-115628247D01*
X109827856Y-115628247D02*
X109751666Y-115590152D01*
X109751666Y-115590152D02*
X109713571Y-115552057D01*
X109713571Y-115552057D02*
X109675475Y-115475866D01*
X109675475Y-115475866D02*
X109675475Y-115399676D01*
X109675475Y-115399676D02*
X109713571Y-115323485D01*
X109713571Y-115323485D02*
X109751666Y-115285390D01*
X109751666Y-115285390D02*
X109827856Y-115247295D01*
X109827856Y-115247295D02*
X110018333Y-115247295D01*
X110018333Y-115247295D02*
X110132618Y-115285390D01*
X110399285Y-115247295D02*
X110589761Y-116047295D01*
X110589761Y-116047295D02*
X110742142Y-115475866D01*
X110742142Y-115475866D02*
X110894523Y-116047295D01*
X110894523Y-116047295D02*
X111085000Y-115247295D01*
X111846905Y-115971104D02*
X111808809Y-116009200D01*
X111808809Y-116009200D02*
X111694524Y-116047295D01*
X111694524Y-116047295D02*
X111618333Y-116047295D01*
X111618333Y-116047295D02*
X111504047Y-116009200D01*
X111504047Y-116009200D02*
X111427857Y-115933009D01*
X111427857Y-115933009D02*
X111389762Y-115856819D01*
X111389762Y-115856819D02*
X111351666Y-115704438D01*
X111351666Y-115704438D02*
X111351666Y-115590152D01*
X111351666Y-115590152D02*
X111389762Y-115437771D01*
X111389762Y-115437771D02*
X111427857Y-115361580D01*
X111427857Y-115361580D02*
X111504047Y-115285390D01*
X111504047Y-115285390D02*
X111618333Y-115247295D01*
X111618333Y-115247295D02*
X111694524Y-115247295D01*
X111694524Y-115247295D02*
X111808809Y-115285390D01*
X111808809Y-115285390D02*
X111846905Y-115323485D01*
X112570714Y-116047295D02*
X112189762Y-116047295D01*
X112189762Y-116047295D02*
X112189762Y-115247295D01*
X112837381Y-116047295D02*
X112837381Y-115247295D01*
X113294524Y-116047295D02*
X112951666Y-115590152D01*
X113294524Y-115247295D02*
X112837381Y-115704438D01*
X129107407Y-73443584D02*
X129457593Y-73093398D01*
X129457593Y-73093398D02*
X129484531Y-73497459D01*
X129484531Y-73497459D02*
X129565343Y-73416646D01*
X129565343Y-73416646D02*
X129646155Y-73389709D01*
X129646155Y-73389709D02*
X129700030Y-73389709D01*
X129700030Y-73389709D02*
X129780842Y-73416646D01*
X129780842Y-73416646D02*
X129915529Y-73551333D01*
X129915529Y-73551333D02*
X129942467Y-73632146D01*
X129942467Y-73632146D02*
X129942467Y-73686020D01*
X129942467Y-73686020D02*
X129915529Y-73766833D01*
X129915529Y-73766833D02*
X129753905Y-73928457D01*
X129753905Y-73928457D02*
X129673093Y-73955394D01*
X129673093Y-73955394D02*
X129619218Y-73955394D01*
X129619218Y-72931773D02*
X130373465Y-73308897D01*
X130373465Y-73308897D02*
X129996342Y-72554649D01*
X130131028Y-72419963D02*
X130481215Y-72069776D01*
X130481215Y-72069776D02*
X130508152Y-72473837D01*
X130508152Y-72473837D02*
X130588964Y-72393025D01*
X130588964Y-72393025D02*
X130669776Y-72366088D01*
X130669776Y-72366088D02*
X130723651Y-72366088D01*
X130723651Y-72366088D02*
X130804464Y-72393025D01*
X130804464Y-72393025D02*
X130939151Y-72527712D01*
X130939151Y-72527712D02*
X130966088Y-72608524D01*
X130966088Y-72608524D02*
X130966088Y-72662399D01*
X130966088Y-72662399D02*
X130939151Y-72743211D01*
X130939151Y-72743211D02*
X130777526Y-72904836D01*
X130777526Y-72904836D02*
X130696714Y-72931773D01*
X130696714Y-72931773D02*
X130642839Y-72931773D01*
X131208525Y-72581587D02*
X131639523Y-72150588D01*
X131424024Y-71665715D02*
X131612586Y-71477153D01*
X131989709Y-71692652D02*
X131720335Y-71962026D01*
X131720335Y-71962026D02*
X131154650Y-71396341D01*
X131154650Y-71396341D02*
X131424024Y-71126967D01*
X132232146Y-71450215D02*
X131666461Y-70884530D01*
X131666461Y-70884530D02*
X132555395Y-71126967D01*
X132555395Y-71126967D02*
X131989710Y-70561281D01*
X129075123Y-75975868D02*
X129425309Y-75625682D01*
X129425309Y-75625682D02*
X129452247Y-76029743D01*
X129452247Y-76029743D02*
X129533059Y-75948931D01*
X129533059Y-75948931D02*
X129613871Y-75921993D01*
X129613871Y-75921993D02*
X129667746Y-75921993D01*
X129667746Y-75921993D02*
X129748558Y-75948931D01*
X129748558Y-75948931D02*
X129883245Y-76083618D01*
X129883245Y-76083618D02*
X129910182Y-76164430D01*
X129910182Y-76164430D02*
X129910182Y-76218305D01*
X129910182Y-76218305D02*
X129883245Y-76299117D01*
X129883245Y-76299117D02*
X129721621Y-76460741D01*
X129721621Y-76460741D02*
X129640808Y-76487679D01*
X129640808Y-76487679D02*
X129586934Y-76487679D01*
X129586934Y-75464057D02*
X130341181Y-75841181D01*
X130341181Y-75841181D02*
X129964057Y-75086934D01*
X130098744Y-74952247D02*
X130448930Y-74602061D01*
X130448930Y-74602061D02*
X130475868Y-75006122D01*
X130475868Y-75006122D02*
X130556680Y-74925309D01*
X130556680Y-74925309D02*
X130637492Y-74898372D01*
X130637492Y-74898372D02*
X130691367Y-74898372D01*
X130691367Y-74898372D02*
X130772179Y-74925309D01*
X130772179Y-74925309D02*
X130906866Y-75059996D01*
X130906866Y-75059996D02*
X130933804Y-75140809D01*
X130933804Y-75140809D02*
X130933804Y-75194683D01*
X130933804Y-75194683D02*
X130906866Y-75275496D01*
X130906866Y-75275496D02*
X130745242Y-75437120D01*
X130745242Y-75437120D02*
X130664430Y-75464057D01*
X130664430Y-75464057D02*
X130610555Y-75464057D01*
X103698372Y-90876494D02*
X103617560Y-90903431D01*
X103617560Y-90903431D02*
X103536748Y-90984243D01*
X103536748Y-90984243D02*
X103482873Y-91091993D01*
X103482873Y-91091993D02*
X103482873Y-91199742D01*
X103482873Y-91199742D02*
X103509810Y-91280555D01*
X103509810Y-91280555D02*
X103590623Y-91415242D01*
X103590623Y-91415242D02*
X103671435Y-91496054D01*
X103671435Y-91496054D02*
X103806122Y-91576866D01*
X103806122Y-91576866D02*
X103886934Y-91603803D01*
X103886934Y-91603803D02*
X103994684Y-91603803D01*
X103994684Y-91603803D02*
X104102433Y-91549929D01*
X104102433Y-91549929D02*
X104156308Y-91496054D01*
X104156308Y-91496054D02*
X104210183Y-91388304D01*
X104210183Y-91388304D02*
X104210183Y-91334429D01*
X104210183Y-91334429D02*
X104021621Y-91145868D01*
X104021621Y-91145868D02*
X103913871Y-91253617D01*
X104506494Y-91145868D02*
X103940809Y-90580182D01*
X103940809Y-90580182D02*
X104156308Y-90364683D01*
X104156308Y-90364683D02*
X104237120Y-90337746D01*
X104237120Y-90337746D02*
X104290995Y-90337746D01*
X104290995Y-90337746D02*
X104371807Y-90364683D01*
X104371807Y-90364683D02*
X104452619Y-90445495D01*
X104452619Y-90445495D02*
X104479557Y-90526307D01*
X104479557Y-90526307D02*
X104479557Y-90580182D01*
X104479557Y-90580182D02*
X104452619Y-90660994D01*
X104452619Y-90660994D02*
X104237120Y-90876494D01*
X104829743Y-90176121D02*
X104748931Y-90203059D01*
X104748931Y-90203059D02*
X104695056Y-90203059D01*
X104695056Y-90203059D02*
X104614244Y-90176121D01*
X104614244Y-90176121D02*
X104587306Y-90149184D01*
X104587306Y-90149184D02*
X104560369Y-90068372D01*
X104560369Y-90068372D02*
X104560369Y-90014497D01*
X104560369Y-90014497D02*
X104587306Y-89933685D01*
X104587306Y-89933685D02*
X104695056Y-89825935D01*
X104695056Y-89825935D02*
X104775868Y-89798998D01*
X104775868Y-89798998D02*
X104829743Y-89798998D01*
X104829743Y-89798998D02*
X104910555Y-89825935D01*
X104910555Y-89825935D02*
X104937493Y-89852872D01*
X104937493Y-89852872D02*
X104964430Y-89933685D01*
X104964430Y-89933685D02*
X104964430Y-89987559D01*
X104964430Y-89987559D02*
X104937493Y-90068372D01*
X104937493Y-90068372D02*
X104829743Y-90176121D01*
X104829743Y-90176121D02*
X104802806Y-90256933D01*
X104802806Y-90256933D02*
X104802806Y-90310808D01*
X104802806Y-90310808D02*
X104829743Y-90391620D01*
X104829743Y-90391620D02*
X104937493Y-90499370D01*
X104937493Y-90499370D02*
X105018305Y-90526307D01*
X105018305Y-90526307D02*
X105072180Y-90526307D01*
X105072180Y-90526307D02*
X105152992Y-90499370D01*
X105152992Y-90499370D02*
X105260741Y-90391620D01*
X105260741Y-90391620D02*
X105287679Y-90310808D01*
X105287679Y-90310808D02*
X105287679Y-90256933D01*
X105287679Y-90256933D02*
X105260741Y-90176121D01*
X105260741Y-90176121D02*
X105152992Y-90068372D01*
X105152992Y-90068372D02*
X105072180Y-90041434D01*
X105072180Y-90041434D02*
X105018305Y-90041434D01*
X105018305Y-90041434D02*
X104937493Y-90068372D01*
X129282998Y-114005868D02*
X129202185Y-114032805D01*
X129202185Y-114032805D02*
X129121373Y-114113618D01*
X129121373Y-114113618D02*
X129067498Y-114221367D01*
X129067498Y-114221367D02*
X129067498Y-114329117D01*
X129067498Y-114329117D02*
X129094436Y-114409929D01*
X129094436Y-114409929D02*
X129175248Y-114544616D01*
X129175248Y-114544616D02*
X129256060Y-114625428D01*
X129256060Y-114625428D02*
X129390747Y-114706241D01*
X129390747Y-114706241D02*
X129471560Y-114733178D01*
X129471560Y-114733178D02*
X129579309Y-114733178D01*
X129579309Y-114733178D02*
X129687059Y-114679303D01*
X129687059Y-114679303D02*
X129740934Y-114625428D01*
X129740934Y-114625428D02*
X129794808Y-114517679D01*
X129794808Y-114517679D02*
X129794808Y-114463804D01*
X129794808Y-114463804D02*
X129606247Y-114275242D01*
X129606247Y-114275242D02*
X129498497Y-114382992D01*
X130091120Y-114275242D02*
X129525434Y-113709557D01*
X129525434Y-113709557D02*
X129740934Y-113494057D01*
X129740934Y-113494057D02*
X129821746Y-113467120D01*
X129821746Y-113467120D02*
X129875621Y-113467120D01*
X129875621Y-113467120D02*
X129956433Y-113494057D01*
X129956433Y-113494057D02*
X130037245Y-113574870D01*
X130037245Y-113574870D02*
X130064182Y-113655682D01*
X130064182Y-113655682D02*
X130064182Y-113709557D01*
X130064182Y-113709557D02*
X130037245Y-113790369D01*
X130037245Y-113790369D02*
X129821746Y-114005868D01*
X130953117Y-113413245D02*
X130629868Y-113736494D01*
X130791492Y-113574870D02*
X130225807Y-113009184D01*
X130225807Y-113009184D02*
X130252744Y-113143871D01*
X130252744Y-113143871D02*
X130252744Y-113251621D01*
X130252744Y-113251621D02*
X130225807Y-113332433D01*
X130872305Y-112362686D02*
X130764555Y-112470436D01*
X130764555Y-112470436D02*
X130737618Y-112551248D01*
X130737618Y-112551248D02*
X130737618Y-112605123D01*
X130737618Y-112605123D02*
X130764555Y-112739810D01*
X130764555Y-112739810D02*
X130845367Y-112874497D01*
X130845367Y-112874497D02*
X131060866Y-113089996D01*
X131060866Y-113089996D02*
X131141679Y-113116934D01*
X131141679Y-113116934D02*
X131195553Y-113116934D01*
X131195553Y-113116934D02*
X131276366Y-113089996D01*
X131276366Y-113089996D02*
X131384115Y-112982247D01*
X131384115Y-112982247D02*
X131411053Y-112901434D01*
X131411053Y-112901434D02*
X131411053Y-112847560D01*
X131411053Y-112847560D02*
X131384115Y-112766747D01*
X131384115Y-112766747D02*
X131249428Y-112632060D01*
X131249428Y-112632060D02*
X131168616Y-112605123D01*
X131168616Y-112605123D02*
X131114741Y-112605123D01*
X131114741Y-112605123D02*
X131033929Y-112632060D01*
X131033929Y-112632060D02*
X130926179Y-112739810D01*
X130926179Y-112739810D02*
X130899242Y-112820622D01*
X130899242Y-112820622D02*
X130899242Y-112874497D01*
X130899242Y-112874497D02*
X130926179Y-112955309D01*
X129271435Y-95983431D02*
X129190623Y-96010368D01*
X129190623Y-96010368D02*
X129109811Y-96091180D01*
X129109811Y-96091180D02*
X129055936Y-96198930D01*
X129055936Y-96198930D02*
X129055936Y-96306680D01*
X129055936Y-96306680D02*
X129082873Y-96387492D01*
X129082873Y-96387492D02*
X129163685Y-96522179D01*
X129163685Y-96522179D02*
X129244498Y-96602991D01*
X129244498Y-96602991D02*
X129379185Y-96683803D01*
X129379185Y-96683803D02*
X129459997Y-96710741D01*
X129459997Y-96710741D02*
X129567746Y-96710741D01*
X129567746Y-96710741D02*
X129675496Y-96656866D01*
X129675496Y-96656866D02*
X129729371Y-96602991D01*
X129729371Y-96602991D02*
X129783246Y-96495241D01*
X129783246Y-96495241D02*
X129783246Y-96441367D01*
X129783246Y-96441367D02*
X129594684Y-96252805D01*
X129594684Y-96252805D02*
X129486934Y-96360554D01*
X130079557Y-96252805D02*
X129513872Y-95687119D01*
X129513872Y-95687119D02*
X130402806Y-95929556D01*
X130402806Y-95929556D02*
X129837120Y-95363871D01*
X130672180Y-95660182D02*
X130106494Y-95094497D01*
X130106494Y-95094497D02*
X130241181Y-94959810D01*
X130241181Y-94959810D02*
X130348931Y-94905935D01*
X130348931Y-94905935D02*
X130456680Y-94905935D01*
X130456680Y-94905935D02*
X130537493Y-94932872D01*
X130537493Y-94932872D02*
X130672180Y-95013685D01*
X130672180Y-95013685D02*
X130752992Y-95094497D01*
X130752992Y-95094497D02*
X130833804Y-95229184D01*
X130833804Y-95229184D02*
X130860741Y-95309996D01*
X130860741Y-95309996D02*
X130860741Y-95417746D01*
X130860741Y-95417746D02*
X130806867Y-95525495D01*
X130806867Y-95525495D02*
X130672180Y-95660182D01*
X103671435Y-83283431D02*
X103590623Y-83310368D01*
X103590623Y-83310368D02*
X103509811Y-83391180D01*
X103509811Y-83391180D02*
X103455936Y-83498930D01*
X103455936Y-83498930D02*
X103455936Y-83606680D01*
X103455936Y-83606680D02*
X103482873Y-83687492D01*
X103482873Y-83687492D02*
X103563685Y-83822179D01*
X103563685Y-83822179D02*
X103644498Y-83902991D01*
X103644498Y-83902991D02*
X103779185Y-83983803D01*
X103779185Y-83983803D02*
X103859997Y-84010741D01*
X103859997Y-84010741D02*
X103967746Y-84010741D01*
X103967746Y-84010741D02*
X104075496Y-83956866D01*
X104075496Y-83956866D02*
X104129371Y-83902991D01*
X104129371Y-83902991D02*
X104183246Y-83795241D01*
X104183246Y-83795241D02*
X104183246Y-83741367D01*
X104183246Y-83741367D02*
X103994684Y-83552805D01*
X103994684Y-83552805D02*
X103886934Y-83660554D01*
X104479557Y-83552805D02*
X103913872Y-82987119D01*
X103913872Y-82987119D02*
X104802806Y-83229556D01*
X104802806Y-83229556D02*
X104237120Y-82663871D01*
X105072180Y-82960182D02*
X104506494Y-82394497D01*
X104506494Y-82394497D02*
X104641181Y-82259810D01*
X104641181Y-82259810D02*
X104748931Y-82205935D01*
X104748931Y-82205935D02*
X104856680Y-82205935D01*
X104856680Y-82205935D02*
X104937493Y-82232872D01*
X104937493Y-82232872D02*
X105072180Y-82313685D01*
X105072180Y-82313685D02*
X105152992Y-82394497D01*
X105152992Y-82394497D02*
X105233804Y-82529184D01*
X105233804Y-82529184D02*
X105260741Y-82609996D01*
X105260741Y-82609996D02*
X105260741Y-82717746D01*
X105260741Y-82717746D02*
X105206867Y-82825495D01*
X105206867Y-82825495D02*
X105072180Y-82960182D01*
X129282998Y-80731868D02*
X129202185Y-80758805D01*
X129202185Y-80758805D02*
X129121373Y-80839618D01*
X129121373Y-80839618D02*
X129067498Y-80947367D01*
X129067498Y-80947367D02*
X129067498Y-81055117D01*
X129067498Y-81055117D02*
X129094436Y-81135929D01*
X129094436Y-81135929D02*
X129175248Y-81270616D01*
X129175248Y-81270616D02*
X129256060Y-81351428D01*
X129256060Y-81351428D02*
X129390747Y-81432241D01*
X129390747Y-81432241D02*
X129471560Y-81459178D01*
X129471560Y-81459178D02*
X129579309Y-81459178D01*
X129579309Y-81459178D02*
X129687059Y-81405303D01*
X129687059Y-81405303D02*
X129740934Y-81351428D01*
X129740934Y-81351428D02*
X129794808Y-81243679D01*
X129794808Y-81243679D02*
X129794808Y-81189804D01*
X129794808Y-81189804D02*
X129606247Y-81001242D01*
X129606247Y-81001242D02*
X129498497Y-81108992D01*
X130091120Y-81001242D02*
X129525434Y-80435557D01*
X129525434Y-80435557D02*
X129740934Y-80220057D01*
X129740934Y-80220057D02*
X129821746Y-80193120D01*
X129821746Y-80193120D02*
X129875621Y-80193120D01*
X129875621Y-80193120D02*
X129956433Y-80220057D01*
X129956433Y-80220057D02*
X130037245Y-80300870D01*
X130037245Y-80300870D02*
X130064182Y-80381682D01*
X130064182Y-80381682D02*
X130064182Y-80435557D01*
X130064182Y-80435557D02*
X130037245Y-80516369D01*
X130037245Y-80516369D02*
X129821746Y-80731868D01*
X130118057Y-79950683D02*
X130118057Y-79896809D01*
X130118057Y-79896809D02*
X130144995Y-79815996D01*
X130144995Y-79815996D02*
X130279682Y-79681309D01*
X130279682Y-79681309D02*
X130360494Y-79654372D01*
X130360494Y-79654372D02*
X130414369Y-79654372D01*
X130414369Y-79654372D02*
X130495181Y-79681309D01*
X130495181Y-79681309D02*
X130549056Y-79735184D01*
X130549056Y-79735184D02*
X130602930Y-79842934D01*
X130602930Y-79842934D02*
X130602930Y-80489431D01*
X130602930Y-80489431D02*
X130953117Y-80139245D01*
X130953117Y-79492747D02*
X130872305Y-79519685D01*
X130872305Y-79519685D02*
X130818430Y-79519685D01*
X130818430Y-79519685D02*
X130737618Y-79492747D01*
X130737618Y-79492747D02*
X130710680Y-79465810D01*
X130710680Y-79465810D02*
X130683743Y-79384998D01*
X130683743Y-79384998D02*
X130683743Y-79331123D01*
X130683743Y-79331123D02*
X130710680Y-79250311D01*
X130710680Y-79250311D02*
X130818430Y-79142561D01*
X130818430Y-79142561D02*
X130899242Y-79115624D01*
X130899242Y-79115624D02*
X130953117Y-79115624D01*
X130953117Y-79115624D02*
X131033929Y-79142561D01*
X131033929Y-79142561D02*
X131060866Y-79169499D01*
X131060866Y-79169499D02*
X131087804Y-79250311D01*
X131087804Y-79250311D02*
X131087804Y-79304186D01*
X131087804Y-79304186D02*
X131060866Y-79384998D01*
X131060866Y-79384998D02*
X130953117Y-79492747D01*
X130953117Y-79492747D02*
X130926179Y-79573560D01*
X130926179Y-79573560D02*
X130926179Y-79627434D01*
X130926179Y-79627434D02*
X130953117Y-79708247D01*
X130953117Y-79708247D02*
X131060866Y-79815996D01*
X131060866Y-79815996D02*
X131141679Y-79842934D01*
X131141679Y-79842934D02*
X131195553Y-79842934D01*
X131195553Y-79842934D02*
X131276366Y-79815996D01*
X131276366Y-79815996D02*
X131384115Y-79708247D01*
X131384115Y-79708247D02*
X131411053Y-79627434D01*
X131411053Y-79627434D02*
X131411053Y-79573560D01*
X131411053Y-79573560D02*
X131384115Y-79492747D01*
X131384115Y-79492747D02*
X131276366Y-79384998D01*
X131276366Y-79384998D02*
X131195553Y-79358060D01*
X131195553Y-79358060D02*
X131141679Y-79358060D01*
X131141679Y-79358060D02*
X131060866Y-79384998D01*
X103698372Y-93416494D02*
X103617560Y-93443431D01*
X103617560Y-93443431D02*
X103536748Y-93524243D01*
X103536748Y-93524243D02*
X103482873Y-93631993D01*
X103482873Y-93631993D02*
X103482873Y-93739742D01*
X103482873Y-93739742D02*
X103509810Y-93820555D01*
X103509810Y-93820555D02*
X103590623Y-93955242D01*
X103590623Y-93955242D02*
X103671435Y-94036054D01*
X103671435Y-94036054D02*
X103806122Y-94116866D01*
X103806122Y-94116866D02*
X103886934Y-94143803D01*
X103886934Y-94143803D02*
X103994684Y-94143803D01*
X103994684Y-94143803D02*
X104102433Y-94089929D01*
X104102433Y-94089929D02*
X104156308Y-94036054D01*
X104156308Y-94036054D02*
X104210183Y-93928304D01*
X104210183Y-93928304D02*
X104210183Y-93874429D01*
X104210183Y-93874429D02*
X104021621Y-93685868D01*
X104021621Y-93685868D02*
X103913871Y-93793617D01*
X104506494Y-93685868D02*
X103940809Y-93120182D01*
X103940809Y-93120182D02*
X104156308Y-92904683D01*
X104156308Y-92904683D02*
X104237120Y-92877746D01*
X104237120Y-92877746D02*
X104290995Y-92877746D01*
X104290995Y-92877746D02*
X104371807Y-92904683D01*
X104371807Y-92904683D02*
X104452619Y-92985495D01*
X104452619Y-92985495D02*
X104479557Y-93066307D01*
X104479557Y-93066307D02*
X104479557Y-93120182D01*
X104479557Y-93120182D02*
X104452619Y-93200994D01*
X104452619Y-93200994D02*
X104237120Y-93416494D01*
X105099117Y-93093245D02*
X105206867Y-92985495D01*
X105206867Y-92985495D02*
X105233804Y-92904683D01*
X105233804Y-92904683D02*
X105233804Y-92850808D01*
X105233804Y-92850808D02*
X105206867Y-92716121D01*
X105206867Y-92716121D02*
X105126054Y-92581434D01*
X105126054Y-92581434D02*
X104910555Y-92365935D01*
X104910555Y-92365935D02*
X104829743Y-92338998D01*
X104829743Y-92338998D02*
X104775868Y-92338998D01*
X104775868Y-92338998D02*
X104695056Y-92365935D01*
X104695056Y-92365935D02*
X104587306Y-92473685D01*
X104587306Y-92473685D02*
X104560369Y-92554497D01*
X104560369Y-92554497D02*
X104560369Y-92608372D01*
X104560369Y-92608372D02*
X104587306Y-92689184D01*
X104587306Y-92689184D02*
X104721993Y-92823871D01*
X104721993Y-92823871D02*
X104802806Y-92850808D01*
X104802806Y-92850808D02*
X104856680Y-92850808D01*
X104856680Y-92850808D02*
X104937493Y-92823871D01*
X104937493Y-92823871D02*
X105045242Y-92716121D01*
X105045242Y-92716121D02*
X105072180Y-92635309D01*
X105072180Y-92635309D02*
X105072180Y-92581434D01*
X105072180Y-92581434D02*
X105045242Y-92500622D01*
X121089761Y-116009200D02*
X121204047Y-116047295D01*
X121204047Y-116047295D02*
X121394523Y-116047295D01*
X121394523Y-116047295D02*
X121470714Y-116009200D01*
X121470714Y-116009200D02*
X121508809Y-115971104D01*
X121508809Y-115971104D02*
X121546904Y-115894914D01*
X121546904Y-115894914D02*
X121546904Y-115818723D01*
X121546904Y-115818723D02*
X121508809Y-115742533D01*
X121508809Y-115742533D02*
X121470714Y-115704438D01*
X121470714Y-115704438D02*
X121394523Y-115666342D01*
X121394523Y-115666342D02*
X121242142Y-115628247D01*
X121242142Y-115628247D02*
X121165952Y-115590152D01*
X121165952Y-115590152D02*
X121127857Y-115552057D01*
X121127857Y-115552057D02*
X121089761Y-115475866D01*
X121089761Y-115475866D02*
X121089761Y-115399676D01*
X121089761Y-115399676D02*
X121127857Y-115323485D01*
X121127857Y-115323485D02*
X121165952Y-115285390D01*
X121165952Y-115285390D02*
X121242142Y-115247295D01*
X121242142Y-115247295D02*
X121432619Y-115247295D01*
X121432619Y-115247295D02*
X121546904Y-115285390D01*
X121813571Y-115247295D02*
X122004047Y-116047295D01*
X122004047Y-116047295D02*
X122156428Y-115475866D01*
X122156428Y-115475866D02*
X122308809Y-116047295D01*
X122308809Y-116047295D02*
X122499286Y-115247295D01*
X122804048Y-116047295D02*
X122804048Y-115247295D01*
X122804048Y-115247295D02*
X122994524Y-115247295D01*
X122994524Y-115247295D02*
X123108810Y-115285390D01*
X123108810Y-115285390D02*
X123185000Y-115361580D01*
X123185000Y-115361580D02*
X123223095Y-115437771D01*
X123223095Y-115437771D02*
X123261191Y-115590152D01*
X123261191Y-115590152D02*
X123261191Y-115704438D01*
X123261191Y-115704438D02*
X123223095Y-115856819D01*
X123223095Y-115856819D02*
X123185000Y-115933009D01*
X123185000Y-115933009D02*
X123108810Y-116009200D01*
X123108810Y-116009200D02*
X122994524Y-116047295D01*
X122994524Y-116047295D02*
X122804048Y-116047295D01*
X123604048Y-116047295D02*
X123604048Y-115247295D01*
X124137381Y-115247295D02*
X124289762Y-115247295D01*
X124289762Y-115247295D02*
X124365952Y-115285390D01*
X124365952Y-115285390D02*
X124442143Y-115361580D01*
X124442143Y-115361580D02*
X124480238Y-115513961D01*
X124480238Y-115513961D02*
X124480238Y-115780628D01*
X124480238Y-115780628D02*
X124442143Y-115933009D01*
X124442143Y-115933009D02*
X124365952Y-116009200D01*
X124365952Y-116009200D02*
X124289762Y-116047295D01*
X124289762Y-116047295D02*
X124137381Y-116047295D01*
X124137381Y-116047295D02*
X124061190Y-116009200D01*
X124061190Y-116009200D02*
X123985000Y-115933009D01*
X123985000Y-115933009D02*
X123946904Y-115780628D01*
X123946904Y-115780628D02*
X123946904Y-115513961D01*
X123946904Y-115513961D02*
X123985000Y-115361580D01*
X123985000Y-115361580D02*
X124061190Y-115285390D01*
X124061190Y-115285390D02*
X124137381Y-115247295D01*
X103698372Y-80716494D02*
X103617560Y-80743431D01*
X103617560Y-80743431D02*
X103536748Y-80824243D01*
X103536748Y-80824243D02*
X103482873Y-80931993D01*
X103482873Y-80931993D02*
X103482873Y-81039742D01*
X103482873Y-81039742D02*
X103509810Y-81120555D01*
X103509810Y-81120555D02*
X103590623Y-81255242D01*
X103590623Y-81255242D02*
X103671435Y-81336054D01*
X103671435Y-81336054D02*
X103806122Y-81416866D01*
X103806122Y-81416866D02*
X103886934Y-81443803D01*
X103886934Y-81443803D02*
X103994684Y-81443803D01*
X103994684Y-81443803D02*
X104102433Y-81389929D01*
X104102433Y-81389929D02*
X104156308Y-81336054D01*
X104156308Y-81336054D02*
X104210183Y-81228304D01*
X104210183Y-81228304D02*
X104210183Y-81174429D01*
X104210183Y-81174429D02*
X104021621Y-80985868D01*
X104021621Y-80985868D02*
X103913871Y-81093617D01*
X104506494Y-80985868D02*
X103940809Y-80420182D01*
X103940809Y-80420182D02*
X104156308Y-80204683D01*
X104156308Y-80204683D02*
X104237120Y-80177746D01*
X104237120Y-80177746D02*
X104290995Y-80177746D01*
X104290995Y-80177746D02*
X104371807Y-80204683D01*
X104371807Y-80204683D02*
X104452619Y-80285495D01*
X104452619Y-80285495D02*
X104479557Y-80366307D01*
X104479557Y-80366307D02*
X104479557Y-80420182D01*
X104479557Y-80420182D02*
X104452619Y-80500994D01*
X104452619Y-80500994D02*
X104237120Y-80716494D01*
X104775868Y-79585123D02*
X104506494Y-79854497D01*
X104506494Y-79854497D02*
X104748931Y-80150808D01*
X104748931Y-80150808D02*
X104748931Y-80096933D01*
X104748931Y-80096933D02*
X104775868Y-80016121D01*
X104775868Y-80016121D02*
X104910555Y-79881434D01*
X104910555Y-79881434D02*
X104991367Y-79854497D01*
X104991367Y-79854497D02*
X105045242Y-79854497D01*
X105045242Y-79854497D02*
X105126054Y-79881434D01*
X105126054Y-79881434D02*
X105260741Y-80016121D01*
X105260741Y-80016121D02*
X105287679Y-80096933D01*
X105287679Y-80096933D02*
X105287679Y-80150808D01*
X105287679Y-80150808D02*
X105260741Y-80231620D01*
X105260741Y-80231620D02*
X105126054Y-80366307D01*
X105126054Y-80366307D02*
X105045242Y-80393245D01*
X105045242Y-80393245D02*
X104991367Y-80393245D01*
X103698372Y-65476494D02*
X103617560Y-65503431D01*
X103617560Y-65503431D02*
X103536748Y-65584243D01*
X103536748Y-65584243D02*
X103482873Y-65691993D01*
X103482873Y-65691993D02*
X103482873Y-65799742D01*
X103482873Y-65799742D02*
X103509810Y-65880555D01*
X103509810Y-65880555D02*
X103590623Y-66015242D01*
X103590623Y-66015242D02*
X103671435Y-66096054D01*
X103671435Y-66096054D02*
X103806122Y-66176866D01*
X103806122Y-66176866D02*
X103886934Y-66203803D01*
X103886934Y-66203803D02*
X103994684Y-66203803D01*
X103994684Y-66203803D02*
X104102433Y-66149929D01*
X104102433Y-66149929D02*
X104156308Y-66096054D01*
X104156308Y-66096054D02*
X104210183Y-65988304D01*
X104210183Y-65988304D02*
X104210183Y-65934429D01*
X104210183Y-65934429D02*
X104021621Y-65745868D01*
X104021621Y-65745868D02*
X103913871Y-65853617D01*
X104506494Y-65745868D02*
X103940809Y-65180182D01*
X103940809Y-65180182D02*
X104156308Y-64964683D01*
X104156308Y-64964683D02*
X104237120Y-64937746D01*
X104237120Y-64937746D02*
X104290995Y-64937746D01*
X104290995Y-64937746D02*
X104371807Y-64964683D01*
X104371807Y-64964683D02*
X104452619Y-65045495D01*
X104452619Y-65045495D02*
X104479557Y-65126307D01*
X104479557Y-65126307D02*
X104479557Y-65180182D01*
X104479557Y-65180182D02*
X104452619Y-65260994D01*
X104452619Y-65260994D02*
X104237120Y-65476494D01*
X104614244Y-64506747D02*
X104668119Y-64452872D01*
X104668119Y-64452872D02*
X104748931Y-64425935D01*
X104748931Y-64425935D02*
X104802806Y-64425935D01*
X104802806Y-64425935D02*
X104883618Y-64452872D01*
X104883618Y-64452872D02*
X105018305Y-64533685D01*
X105018305Y-64533685D02*
X105152992Y-64668372D01*
X105152992Y-64668372D02*
X105233804Y-64803059D01*
X105233804Y-64803059D02*
X105260741Y-64883871D01*
X105260741Y-64883871D02*
X105260741Y-64937746D01*
X105260741Y-64937746D02*
X105233804Y-65018558D01*
X105233804Y-65018558D02*
X105179929Y-65072433D01*
X105179929Y-65072433D02*
X105099117Y-65099370D01*
X105099117Y-65099370D02*
X105045242Y-65099370D01*
X105045242Y-65099370D02*
X104964430Y-65072433D01*
X104964430Y-65072433D02*
X104829743Y-64991620D01*
X104829743Y-64991620D02*
X104695056Y-64856933D01*
X104695056Y-64856933D02*
X104614244Y-64722246D01*
X104614244Y-64722246D02*
X104587306Y-64641434D01*
X104587306Y-64641434D02*
X104587306Y-64587559D01*
X104587306Y-64587559D02*
X104614244Y-64506747D01*
X103698372Y-75636494D02*
X103617560Y-75663431D01*
X103617560Y-75663431D02*
X103536748Y-75744243D01*
X103536748Y-75744243D02*
X103482873Y-75851993D01*
X103482873Y-75851993D02*
X103482873Y-75959742D01*
X103482873Y-75959742D02*
X103509810Y-76040555D01*
X103509810Y-76040555D02*
X103590623Y-76175242D01*
X103590623Y-76175242D02*
X103671435Y-76256054D01*
X103671435Y-76256054D02*
X103806122Y-76336866D01*
X103806122Y-76336866D02*
X103886934Y-76363803D01*
X103886934Y-76363803D02*
X103994684Y-76363803D01*
X103994684Y-76363803D02*
X104102433Y-76309929D01*
X104102433Y-76309929D02*
X104156308Y-76256054D01*
X104156308Y-76256054D02*
X104210183Y-76148304D01*
X104210183Y-76148304D02*
X104210183Y-76094429D01*
X104210183Y-76094429D02*
X104021621Y-75905868D01*
X104021621Y-75905868D02*
X103913871Y-76013617D01*
X104506494Y-75905868D02*
X103940809Y-75340182D01*
X103940809Y-75340182D02*
X104156308Y-75124683D01*
X104156308Y-75124683D02*
X104237120Y-75097746D01*
X104237120Y-75097746D02*
X104290995Y-75097746D01*
X104290995Y-75097746D02*
X104371807Y-75124683D01*
X104371807Y-75124683D02*
X104452619Y-75205495D01*
X104452619Y-75205495D02*
X104479557Y-75286307D01*
X104479557Y-75286307D02*
X104479557Y-75340182D01*
X104479557Y-75340182D02*
X104452619Y-75420994D01*
X104452619Y-75420994D02*
X104237120Y-75636494D01*
X104452619Y-74828372D02*
X104802806Y-74478185D01*
X104802806Y-74478185D02*
X104829743Y-74882246D01*
X104829743Y-74882246D02*
X104910555Y-74801434D01*
X104910555Y-74801434D02*
X104991367Y-74774497D01*
X104991367Y-74774497D02*
X105045242Y-74774497D01*
X105045242Y-74774497D02*
X105126054Y-74801434D01*
X105126054Y-74801434D02*
X105260741Y-74936121D01*
X105260741Y-74936121D02*
X105287679Y-75016933D01*
X105287679Y-75016933D02*
X105287679Y-75070808D01*
X105287679Y-75070808D02*
X105260741Y-75151620D01*
X105260741Y-75151620D02*
X105099117Y-75313245D01*
X105099117Y-75313245D02*
X105018305Y-75340182D01*
X105018305Y-75340182D02*
X104964430Y-75340182D01*
X103671435Y-108683431D02*
X103590623Y-108710368D01*
X103590623Y-108710368D02*
X103509811Y-108791180D01*
X103509811Y-108791180D02*
X103455936Y-108898930D01*
X103455936Y-108898930D02*
X103455936Y-109006680D01*
X103455936Y-109006680D02*
X103482873Y-109087492D01*
X103482873Y-109087492D02*
X103563685Y-109222179D01*
X103563685Y-109222179D02*
X103644498Y-109302991D01*
X103644498Y-109302991D02*
X103779185Y-109383803D01*
X103779185Y-109383803D02*
X103859997Y-109410741D01*
X103859997Y-109410741D02*
X103967746Y-109410741D01*
X103967746Y-109410741D02*
X104075496Y-109356866D01*
X104075496Y-109356866D02*
X104129371Y-109302991D01*
X104129371Y-109302991D02*
X104183246Y-109195241D01*
X104183246Y-109195241D02*
X104183246Y-109141367D01*
X104183246Y-109141367D02*
X103994684Y-108952805D01*
X103994684Y-108952805D02*
X103886934Y-109060554D01*
X104479557Y-108952805D02*
X103913872Y-108387119D01*
X103913872Y-108387119D02*
X104802806Y-108629556D01*
X104802806Y-108629556D02*
X104237120Y-108063871D01*
X105072180Y-108360182D02*
X104506494Y-107794497D01*
X104506494Y-107794497D02*
X104641181Y-107659810D01*
X104641181Y-107659810D02*
X104748931Y-107605935D01*
X104748931Y-107605935D02*
X104856680Y-107605935D01*
X104856680Y-107605935D02*
X104937493Y-107632872D01*
X104937493Y-107632872D02*
X105072180Y-107713685D01*
X105072180Y-107713685D02*
X105152992Y-107794497D01*
X105152992Y-107794497D02*
X105233804Y-107929184D01*
X105233804Y-107929184D02*
X105260741Y-108009996D01*
X105260741Y-108009996D02*
X105260741Y-108117746D01*
X105260741Y-108117746D02*
X105206867Y-108225495D01*
X105206867Y-108225495D02*
X105072180Y-108360182D01*
X103671435Y-70583431D02*
X103590623Y-70610368D01*
X103590623Y-70610368D02*
X103509811Y-70691180D01*
X103509811Y-70691180D02*
X103455936Y-70798930D01*
X103455936Y-70798930D02*
X103455936Y-70906680D01*
X103455936Y-70906680D02*
X103482873Y-70987492D01*
X103482873Y-70987492D02*
X103563685Y-71122179D01*
X103563685Y-71122179D02*
X103644498Y-71202991D01*
X103644498Y-71202991D02*
X103779185Y-71283803D01*
X103779185Y-71283803D02*
X103859997Y-71310741D01*
X103859997Y-71310741D02*
X103967746Y-71310741D01*
X103967746Y-71310741D02*
X104075496Y-71256866D01*
X104075496Y-71256866D02*
X104129371Y-71202991D01*
X104129371Y-71202991D02*
X104183246Y-71095241D01*
X104183246Y-71095241D02*
X104183246Y-71041367D01*
X104183246Y-71041367D02*
X103994684Y-70852805D01*
X103994684Y-70852805D02*
X103886934Y-70960554D01*
X104479557Y-70852805D02*
X103913872Y-70287119D01*
X103913872Y-70287119D02*
X104802806Y-70529556D01*
X104802806Y-70529556D02*
X104237120Y-69963871D01*
X105072180Y-70260182D02*
X104506494Y-69694497D01*
X104506494Y-69694497D02*
X104641181Y-69559810D01*
X104641181Y-69559810D02*
X104748931Y-69505935D01*
X104748931Y-69505935D02*
X104856680Y-69505935D01*
X104856680Y-69505935D02*
X104937493Y-69532872D01*
X104937493Y-69532872D02*
X105072180Y-69613685D01*
X105072180Y-69613685D02*
X105152992Y-69694497D01*
X105152992Y-69694497D02*
X105233804Y-69829184D01*
X105233804Y-69829184D02*
X105260741Y-69909996D01*
X105260741Y-69909996D02*
X105260741Y-70017746D01*
X105260741Y-70017746D02*
X105206867Y-70125495D01*
X105206867Y-70125495D02*
X105072180Y-70260182D01*
X129282998Y-101305868D02*
X129202185Y-101332805D01*
X129202185Y-101332805D02*
X129121373Y-101413618D01*
X129121373Y-101413618D02*
X129067498Y-101521367D01*
X129067498Y-101521367D02*
X129067498Y-101629117D01*
X129067498Y-101629117D02*
X129094436Y-101709929D01*
X129094436Y-101709929D02*
X129175248Y-101844616D01*
X129175248Y-101844616D02*
X129256060Y-101925428D01*
X129256060Y-101925428D02*
X129390747Y-102006241D01*
X129390747Y-102006241D02*
X129471560Y-102033178D01*
X129471560Y-102033178D02*
X129579309Y-102033178D01*
X129579309Y-102033178D02*
X129687059Y-101979303D01*
X129687059Y-101979303D02*
X129740934Y-101925428D01*
X129740934Y-101925428D02*
X129794808Y-101817679D01*
X129794808Y-101817679D02*
X129794808Y-101763804D01*
X129794808Y-101763804D02*
X129606247Y-101575242D01*
X129606247Y-101575242D02*
X129498497Y-101682992D01*
X130091120Y-101575242D02*
X129525434Y-101009557D01*
X129525434Y-101009557D02*
X129740934Y-100794057D01*
X129740934Y-100794057D02*
X129821746Y-100767120D01*
X129821746Y-100767120D02*
X129875621Y-100767120D01*
X129875621Y-100767120D02*
X129956433Y-100794057D01*
X129956433Y-100794057D02*
X130037245Y-100874870D01*
X130037245Y-100874870D02*
X130064182Y-100955682D01*
X130064182Y-100955682D02*
X130064182Y-101009557D01*
X130064182Y-101009557D02*
X130037245Y-101090369D01*
X130037245Y-101090369D02*
X129821746Y-101305868D01*
X130118057Y-100524683D02*
X130118057Y-100470809D01*
X130118057Y-100470809D02*
X130144995Y-100389996D01*
X130144995Y-100389996D02*
X130279682Y-100255309D01*
X130279682Y-100255309D02*
X130360494Y-100228372D01*
X130360494Y-100228372D02*
X130414369Y-100228372D01*
X130414369Y-100228372D02*
X130495181Y-100255309D01*
X130495181Y-100255309D02*
X130549056Y-100309184D01*
X130549056Y-100309184D02*
X130602930Y-100416934D01*
X130602930Y-100416934D02*
X130602930Y-101063431D01*
X130602930Y-101063431D02*
X130953117Y-100713245D01*
X130737618Y-99797373D02*
X130791492Y-99743499D01*
X130791492Y-99743499D02*
X130872305Y-99716561D01*
X130872305Y-99716561D02*
X130926179Y-99716561D01*
X130926179Y-99716561D02*
X131006992Y-99743499D01*
X131006992Y-99743499D02*
X131141679Y-99824311D01*
X131141679Y-99824311D02*
X131276366Y-99958998D01*
X131276366Y-99958998D02*
X131357178Y-100093685D01*
X131357178Y-100093685D02*
X131384115Y-100174497D01*
X131384115Y-100174497D02*
X131384115Y-100228372D01*
X131384115Y-100228372D02*
X131357178Y-100309184D01*
X131357178Y-100309184D02*
X131303303Y-100363059D01*
X131303303Y-100363059D02*
X131222491Y-100389996D01*
X131222491Y-100389996D02*
X131168616Y-100389996D01*
X131168616Y-100389996D02*
X131087804Y-100363059D01*
X131087804Y-100363059D02*
X130953117Y-100282247D01*
X130953117Y-100282247D02*
X130818430Y-100147560D01*
X130818430Y-100147560D02*
X130737618Y-100012873D01*
X130737618Y-100012873D02*
X130710680Y-99932060D01*
X130710680Y-99932060D02*
X130710680Y-99878186D01*
X130710680Y-99878186D02*
X130737618Y-99797373D01*
X129282998Y-103845868D02*
X129202185Y-103872805D01*
X129202185Y-103872805D02*
X129121373Y-103953618D01*
X129121373Y-103953618D02*
X129067498Y-104061367D01*
X129067498Y-104061367D02*
X129067498Y-104169117D01*
X129067498Y-104169117D02*
X129094436Y-104249929D01*
X129094436Y-104249929D02*
X129175248Y-104384616D01*
X129175248Y-104384616D02*
X129256060Y-104465428D01*
X129256060Y-104465428D02*
X129390747Y-104546241D01*
X129390747Y-104546241D02*
X129471560Y-104573178D01*
X129471560Y-104573178D02*
X129579309Y-104573178D01*
X129579309Y-104573178D02*
X129687059Y-104519303D01*
X129687059Y-104519303D02*
X129740934Y-104465428D01*
X129740934Y-104465428D02*
X129794808Y-104357679D01*
X129794808Y-104357679D02*
X129794808Y-104303804D01*
X129794808Y-104303804D02*
X129606247Y-104115242D01*
X129606247Y-104115242D02*
X129498497Y-104222992D01*
X130091120Y-104115242D02*
X129525434Y-103549557D01*
X129525434Y-103549557D02*
X129740934Y-103334057D01*
X129740934Y-103334057D02*
X129821746Y-103307120D01*
X129821746Y-103307120D02*
X129875621Y-103307120D01*
X129875621Y-103307120D02*
X129956433Y-103334057D01*
X129956433Y-103334057D02*
X130037245Y-103414870D01*
X130037245Y-103414870D02*
X130064182Y-103495682D01*
X130064182Y-103495682D02*
X130064182Y-103549557D01*
X130064182Y-103549557D02*
X130037245Y-103630369D01*
X130037245Y-103630369D02*
X129821746Y-103845868D01*
X130953117Y-103253245D02*
X130629868Y-103576494D01*
X130791492Y-103414870D02*
X130225807Y-102849184D01*
X130225807Y-102849184D02*
X130252744Y-102983871D01*
X130252744Y-102983871D02*
X130252744Y-103091621D01*
X130252744Y-103091621D02*
X130225807Y-103172433D01*
X131222491Y-102983871D02*
X131330240Y-102876121D01*
X131330240Y-102876121D02*
X131357178Y-102795309D01*
X131357178Y-102795309D02*
X131357178Y-102741434D01*
X131357178Y-102741434D02*
X131330240Y-102606747D01*
X131330240Y-102606747D02*
X131249428Y-102472060D01*
X131249428Y-102472060D02*
X131033929Y-102256561D01*
X131033929Y-102256561D02*
X130953117Y-102229624D01*
X130953117Y-102229624D02*
X130899242Y-102229624D01*
X130899242Y-102229624D02*
X130818430Y-102256561D01*
X130818430Y-102256561D02*
X130710680Y-102364311D01*
X130710680Y-102364311D02*
X130683743Y-102445123D01*
X130683743Y-102445123D02*
X130683743Y-102498998D01*
X130683743Y-102498998D02*
X130710680Y-102579810D01*
X130710680Y-102579810D02*
X130845367Y-102714497D01*
X130845367Y-102714497D02*
X130926179Y-102741434D01*
X130926179Y-102741434D02*
X130980054Y-102741434D01*
X130980054Y-102741434D02*
X131060866Y-102714497D01*
X131060866Y-102714497D02*
X131168616Y-102606747D01*
X131168616Y-102606747D02*
X131195553Y-102525935D01*
X131195553Y-102525935D02*
X131195553Y-102472060D01*
X131195553Y-102472060D02*
X131168616Y-102391248D01*
X103598372Y-73096494D02*
X103517560Y-73123431D01*
X103517560Y-73123431D02*
X103436748Y-73204243D01*
X103436748Y-73204243D02*
X103382873Y-73311993D01*
X103382873Y-73311993D02*
X103382873Y-73419742D01*
X103382873Y-73419742D02*
X103409810Y-73500555D01*
X103409810Y-73500555D02*
X103490623Y-73635242D01*
X103490623Y-73635242D02*
X103571435Y-73716054D01*
X103571435Y-73716054D02*
X103706122Y-73796866D01*
X103706122Y-73796866D02*
X103786934Y-73823803D01*
X103786934Y-73823803D02*
X103894684Y-73823803D01*
X103894684Y-73823803D02*
X104002433Y-73769929D01*
X104002433Y-73769929D02*
X104056308Y-73716054D01*
X104056308Y-73716054D02*
X104110183Y-73608304D01*
X104110183Y-73608304D02*
X104110183Y-73554429D01*
X104110183Y-73554429D02*
X103921621Y-73365868D01*
X103921621Y-73365868D02*
X103813871Y-73473617D01*
X104406494Y-73365868D02*
X103840809Y-72800182D01*
X103840809Y-72800182D02*
X104056308Y-72584683D01*
X104056308Y-72584683D02*
X104137120Y-72557746D01*
X104137120Y-72557746D02*
X104190995Y-72557746D01*
X104190995Y-72557746D02*
X104271807Y-72584683D01*
X104271807Y-72584683D02*
X104352619Y-72665495D01*
X104352619Y-72665495D02*
X104379557Y-72746307D01*
X104379557Y-72746307D02*
X104379557Y-72800182D01*
X104379557Y-72800182D02*
X104352619Y-72880994D01*
X104352619Y-72880994D02*
X104137120Y-73096494D01*
X104433432Y-72315309D02*
X104433432Y-72261434D01*
X104433432Y-72261434D02*
X104460369Y-72180622D01*
X104460369Y-72180622D02*
X104595056Y-72045935D01*
X104595056Y-72045935D02*
X104675868Y-72018998D01*
X104675868Y-72018998D02*
X104729743Y-72018998D01*
X104729743Y-72018998D02*
X104810555Y-72045935D01*
X104810555Y-72045935D02*
X104864430Y-72099810D01*
X104864430Y-72099810D02*
X104918305Y-72207559D01*
X104918305Y-72207559D02*
X104918305Y-72854057D01*
X104918305Y-72854057D02*
X105268491Y-72503871D01*
X129282998Y-106385868D02*
X129202185Y-106412805D01*
X129202185Y-106412805D02*
X129121373Y-106493618D01*
X129121373Y-106493618D02*
X129067498Y-106601367D01*
X129067498Y-106601367D02*
X129067498Y-106709117D01*
X129067498Y-106709117D02*
X129094436Y-106789929D01*
X129094436Y-106789929D02*
X129175248Y-106924616D01*
X129175248Y-106924616D02*
X129256060Y-107005428D01*
X129256060Y-107005428D02*
X129390747Y-107086241D01*
X129390747Y-107086241D02*
X129471560Y-107113178D01*
X129471560Y-107113178D02*
X129579309Y-107113178D01*
X129579309Y-107113178D02*
X129687059Y-107059303D01*
X129687059Y-107059303D02*
X129740934Y-107005428D01*
X129740934Y-107005428D02*
X129794808Y-106897679D01*
X129794808Y-106897679D02*
X129794808Y-106843804D01*
X129794808Y-106843804D02*
X129606247Y-106655242D01*
X129606247Y-106655242D02*
X129498497Y-106762992D01*
X130091120Y-106655242D02*
X129525434Y-106089557D01*
X129525434Y-106089557D02*
X129740934Y-105874057D01*
X129740934Y-105874057D02*
X129821746Y-105847120D01*
X129821746Y-105847120D02*
X129875621Y-105847120D01*
X129875621Y-105847120D02*
X129956433Y-105874057D01*
X129956433Y-105874057D02*
X130037245Y-105954870D01*
X130037245Y-105954870D02*
X130064182Y-106035682D01*
X130064182Y-106035682D02*
X130064182Y-106089557D01*
X130064182Y-106089557D02*
X130037245Y-106170369D01*
X130037245Y-106170369D02*
X129821746Y-106385868D01*
X130953117Y-105793245D02*
X130629868Y-106116494D01*
X130791492Y-105954870D02*
X130225807Y-105389184D01*
X130225807Y-105389184D02*
X130252744Y-105523871D01*
X130252744Y-105523871D02*
X130252744Y-105631621D01*
X130252744Y-105631621D02*
X130225807Y-105712433D01*
X130953117Y-105146747D02*
X130872305Y-105173685D01*
X130872305Y-105173685D02*
X130818430Y-105173685D01*
X130818430Y-105173685D02*
X130737618Y-105146747D01*
X130737618Y-105146747D02*
X130710680Y-105119810D01*
X130710680Y-105119810D02*
X130683743Y-105038998D01*
X130683743Y-105038998D02*
X130683743Y-104985123D01*
X130683743Y-104985123D02*
X130710680Y-104904311D01*
X130710680Y-104904311D02*
X130818430Y-104796561D01*
X130818430Y-104796561D02*
X130899242Y-104769624D01*
X130899242Y-104769624D02*
X130953117Y-104769624D01*
X130953117Y-104769624D02*
X131033929Y-104796561D01*
X131033929Y-104796561D02*
X131060866Y-104823499D01*
X131060866Y-104823499D02*
X131087804Y-104904311D01*
X131087804Y-104904311D02*
X131087804Y-104958186D01*
X131087804Y-104958186D02*
X131060866Y-105038998D01*
X131060866Y-105038998D02*
X130953117Y-105146747D01*
X130953117Y-105146747D02*
X130926179Y-105227560D01*
X130926179Y-105227560D02*
X130926179Y-105281434D01*
X130926179Y-105281434D02*
X130953117Y-105362247D01*
X130953117Y-105362247D02*
X131060866Y-105469996D01*
X131060866Y-105469996D02*
X131141679Y-105496934D01*
X131141679Y-105496934D02*
X131195553Y-105496934D01*
X131195553Y-105496934D02*
X131276366Y-105469996D01*
X131276366Y-105469996D02*
X131384115Y-105362247D01*
X131384115Y-105362247D02*
X131411053Y-105281434D01*
X131411053Y-105281434D02*
X131411053Y-105227560D01*
X131411053Y-105227560D02*
X131384115Y-105146747D01*
X131384115Y-105146747D02*
X131276366Y-105038998D01*
X131276366Y-105038998D02*
X131195553Y-105012060D01*
X131195553Y-105012060D02*
X131141679Y-105012060D01*
X131141679Y-105012060D02*
X131060866Y-105038998D01*
X103698372Y-85796494D02*
X103617560Y-85823431D01*
X103617560Y-85823431D02*
X103536748Y-85904243D01*
X103536748Y-85904243D02*
X103482873Y-86011993D01*
X103482873Y-86011993D02*
X103482873Y-86119742D01*
X103482873Y-86119742D02*
X103509810Y-86200555D01*
X103509810Y-86200555D02*
X103590623Y-86335242D01*
X103590623Y-86335242D02*
X103671435Y-86416054D01*
X103671435Y-86416054D02*
X103806122Y-86496866D01*
X103806122Y-86496866D02*
X103886934Y-86523803D01*
X103886934Y-86523803D02*
X103994684Y-86523803D01*
X103994684Y-86523803D02*
X104102433Y-86469929D01*
X104102433Y-86469929D02*
X104156308Y-86416054D01*
X104156308Y-86416054D02*
X104210183Y-86308304D01*
X104210183Y-86308304D02*
X104210183Y-86254429D01*
X104210183Y-86254429D02*
X104021621Y-86065868D01*
X104021621Y-86065868D02*
X103913871Y-86173617D01*
X104506494Y-86065868D02*
X103940809Y-85500182D01*
X103940809Y-85500182D02*
X104156308Y-85284683D01*
X104156308Y-85284683D02*
X104237120Y-85257746D01*
X104237120Y-85257746D02*
X104290995Y-85257746D01*
X104290995Y-85257746D02*
X104371807Y-85284683D01*
X104371807Y-85284683D02*
X104452619Y-85365495D01*
X104452619Y-85365495D02*
X104479557Y-85446307D01*
X104479557Y-85446307D02*
X104479557Y-85500182D01*
X104479557Y-85500182D02*
X104452619Y-85580994D01*
X104452619Y-85580994D02*
X104237120Y-85796494D01*
X104748931Y-84692060D02*
X104641181Y-84799810D01*
X104641181Y-84799810D02*
X104614244Y-84880622D01*
X104614244Y-84880622D02*
X104614244Y-84934497D01*
X104614244Y-84934497D02*
X104641181Y-85069184D01*
X104641181Y-85069184D02*
X104721993Y-85203871D01*
X104721993Y-85203871D02*
X104937493Y-85419370D01*
X104937493Y-85419370D02*
X105018305Y-85446307D01*
X105018305Y-85446307D02*
X105072180Y-85446307D01*
X105072180Y-85446307D02*
X105152992Y-85419370D01*
X105152992Y-85419370D02*
X105260741Y-85311620D01*
X105260741Y-85311620D02*
X105287679Y-85230808D01*
X105287679Y-85230808D02*
X105287679Y-85176933D01*
X105287679Y-85176933D02*
X105260741Y-85096121D01*
X105260741Y-85096121D02*
X105126054Y-84961434D01*
X105126054Y-84961434D02*
X105045242Y-84934497D01*
X105045242Y-84934497D02*
X104991367Y-84934497D01*
X104991367Y-84934497D02*
X104910555Y-84961434D01*
X104910555Y-84961434D02*
X104802806Y-85069184D01*
X104802806Y-85069184D02*
X104775868Y-85149996D01*
X104775868Y-85149996D02*
X104775868Y-85203871D01*
X104775868Y-85203871D02*
X104802806Y-85284683D01*
X129282998Y-98775868D02*
X129202185Y-98802805D01*
X129202185Y-98802805D02*
X129121373Y-98883618D01*
X129121373Y-98883618D02*
X129067498Y-98991367D01*
X129067498Y-98991367D02*
X129067498Y-99099117D01*
X129067498Y-99099117D02*
X129094436Y-99179929D01*
X129094436Y-99179929D02*
X129175248Y-99314616D01*
X129175248Y-99314616D02*
X129256060Y-99395428D01*
X129256060Y-99395428D02*
X129390747Y-99476241D01*
X129390747Y-99476241D02*
X129471560Y-99503178D01*
X129471560Y-99503178D02*
X129579309Y-99503178D01*
X129579309Y-99503178D02*
X129687059Y-99449303D01*
X129687059Y-99449303D02*
X129740934Y-99395428D01*
X129740934Y-99395428D02*
X129794808Y-99287679D01*
X129794808Y-99287679D02*
X129794808Y-99233804D01*
X129794808Y-99233804D02*
X129606247Y-99045242D01*
X129606247Y-99045242D02*
X129498497Y-99152992D01*
X130091120Y-99045242D02*
X129525434Y-98479557D01*
X129525434Y-98479557D02*
X129740934Y-98264057D01*
X129740934Y-98264057D02*
X129821746Y-98237120D01*
X129821746Y-98237120D02*
X129875621Y-98237120D01*
X129875621Y-98237120D02*
X129956433Y-98264057D01*
X129956433Y-98264057D02*
X130037245Y-98344870D01*
X130037245Y-98344870D02*
X130064182Y-98425682D01*
X130064182Y-98425682D02*
X130064182Y-98479557D01*
X130064182Y-98479557D02*
X130037245Y-98560369D01*
X130037245Y-98560369D02*
X129821746Y-98775868D01*
X130118057Y-97994683D02*
X130118057Y-97940809D01*
X130118057Y-97940809D02*
X130144995Y-97859996D01*
X130144995Y-97859996D02*
X130279682Y-97725309D01*
X130279682Y-97725309D02*
X130360494Y-97698372D01*
X130360494Y-97698372D02*
X130414369Y-97698372D01*
X130414369Y-97698372D02*
X130495181Y-97725309D01*
X130495181Y-97725309D02*
X130549056Y-97779184D01*
X130549056Y-97779184D02*
X130602930Y-97886934D01*
X130602930Y-97886934D02*
X130602930Y-98533431D01*
X130602930Y-98533431D02*
X130953117Y-98183245D01*
X131491865Y-97644497D02*
X131168616Y-97967746D01*
X131330240Y-97806121D02*
X130764555Y-97240436D01*
X130764555Y-97240436D02*
X130791492Y-97375123D01*
X130791492Y-97375123D02*
X130791492Y-97482873D01*
X130791492Y-97482873D02*
X130764555Y-97563685D01*
X129282998Y-93685868D02*
X129202185Y-93712805D01*
X129202185Y-93712805D02*
X129121373Y-93793618D01*
X129121373Y-93793618D02*
X129067498Y-93901367D01*
X129067498Y-93901367D02*
X129067498Y-94009117D01*
X129067498Y-94009117D02*
X129094436Y-94089929D01*
X129094436Y-94089929D02*
X129175248Y-94224616D01*
X129175248Y-94224616D02*
X129256060Y-94305428D01*
X129256060Y-94305428D02*
X129390747Y-94386241D01*
X129390747Y-94386241D02*
X129471560Y-94413178D01*
X129471560Y-94413178D02*
X129579309Y-94413178D01*
X129579309Y-94413178D02*
X129687059Y-94359303D01*
X129687059Y-94359303D02*
X129740934Y-94305428D01*
X129740934Y-94305428D02*
X129794808Y-94197679D01*
X129794808Y-94197679D02*
X129794808Y-94143804D01*
X129794808Y-94143804D02*
X129606247Y-93955242D01*
X129606247Y-93955242D02*
X129498497Y-94062992D01*
X130091120Y-93955242D02*
X129525434Y-93389557D01*
X129525434Y-93389557D02*
X129740934Y-93174057D01*
X129740934Y-93174057D02*
X129821746Y-93147120D01*
X129821746Y-93147120D02*
X129875621Y-93147120D01*
X129875621Y-93147120D02*
X129956433Y-93174057D01*
X129956433Y-93174057D02*
X130037245Y-93254870D01*
X130037245Y-93254870D02*
X130064182Y-93335682D01*
X130064182Y-93335682D02*
X130064182Y-93389557D01*
X130064182Y-93389557D02*
X130037245Y-93470369D01*
X130037245Y-93470369D02*
X129821746Y-93685868D01*
X130118057Y-92904683D02*
X130118057Y-92850809D01*
X130118057Y-92850809D02*
X130144995Y-92769996D01*
X130144995Y-92769996D02*
X130279682Y-92635309D01*
X130279682Y-92635309D02*
X130360494Y-92608372D01*
X130360494Y-92608372D02*
X130414369Y-92608372D01*
X130414369Y-92608372D02*
X130495181Y-92635309D01*
X130495181Y-92635309D02*
X130549056Y-92689184D01*
X130549056Y-92689184D02*
X130602930Y-92796934D01*
X130602930Y-92796934D02*
X130602930Y-93443431D01*
X130602930Y-93443431D02*
X130953117Y-93093245D01*
X130656805Y-92365935D02*
X130656805Y-92312060D01*
X130656805Y-92312060D02*
X130683743Y-92231248D01*
X130683743Y-92231248D02*
X130818430Y-92096561D01*
X130818430Y-92096561D02*
X130899242Y-92069624D01*
X130899242Y-92069624D02*
X130953117Y-92069624D01*
X130953117Y-92069624D02*
X131033929Y-92096561D01*
X131033929Y-92096561D02*
X131087804Y-92150436D01*
X131087804Y-92150436D02*
X131141679Y-92258186D01*
X131141679Y-92258186D02*
X131141679Y-92904683D01*
X131141679Y-92904683D02*
X131491865Y-92554497D01*
X103671435Y-95983431D02*
X103590623Y-96010368D01*
X103590623Y-96010368D02*
X103509811Y-96091180D01*
X103509811Y-96091180D02*
X103455936Y-96198930D01*
X103455936Y-96198930D02*
X103455936Y-96306680D01*
X103455936Y-96306680D02*
X103482873Y-96387492D01*
X103482873Y-96387492D02*
X103563685Y-96522179D01*
X103563685Y-96522179D02*
X103644498Y-96602991D01*
X103644498Y-96602991D02*
X103779185Y-96683803D01*
X103779185Y-96683803D02*
X103859997Y-96710741D01*
X103859997Y-96710741D02*
X103967746Y-96710741D01*
X103967746Y-96710741D02*
X104075496Y-96656866D01*
X104075496Y-96656866D02*
X104129371Y-96602991D01*
X104129371Y-96602991D02*
X104183246Y-96495241D01*
X104183246Y-96495241D02*
X104183246Y-96441367D01*
X104183246Y-96441367D02*
X103994684Y-96252805D01*
X103994684Y-96252805D02*
X103886934Y-96360554D01*
X104479557Y-96252805D02*
X103913872Y-95687119D01*
X103913872Y-95687119D02*
X104802806Y-95929556D01*
X104802806Y-95929556D02*
X104237120Y-95363871D01*
X105072180Y-95660182D02*
X104506494Y-95094497D01*
X104506494Y-95094497D02*
X104641181Y-94959810D01*
X104641181Y-94959810D02*
X104748931Y-94905935D01*
X104748931Y-94905935D02*
X104856680Y-94905935D01*
X104856680Y-94905935D02*
X104937493Y-94932872D01*
X104937493Y-94932872D02*
X105072180Y-95013685D01*
X105072180Y-95013685D02*
X105152992Y-95094497D01*
X105152992Y-95094497D02*
X105233804Y-95229184D01*
X105233804Y-95229184D02*
X105260741Y-95309996D01*
X105260741Y-95309996D02*
X105260741Y-95417746D01*
X105260741Y-95417746D02*
X105206867Y-95525495D01*
X105206867Y-95525495D02*
X105072180Y-95660182D01*
X103128998Y-111465868D02*
X103048185Y-111492805D01*
X103048185Y-111492805D02*
X102967373Y-111573618D01*
X102967373Y-111573618D02*
X102913498Y-111681367D01*
X102913498Y-111681367D02*
X102913498Y-111789117D01*
X102913498Y-111789117D02*
X102940436Y-111869929D01*
X102940436Y-111869929D02*
X103021248Y-112004616D01*
X103021248Y-112004616D02*
X103102060Y-112085428D01*
X103102060Y-112085428D02*
X103236747Y-112166241D01*
X103236747Y-112166241D02*
X103317560Y-112193178D01*
X103317560Y-112193178D02*
X103425309Y-112193178D01*
X103425309Y-112193178D02*
X103533059Y-112139303D01*
X103533059Y-112139303D02*
X103586934Y-112085428D01*
X103586934Y-112085428D02*
X103640808Y-111977679D01*
X103640808Y-111977679D02*
X103640808Y-111923804D01*
X103640808Y-111923804D02*
X103452247Y-111735242D01*
X103452247Y-111735242D02*
X103344497Y-111842992D01*
X103937120Y-111735242D02*
X103371434Y-111169557D01*
X103371434Y-111169557D02*
X103586934Y-110954057D01*
X103586934Y-110954057D02*
X103667746Y-110927120D01*
X103667746Y-110927120D02*
X103721621Y-110927120D01*
X103721621Y-110927120D02*
X103802433Y-110954057D01*
X103802433Y-110954057D02*
X103883245Y-111034870D01*
X103883245Y-111034870D02*
X103910182Y-111115682D01*
X103910182Y-111115682D02*
X103910182Y-111169557D01*
X103910182Y-111169557D02*
X103883245Y-111250369D01*
X103883245Y-111250369D02*
X103667746Y-111465868D01*
X104799117Y-110873245D02*
X104475868Y-111196494D01*
X104637492Y-111034870D02*
X104071807Y-110469184D01*
X104071807Y-110469184D02*
X104098744Y-110603871D01*
X104098744Y-110603871D02*
X104098744Y-110711621D01*
X104098744Y-110711621D02*
X104071807Y-110792433D01*
X104906866Y-110011248D02*
X105283990Y-110388372D01*
X104556680Y-109930436D02*
X104826054Y-110469184D01*
X104826054Y-110469184D02*
X105176240Y-110118998D01*
X129105749Y-68555242D02*
X129859996Y-68932366D01*
X129859996Y-68932366D02*
X129482873Y-68178118D01*
X130183245Y-68555242D02*
X130290995Y-68501367D01*
X130290995Y-68501367D02*
X130425682Y-68366680D01*
X130425682Y-68366680D02*
X130452619Y-68285868D01*
X130452619Y-68285868D02*
X130452619Y-68231993D01*
X130452619Y-68231993D02*
X130425682Y-68151181D01*
X130425682Y-68151181D02*
X130371807Y-68097306D01*
X130371807Y-68097306D02*
X130290995Y-68070369D01*
X130290995Y-68070369D02*
X130237120Y-68070369D01*
X130237120Y-68070369D02*
X130156308Y-68097306D01*
X130156308Y-68097306D02*
X130021621Y-68178118D01*
X130021621Y-68178118D02*
X129940808Y-68205056D01*
X129940808Y-68205056D02*
X129886934Y-68205056D01*
X129886934Y-68205056D02*
X129806121Y-68178118D01*
X129806121Y-68178118D02*
X129752247Y-68124244D01*
X129752247Y-68124244D02*
X129725309Y-68043431D01*
X129725309Y-68043431D02*
X129725309Y-67989557D01*
X129725309Y-67989557D02*
X129752247Y-67908744D01*
X129752247Y-67908744D02*
X129886934Y-67774057D01*
X129886934Y-67774057D02*
X129994683Y-67720183D01*
X130614244Y-67639370D02*
X130883618Y-67908744D01*
X130129370Y-67531621D02*
X130614244Y-67639370D01*
X130614244Y-67639370D02*
X130506494Y-67154497D01*
X131206866Y-67531621D02*
X131314616Y-67477746D01*
X131314616Y-67477746D02*
X131449303Y-67343059D01*
X131449303Y-67343059D02*
X131476240Y-67262247D01*
X131476240Y-67262247D02*
X131476240Y-67208372D01*
X131476240Y-67208372D02*
X131449303Y-67127560D01*
X131449303Y-67127560D02*
X131395428Y-67073685D01*
X131395428Y-67073685D02*
X131314616Y-67046748D01*
X131314616Y-67046748D02*
X131260741Y-67046748D01*
X131260741Y-67046748D02*
X131179929Y-67073685D01*
X131179929Y-67073685D02*
X131045242Y-67154497D01*
X131045242Y-67154497D02*
X130964430Y-67181435D01*
X130964430Y-67181435D02*
X130910555Y-67181435D01*
X130910555Y-67181435D02*
X130829743Y-67154497D01*
X130829743Y-67154497D02*
X130775868Y-67100622D01*
X130775868Y-67100622D02*
X130748930Y-67019810D01*
X130748930Y-67019810D02*
X130748930Y-66965935D01*
X130748930Y-66965935D02*
X130775868Y-66885123D01*
X130775868Y-66885123D02*
X130910555Y-66750436D01*
X130910555Y-66750436D02*
X131018304Y-66696561D01*
X103028998Y-103845868D02*
X102948185Y-103872805D01*
X102948185Y-103872805D02*
X102867373Y-103953618D01*
X102867373Y-103953618D02*
X102813498Y-104061367D01*
X102813498Y-104061367D02*
X102813498Y-104169117D01*
X102813498Y-104169117D02*
X102840436Y-104249929D01*
X102840436Y-104249929D02*
X102921248Y-104384616D01*
X102921248Y-104384616D02*
X103002060Y-104465428D01*
X103002060Y-104465428D02*
X103136747Y-104546241D01*
X103136747Y-104546241D02*
X103217560Y-104573178D01*
X103217560Y-104573178D02*
X103325309Y-104573178D01*
X103325309Y-104573178D02*
X103433059Y-104519303D01*
X103433059Y-104519303D02*
X103486934Y-104465428D01*
X103486934Y-104465428D02*
X103540808Y-104357679D01*
X103540808Y-104357679D02*
X103540808Y-104303804D01*
X103540808Y-104303804D02*
X103352247Y-104115242D01*
X103352247Y-104115242D02*
X103244497Y-104222992D01*
X103837120Y-104115242D02*
X103271434Y-103549557D01*
X103271434Y-103549557D02*
X103486934Y-103334057D01*
X103486934Y-103334057D02*
X103567746Y-103307120D01*
X103567746Y-103307120D02*
X103621621Y-103307120D01*
X103621621Y-103307120D02*
X103702433Y-103334057D01*
X103702433Y-103334057D02*
X103783245Y-103414870D01*
X103783245Y-103414870D02*
X103810182Y-103495682D01*
X103810182Y-103495682D02*
X103810182Y-103549557D01*
X103810182Y-103549557D02*
X103783245Y-103630369D01*
X103783245Y-103630369D02*
X103567746Y-103845868D01*
X104699117Y-103253245D02*
X104375868Y-103576494D01*
X104537492Y-103414870D02*
X103971807Y-102849184D01*
X103971807Y-102849184D02*
X103998744Y-102983871D01*
X103998744Y-102983871D02*
X103998744Y-103091621D01*
X103998744Y-103091621D02*
X103971807Y-103172433D01*
X104402805Y-102525935D02*
X104402805Y-102472060D01*
X104402805Y-102472060D02*
X104429743Y-102391248D01*
X104429743Y-102391248D02*
X104564430Y-102256561D01*
X104564430Y-102256561D02*
X104645242Y-102229624D01*
X104645242Y-102229624D02*
X104699117Y-102229624D01*
X104699117Y-102229624D02*
X104779929Y-102256561D01*
X104779929Y-102256561D02*
X104833804Y-102310436D01*
X104833804Y-102310436D02*
X104887679Y-102418186D01*
X104887679Y-102418186D02*
X104887679Y-103064683D01*
X104887679Y-103064683D02*
X105237865Y-102714497D01*
X103598372Y-68006494D02*
X103517560Y-68033431D01*
X103517560Y-68033431D02*
X103436748Y-68114243D01*
X103436748Y-68114243D02*
X103382873Y-68221993D01*
X103382873Y-68221993D02*
X103382873Y-68329742D01*
X103382873Y-68329742D02*
X103409810Y-68410555D01*
X103409810Y-68410555D02*
X103490623Y-68545242D01*
X103490623Y-68545242D02*
X103571435Y-68626054D01*
X103571435Y-68626054D02*
X103706122Y-68706866D01*
X103706122Y-68706866D02*
X103786934Y-68733803D01*
X103786934Y-68733803D02*
X103894684Y-68733803D01*
X103894684Y-68733803D02*
X104002433Y-68679929D01*
X104002433Y-68679929D02*
X104056308Y-68626054D01*
X104056308Y-68626054D02*
X104110183Y-68518304D01*
X104110183Y-68518304D02*
X104110183Y-68464429D01*
X104110183Y-68464429D02*
X103921621Y-68275868D01*
X103921621Y-68275868D02*
X103813871Y-68383617D01*
X104406494Y-68275868D02*
X103840809Y-67710182D01*
X103840809Y-67710182D02*
X104056308Y-67494683D01*
X104056308Y-67494683D02*
X104137120Y-67467746D01*
X104137120Y-67467746D02*
X104190995Y-67467746D01*
X104190995Y-67467746D02*
X104271807Y-67494683D01*
X104271807Y-67494683D02*
X104352619Y-67575495D01*
X104352619Y-67575495D02*
X104379557Y-67656307D01*
X104379557Y-67656307D02*
X104379557Y-67710182D01*
X104379557Y-67710182D02*
X104352619Y-67790994D01*
X104352619Y-67790994D02*
X104137120Y-68006494D01*
X105268491Y-67413871D02*
X104945242Y-67737120D01*
X105106867Y-67575495D02*
X104541181Y-67009810D01*
X104541181Y-67009810D02*
X104568119Y-67144497D01*
X104568119Y-67144497D02*
X104568119Y-67252246D01*
X104568119Y-67252246D02*
X104541181Y-67333059D01*
X103174998Y-98765868D02*
X103094185Y-98792805D01*
X103094185Y-98792805D02*
X103013373Y-98873618D01*
X103013373Y-98873618D02*
X102959498Y-98981367D01*
X102959498Y-98981367D02*
X102959498Y-99089117D01*
X102959498Y-99089117D02*
X102986436Y-99169929D01*
X102986436Y-99169929D02*
X103067248Y-99304616D01*
X103067248Y-99304616D02*
X103148060Y-99385428D01*
X103148060Y-99385428D02*
X103282747Y-99466241D01*
X103282747Y-99466241D02*
X103363560Y-99493178D01*
X103363560Y-99493178D02*
X103471309Y-99493178D01*
X103471309Y-99493178D02*
X103579059Y-99439303D01*
X103579059Y-99439303D02*
X103632934Y-99385428D01*
X103632934Y-99385428D02*
X103686808Y-99277679D01*
X103686808Y-99277679D02*
X103686808Y-99223804D01*
X103686808Y-99223804D02*
X103498247Y-99035242D01*
X103498247Y-99035242D02*
X103390497Y-99142992D01*
X103983120Y-99035242D02*
X103417434Y-98469557D01*
X103417434Y-98469557D02*
X103632934Y-98254057D01*
X103632934Y-98254057D02*
X103713746Y-98227120D01*
X103713746Y-98227120D02*
X103767621Y-98227120D01*
X103767621Y-98227120D02*
X103848433Y-98254057D01*
X103848433Y-98254057D02*
X103929245Y-98334870D01*
X103929245Y-98334870D02*
X103956182Y-98415682D01*
X103956182Y-98415682D02*
X103956182Y-98469557D01*
X103956182Y-98469557D02*
X103929245Y-98550369D01*
X103929245Y-98550369D02*
X103713746Y-98765868D01*
X104845117Y-98173245D02*
X104521868Y-98496494D01*
X104683492Y-98334870D02*
X104117807Y-97769184D01*
X104117807Y-97769184D02*
X104144744Y-97903871D01*
X104144744Y-97903871D02*
X104144744Y-98011621D01*
X104144744Y-98011621D02*
X104117807Y-98092433D01*
X104629618Y-97257373D02*
X104683492Y-97203499D01*
X104683492Y-97203499D02*
X104764305Y-97176561D01*
X104764305Y-97176561D02*
X104818179Y-97176561D01*
X104818179Y-97176561D02*
X104898992Y-97203499D01*
X104898992Y-97203499D02*
X105033679Y-97284311D01*
X105033679Y-97284311D02*
X105168366Y-97418998D01*
X105168366Y-97418998D02*
X105249178Y-97553685D01*
X105249178Y-97553685D02*
X105276115Y-97634497D01*
X105276115Y-97634497D02*
X105276115Y-97688372D01*
X105276115Y-97688372D02*
X105249178Y-97769184D01*
X105249178Y-97769184D02*
X105195303Y-97823059D01*
X105195303Y-97823059D02*
X105114491Y-97849996D01*
X105114491Y-97849996D02*
X105060616Y-97849996D01*
X105060616Y-97849996D02*
X104979804Y-97823059D01*
X104979804Y-97823059D02*
X104845117Y-97742247D01*
X104845117Y-97742247D02*
X104710430Y-97607560D01*
X104710430Y-97607560D02*
X104629618Y-97472873D01*
X104629618Y-97472873D02*
X104602680Y-97392060D01*
X104602680Y-97392060D02*
X104602680Y-97338186D01*
X104602680Y-97338186D02*
X104629618Y-97257373D01*
X130023651Y-91428710D02*
X129565716Y-91347898D01*
X129700403Y-91751959D02*
X129134717Y-91186274D01*
X129134717Y-91186274D02*
X129350216Y-90970775D01*
X129350216Y-90970775D02*
X129431029Y-90943837D01*
X129431029Y-90943837D02*
X129484903Y-90943837D01*
X129484903Y-90943837D02*
X129565716Y-90970775D01*
X129565716Y-90970775D02*
X129646528Y-91051587D01*
X129646528Y-91051587D02*
X129673465Y-91132399D01*
X129673465Y-91132399D02*
X129673465Y-91186274D01*
X129673465Y-91186274D02*
X129646528Y-91267086D01*
X129646528Y-91267086D02*
X129431029Y-91482585D01*
X129700403Y-90620588D02*
X130158338Y-91078524D01*
X130158338Y-91078524D02*
X130239151Y-91105462D01*
X130239151Y-91105462D02*
X130293025Y-91105462D01*
X130293025Y-91105462D02*
X130373838Y-91078524D01*
X130373838Y-91078524D02*
X130481587Y-90970775D01*
X130481587Y-90970775D02*
X130508525Y-90889962D01*
X130508525Y-90889962D02*
X130508525Y-90836088D01*
X130508525Y-90836088D02*
X130481587Y-90755275D01*
X130481587Y-90755275D02*
X130023651Y-90297340D01*
X130858711Y-90593651D02*
X130293025Y-90027966D01*
X130293025Y-90027966D02*
X131181959Y-90270402D01*
X131181959Y-90270402D02*
X130616274Y-89704717D01*
X129282998Y-86075868D02*
X129202185Y-86102805D01*
X129202185Y-86102805D02*
X129121373Y-86183618D01*
X129121373Y-86183618D02*
X129067498Y-86291367D01*
X129067498Y-86291367D02*
X129067498Y-86399117D01*
X129067498Y-86399117D02*
X129094436Y-86479929D01*
X129094436Y-86479929D02*
X129175248Y-86614616D01*
X129175248Y-86614616D02*
X129256060Y-86695428D01*
X129256060Y-86695428D02*
X129390747Y-86776241D01*
X129390747Y-86776241D02*
X129471560Y-86803178D01*
X129471560Y-86803178D02*
X129579309Y-86803178D01*
X129579309Y-86803178D02*
X129687059Y-86749303D01*
X129687059Y-86749303D02*
X129740934Y-86695428D01*
X129740934Y-86695428D02*
X129794808Y-86587679D01*
X129794808Y-86587679D02*
X129794808Y-86533804D01*
X129794808Y-86533804D02*
X129606247Y-86345242D01*
X129606247Y-86345242D02*
X129498497Y-86452992D01*
X130091120Y-86345242D02*
X129525434Y-85779557D01*
X129525434Y-85779557D02*
X129740934Y-85564057D01*
X129740934Y-85564057D02*
X129821746Y-85537120D01*
X129821746Y-85537120D02*
X129875621Y-85537120D01*
X129875621Y-85537120D02*
X129956433Y-85564057D01*
X129956433Y-85564057D02*
X130037245Y-85644870D01*
X130037245Y-85644870D02*
X130064182Y-85725682D01*
X130064182Y-85725682D02*
X130064182Y-85779557D01*
X130064182Y-85779557D02*
X130037245Y-85860369D01*
X130037245Y-85860369D02*
X129821746Y-86075868D01*
X130118057Y-85294683D02*
X130118057Y-85240809D01*
X130118057Y-85240809D02*
X130144995Y-85159996D01*
X130144995Y-85159996D02*
X130279682Y-85025309D01*
X130279682Y-85025309D02*
X130360494Y-84998372D01*
X130360494Y-84998372D02*
X130414369Y-84998372D01*
X130414369Y-84998372D02*
X130495181Y-85025309D01*
X130495181Y-85025309D02*
X130549056Y-85079184D01*
X130549056Y-85079184D02*
X130602930Y-85186934D01*
X130602930Y-85186934D02*
X130602930Y-85833431D01*
X130602930Y-85833431D02*
X130953117Y-85483245D01*
X130575993Y-84728998D02*
X130953117Y-84351874D01*
X130953117Y-84351874D02*
X131276366Y-85159996D01*
X148333333Y-106084819D02*
X148000000Y-105608628D01*
X147761905Y-106084819D02*
X147761905Y-105084819D01*
X147761905Y-105084819D02*
X148142857Y-105084819D01*
X148142857Y-105084819D02*
X148238095Y-105132438D01*
X148238095Y-105132438D02*
X148285714Y-105180057D01*
X148285714Y-105180057D02*
X148333333Y-105275295D01*
X148333333Y-105275295D02*
X148333333Y-105418152D01*
X148333333Y-105418152D02*
X148285714Y-105513390D01*
X148285714Y-105513390D02*
X148238095Y-105561009D01*
X148238095Y-105561009D02*
X148142857Y-105608628D01*
X148142857Y-105608628D02*
X147761905Y-105608628D01*
X148714286Y-105180057D02*
X148761905Y-105132438D01*
X148761905Y-105132438D02*
X148857143Y-105084819D01*
X148857143Y-105084819D02*
X149095238Y-105084819D01*
X149095238Y-105084819D02*
X149190476Y-105132438D01*
X149190476Y-105132438D02*
X149238095Y-105180057D01*
X149238095Y-105180057D02*
X149285714Y-105275295D01*
X149285714Y-105275295D02*
X149285714Y-105370533D01*
X149285714Y-105370533D02*
X149238095Y-105513390D01*
X149238095Y-105513390D02*
X148666667Y-106084819D01*
X148666667Y-106084819D02*
X149285714Y-106084819D01*
X148633333Y-75584819D02*
X148300000Y-75108628D01*
X148061905Y-75584819D02*
X148061905Y-74584819D01*
X148061905Y-74584819D02*
X148442857Y-74584819D01*
X148442857Y-74584819D02*
X148538095Y-74632438D01*
X148538095Y-74632438D02*
X148585714Y-74680057D01*
X148585714Y-74680057D02*
X148633333Y-74775295D01*
X148633333Y-74775295D02*
X148633333Y-74918152D01*
X148633333Y-74918152D02*
X148585714Y-75013390D01*
X148585714Y-75013390D02*
X148538095Y-75061009D01*
X148538095Y-75061009D02*
X148442857Y-75108628D01*
X148442857Y-75108628D02*
X148061905Y-75108628D01*
X149585714Y-75584819D02*
X149014286Y-75584819D01*
X149300000Y-75584819D02*
X149300000Y-74584819D01*
X149300000Y-74584819D02*
X149204762Y-74727676D01*
X149204762Y-74727676D02*
X149109524Y-74822914D01*
X149109524Y-74822914D02*
X149014286Y-74870533D01*
X155404761Y-66350057D02*
X155309523Y-66302438D01*
X155309523Y-66302438D02*
X155214285Y-66207200D01*
X155214285Y-66207200D02*
X155071428Y-66064342D01*
X155071428Y-66064342D02*
X154976190Y-66016723D01*
X154976190Y-66016723D02*
X154880952Y-66016723D01*
X154928571Y-66254819D02*
X154833333Y-66207200D01*
X154833333Y-66207200D02*
X154738095Y-66111961D01*
X154738095Y-66111961D02*
X154690476Y-65921485D01*
X154690476Y-65921485D02*
X154690476Y-65588152D01*
X154690476Y-65588152D02*
X154738095Y-65397676D01*
X154738095Y-65397676D02*
X154833333Y-65302438D01*
X154833333Y-65302438D02*
X154928571Y-65254819D01*
X154928571Y-65254819D02*
X155119047Y-65254819D01*
X155119047Y-65254819D02*
X155214285Y-65302438D01*
X155214285Y-65302438D02*
X155309523Y-65397676D01*
X155309523Y-65397676D02*
X155357142Y-65588152D01*
X155357142Y-65588152D02*
X155357142Y-65921485D01*
X155357142Y-65921485D02*
X155309523Y-66111961D01*
X155309523Y-66111961D02*
X155214285Y-66207200D01*
X155214285Y-66207200D02*
X155119047Y-66254819D01*
X155119047Y-66254819D02*
X154928571Y-66254819D01*
X156309523Y-66254819D02*
X155738095Y-66254819D01*
X156023809Y-66254819D02*
X156023809Y-65254819D01*
X156023809Y-65254819D02*
X155928571Y-65397676D01*
X155928571Y-65397676D02*
X155833333Y-65492914D01*
X155833333Y-65492914D02*
X155738095Y-65540533D01*
X155311905Y-87634819D02*
X155311905Y-86634819D01*
X155883333Y-87634819D02*
X155454762Y-87063390D01*
X155883333Y-86634819D02*
X155311905Y-87206247D01*
X156835714Y-87634819D02*
X156264286Y-87634819D01*
X156550000Y-87634819D02*
X156550000Y-86634819D01*
X156550000Y-86634819D02*
X156454762Y-86777676D01*
X156454762Y-86777676D02*
X156359524Y-86872914D01*
X156359524Y-86872914D02*
X156264286Y-86920533D01*
X167666666Y-72954819D02*
X167666666Y-73669104D01*
X167666666Y-73669104D02*
X167619047Y-73811961D01*
X167619047Y-73811961D02*
X167523809Y-73907200D01*
X167523809Y-73907200D02*
X167380952Y-73954819D01*
X167380952Y-73954819D02*
X167285714Y-73954819D01*
X168666666Y-73954819D02*
X168095238Y-73954819D01*
X168380952Y-73954819D02*
X168380952Y-72954819D01*
X168380952Y-72954819D02*
X168285714Y-73097676D01*
X168285714Y-73097676D02*
X168190476Y-73192914D01*
X168190476Y-73192914D02*
X168095238Y-73240533D01*
X171991905Y-104994819D02*
X171991905Y-103994819D01*
X171991905Y-103994819D02*
X172230000Y-103994819D01*
X172230000Y-103994819D02*
X172372857Y-104042438D01*
X172372857Y-104042438D02*
X172468095Y-104137676D01*
X172468095Y-104137676D02*
X172515714Y-104232914D01*
X172515714Y-104232914D02*
X172563333Y-104423390D01*
X172563333Y-104423390D02*
X172563333Y-104566247D01*
X172563333Y-104566247D02*
X172515714Y-104756723D01*
X172515714Y-104756723D02*
X172468095Y-104851961D01*
X172468095Y-104851961D02*
X172372857Y-104947200D01*
X172372857Y-104947200D02*
X172230000Y-104994819D01*
X172230000Y-104994819D02*
X171991905Y-104994819D01*
X173515714Y-104994819D02*
X172944286Y-104994819D01*
X173230000Y-104994819D02*
X173230000Y-103994819D01*
X173230000Y-103994819D02*
X173134762Y-104137676D01*
X173134762Y-104137676D02*
X173039524Y-104232914D01*
X173039524Y-104232914D02*
X172944286Y-104280533D01*
D11*
%TO.C,U1*%
X106685000Y-63985000D02*
X106685000Y-64285000D01*
X106685000Y-63985000D02*
X127685000Y-63985000D01*
X106685000Y-66385000D02*
X106685000Y-66785000D01*
X106685000Y-66652000D02*
X109692000Y-66652000D01*
X106685000Y-68985000D02*
X106685000Y-69385000D01*
X106685000Y-71485000D02*
X106685000Y-71885000D01*
X106685000Y-74085000D02*
X106685000Y-74485000D01*
X106685000Y-76585000D02*
X106685000Y-76985000D01*
X106685000Y-79085000D02*
X106685000Y-79485000D01*
X106685000Y-81685000D02*
X106685000Y-82085000D01*
X106685000Y-84185000D02*
X106685000Y-84585000D01*
X106685000Y-86785000D02*
X106685000Y-87185000D01*
X106685000Y-89285000D02*
X106685000Y-89685000D01*
X106685000Y-91785000D02*
X106685000Y-92185000D01*
X106685000Y-94385000D02*
X106685000Y-94785000D01*
X106685000Y-96885000D02*
X106685000Y-97285000D01*
X106685000Y-99485000D02*
X106685000Y-99885000D01*
X106685000Y-101985000D02*
X106685000Y-102385000D01*
X106685000Y-104585000D02*
X106685000Y-104985000D01*
X106685000Y-107085000D02*
X106685000Y-107485000D01*
X106685000Y-109585000D02*
X106685000Y-109985000D01*
X106685000Y-112185000D02*
X106685000Y-112585000D01*
X109692000Y-66652000D02*
X109692000Y-63985000D01*
X113485000Y-114985000D02*
X106685000Y-114985000D01*
X115685000Y-114985000D02*
X116085000Y-114985000D01*
X118285000Y-114985000D02*
X118685000Y-114985000D01*
X127685000Y-63985000D02*
X127685000Y-64285000D01*
X127685000Y-66385000D02*
X127685000Y-66785000D01*
X127685000Y-68985000D02*
X127685000Y-69385000D01*
X127685000Y-71485000D02*
X127685000Y-71885000D01*
X127685000Y-74085000D02*
X127685000Y-74485000D01*
X127685000Y-76585000D02*
X127685000Y-76985000D01*
X127685000Y-79085000D02*
X127685000Y-79485000D01*
X127685000Y-81685000D02*
X127685000Y-82085000D01*
X127685000Y-84185000D02*
X127685000Y-84585000D01*
X127685000Y-86785000D02*
X127685000Y-87185000D01*
X127685000Y-89285000D02*
X127685000Y-89685000D01*
X127685000Y-91785000D02*
X127685000Y-92185000D01*
X127685000Y-94385000D02*
X127685000Y-94785000D01*
X127685000Y-96885000D02*
X127685000Y-97285000D01*
X127685000Y-99485000D02*
X127685000Y-99885000D01*
X127685000Y-101985000D02*
X127685000Y-102385000D01*
X127685000Y-104585000D02*
X127685000Y-104985000D01*
X127685000Y-107085000D02*
X127685000Y-107485000D01*
X127685000Y-109585000D02*
X127685000Y-109985000D01*
X127685000Y-112185000D02*
X127685000Y-112585000D01*
X127685000Y-114985000D02*
X120885000Y-114985000D01*
%TO.C,R2*%
X137240000Y-109000000D02*
X142430000Y-109000000D01*
X142430000Y-106630000D02*
X142430000Y-111370000D01*
X142430000Y-111370000D02*
X154570000Y-111370000D01*
X154570000Y-106630000D02*
X142430000Y-106630000D01*
X154570000Y-111370000D02*
X154570000Y-106630000D01*
X159760000Y-109000000D02*
X154570000Y-109000000D01*
%TO.C,R1*%
X137540000Y-78500000D02*
X142730000Y-78500000D01*
X142730000Y-76130000D02*
X142730000Y-80870000D01*
X142730000Y-80870000D02*
X154870000Y-80870000D01*
X154870000Y-76130000D02*
X142730000Y-76130000D01*
X154870000Y-80870000D02*
X154870000Y-76130000D01*
X160060000Y-78500000D02*
X154870000Y-78500000D01*
%TO.C,Q1*%
X153700000Y-71210000D02*
X157300000Y-71210000D01*
X153661522Y-71198478D02*
G75*
G02*
X155500000Y-66760000I1838478J1838478D01*
G01*
X155500000Y-66760000D02*
G75*
G02*
X157338478Y-71198478I0J-2600000D01*
G01*
%TO.C,K1*%
X141300000Y-97350000D02*
X141300000Y-99000000D01*
X141300000Y-99000000D02*
X143550000Y-99000000D01*
X141500000Y-88200000D02*
X161700000Y-88200000D01*
X141500000Y-98800000D02*
X141500000Y-88200000D01*
X146190000Y-89680000D02*
X147460000Y-89680000D01*
X146190000Y-90950000D02*
X147460000Y-90950000D01*
X146190000Y-92220000D02*
X148730000Y-93490000D01*
X146190000Y-96030000D02*
X146190000Y-90950000D01*
X147460000Y-89680000D02*
X147460000Y-90950000D01*
X147460000Y-90950000D02*
X148730000Y-90950000D01*
X147460000Y-96030000D02*
X147460000Y-97300000D01*
X147460000Y-97300000D02*
X146190000Y-97300000D01*
X148730000Y-90950000D02*
X148730000Y-96030000D01*
X148730000Y-96030000D02*
X146190000Y-96030000D01*
X163450000Y-88200000D02*
X168050000Y-88200000D01*
X164900000Y-98800000D02*
X141500000Y-98800000D01*
X169850000Y-88200000D02*
X170500000Y-88200000D01*
X170500000Y-88200000D02*
X170500000Y-88900000D01*
X170500000Y-90500000D02*
X170500000Y-98800000D01*
X170500000Y-98800000D02*
X166650000Y-98800000D01*
%TO.C,J1*%
X164940000Y-74590000D02*
X164940000Y-82410000D01*
X164940000Y-76190000D02*
X165860000Y-76190000D01*
X164940000Y-82410000D02*
X171060000Y-82410000D01*
X165700000Y-78550000D02*
X165700000Y-80150000D01*
X165700000Y-80150000D02*
X166700000Y-80150000D01*
X165860000Y-74590000D02*
X164940000Y-74590000D01*
X165860000Y-76190000D02*
X165860000Y-74590000D01*
X166140000Y-76190000D02*
X165860000Y-76190000D01*
X166140000Y-76190000D02*
X166140000Y-74975000D01*
X166200000Y-80150000D02*
X166200000Y-82410000D01*
X166700000Y-78550000D02*
X165700000Y-78550000D01*
X166700000Y-80150000D02*
X166700000Y-78550000D01*
X166700000Y-80150000D02*
X166700000Y-82410000D01*
X167500000Y-78050000D02*
X168500000Y-78050000D01*
X167500000Y-82410000D02*
X167500000Y-78050000D01*
X168500000Y-78050000D02*
X168500000Y-82410000D01*
X169300000Y-78550000D02*
X170300000Y-78550000D01*
X169300000Y-80150000D02*
X169300000Y-78550000D01*
X170140000Y-74590000D02*
X170140000Y-76190000D01*
X170140000Y-76190000D02*
X169860000Y-76190000D01*
X170300000Y-78550000D02*
X170300000Y-80150000D01*
X170300000Y-80150000D02*
X169300000Y-80150000D01*
X171060000Y-74590000D02*
X170140000Y-74590000D01*
X171060000Y-76190000D02*
X170140000Y-76190000D01*
X171060000Y-82410000D02*
X171060000Y-74590000D01*
%TO.C,D1*%
X170170000Y-106955000D02*
X170170000Y-110045000D01*
X170170001Y-106955170D02*
G75*
G02*
X175719999Y-108500462I2559999J-1544830D01*
G01*
X175720000Y-108499538D02*
G75*
G02*
X170170000Y-110044830I-2990000J-462D01*
G01*
X175230000Y-108500000D02*
G75*
G02*
X170230000Y-108500000I-2500000J0D01*
G01*
X170230000Y-108500000D02*
G75*
G02*
X175230000Y-108500000I2500000J0D01*
G01*
%TD*%
M02*
